# This file uses centimeters as units for non-parametric coordinates.

mtllib MetalPlataform1.mtl
g default
v 25.001077 1.808321 13.694907
v 27.612444 1.808321 13.694907
v 25.001077 1.945499 13.694907
v 27.612444 1.945499 13.694907
v 25.001077 1.945499 8.234327
v 27.612444 1.945499 8.234327
v 25.001077 1.808321 8.234327
v 27.612444 1.808321 8.234327
vt 0.015002 0.251543
vt 0.490079 0.252607
vt 0.489963 0.258559
vt 0.014886 0.257495
vt 0.016102 0.268603
vt 0.487424 0.268125
vt 0.487448 0.274077
vt 0.016126 0.274555
vt 0.009561 0.237286
vt 0.008998 0.009440
vt 0.485444 0.008263
vt 0.486006 0.236109
vt 0.503179 0.240061
vt 0.504334 0.012217
vt 0.980775 0.014632
vt 0.979620 0.242476
vt 0.764877 0.257778
vt 0.982285 0.257341
vt 0.982315 0.265948
vt 0.764908 0.266385
vt 0.518293 0.254156
vt 0.737109 0.253504
vt 0.737155 0.262111
vt 0.518339 0.262763
vn 0.000000 0.000000 1.000000
vn 0.000000 0.000000 1.000000
vn 0.000000 0.000000 1.000000
vn 0.000000 0.000000 1.000000
vn 0.000000 1.000000 0.000000
vn 0.000000 1.000000 0.000000
vn 0.000000 1.000000 0.000000
vn 0.000000 1.000000 0.000000
vn 0.000000 0.000000 -1.000000
vn 0.000000 0.000000 -1.000000
vn 0.000000 0.000000 -1.000000
vn 0.000000 0.000000 -1.000000
vn 0.000000 -1.000000 0.000000
vn 0.000000 -1.000000 0.000000
vn 0.000000 -1.000000 0.000000
vn 0.000000 -1.000000 0.000000
vn 1.000000 0.000000 0.000000
vn 1.000000 0.000000 0.000000
vn 1.000000 0.000000 0.000000
vn 1.000000 0.000000 0.000000
vn -1.000000 0.000000 0.000000
vn -1.000000 0.000000 0.000000
vn -1.000000 0.000000 0.000000
vn -1.000000 0.000000 0.000000
s off
g pCube258
usemtl initialShadingGroup
f 1/17/1 2/18/2 4/19/3 3/20/4
f 3/9/5 4/10/6 6/11/7 5/12/8
f 5/21/9 6/22/10 8/23/11 7/24/12
f 7/13/13 8/14/14 2/15/15 1/16/16
f 2/1/17 8/2/18 6/3/19 4/4/20
f 7/5/21 1/6/22 3/7/23 5/8/24
