# This file uses centimeters as units for non-parametric coordinates.

mtllib MetalpipeLong.mtl
g default
v 18.693667 1.982121 9.382528
v 18.894662 1.982121 9.382528
v 18.693667 11.982121 9.382528
v 18.894662 11.982121 9.382528
v 18.693667 11.982121 9.181533
v 18.894662 11.982121 9.181533
v 18.693667 1.982121 9.181533
v 18.894662 1.982121 9.181533
vt 0.961564 0.332068
vt 0.974581 0.332059
vt 0.921474 0.314909
vt 0.975043 0.979672
vt 0.921464 0.327981
vt 0.934536 0.327991
vt 0.920951 0.978346
vt 0.934023 0.978356
vt 0.920940 0.991418
vt 0.934012 0.991428
vt 0.987597 0.332050
vt 0.988060 0.979663
vt 0.948547 0.332078
vt 0.949010 0.979691
vt 0.962026 0.979681
vt 0.934546 0.314919
vn 0.000000 0.000000 1.000000
vn 0.000000 0.000000 1.000000
vn 0.000000 0.000000 1.000000
vn 0.000000 0.000000 1.000000
vn 0.000000 1.000000 0.000000
vn 0.000000 1.000000 0.000000
vn 0.000000 1.000000 0.000000
vn 0.000000 1.000000 0.000000
vn 0.000000 0.000000 -1.000000
vn 0.000000 0.000000 -1.000000
vn 0.000000 0.000000 -1.000000
vn 0.000000 0.000000 -1.000000
vn 0.000000 -1.000000 0.000000
vn 0.000000 -1.000000 0.000000
vn 0.000000 -1.000000 0.000000
vn 0.000000 -1.000000 0.000000
vn 1.000000 0.000000 0.000000
vn 1.000000 0.000000 0.000000
vn 1.000000 0.000000 0.000000
vn 1.000000 0.000000 0.000000
vn -1.000000 0.000000 0.000000
vn -1.000000 0.000000 0.000000
vn -1.000000 0.000000 0.000000
vn -1.000000 0.000000 0.000000
s off
g pCube261
usemtl initialShadingGroup
f 1/1/1 2/2/2 4/4/3 3/15/4
f 3/3/5 4/16/6 6/6/7 5/5/8
f 5/5/9 6/6/10 8/8/11 7/7/12
f 7/7/13 8/8/14 2/10/15 1/9/16
f 2/2/17 8/11/18 6/12/19 4/4/20
f 7/13/21 1/1/22 3/15/23 5/14/24
