# This file uses centimeters as units for non-parametric coordinates.

mtllib Bookshelf.mtl
g default
v -91.264703 -0.066579 -27.353251
v -88.155471 -0.066579 -27.353251
v -91.264703 5.011833 -27.353251
v -88.155471 5.011833 -27.353251
v -91.264703 5.011833 -28.362362
v -88.155471 5.011833 -28.362362
v -91.264703 -0.066579 -28.362362
v -88.155471 -0.066579 -28.362362
v -91.264703 4.766587 -27.353251
v -91.264703 4.766588 -28.362362
v -88.155471 4.766588 -28.362362
v -88.155471 4.766587 -27.353251
v -91.264703 3.783598 -27.353251
v -91.264703 3.783599 -28.362362
v -88.155471 3.783599 -28.362362
v -88.155471 3.783598 -27.353251
v -91.264703 3.537510 -27.353251
v -91.264703 3.537513 -28.362362
v -88.155471 3.537513 -28.362362
v -88.155471 3.537510 -27.353251
v -91.264703 2.563047 -27.353251
v -91.264703 2.563049 -28.362362
v -88.155471 2.563049 -28.362362
v -88.155471 2.563047 -27.353251
v -91.264703 2.318724 -27.353251
v -91.264703 2.318726 -28.362362
v -88.155471 2.318726 -28.362362
v -88.155471 2.318724 -27.353251
v -91.264703 1.339110 -27.353251
v -91.264703 1.339113 -28.362362
v -88.155471 1.339113 -28.362362
v -88.155471 1.339110 -27.353251
v -91.264703 1.089096 -27.353251
v -91.264703 1.089097 -28.362362
v -88.155471 1.089097 -28.362362
v -88.155471 1.089096 -27.353251
v -91.264703 0.114637 -27.353251
v -91.264703 0.114637 -28.362362
v -88.155471 0.114637 -28.362362
v -88.155471 0.114637 -27.353251
v -91.017857 -0.066579 -27.353251
v -91.017857 0.114637 -27.353251
v -91.017857 1.089096 -27.353251
v -91.017857 1.339110 -27.353251
v -91.017857 2.318724 -27.353251
v -91.017857 2.563047 -27.353251
v -91.017857 3.537510 -27.353251
v -91.017857 3.783598 -27.353251
v -91.017857 4.766587 -27.353251
v -91.017857 5.011833 -27.353251
v -91.017857 5.011833 -28.362362
v -91.017857 4.766588 -28.362362
v -91.017857 3.783599 -28.362362
v -91.017857 3.537513 -28.362362
v -91.017857 2.563049 -28.362362
v -91.017857 2.318726 -28.362362
v -91.017857 1.339113 -28.362362
v -91.017857 1.089097 -28.362362
v -91.017857 0.114637 -28.362362
v -91.017857 -0.066579 -28.362362
v -88.427219 4.766587 -27.353251
v -88.427219 3.783598 -27.353251
v -88.427219 3.537510 -27.353251
v -88.427219 2.563047 -27.353251
v -88.427219 2.318724 -27.353251
v -88.427219 1.339110 -27.353251
v -88.427219 1.089096 -27.353251
v -88.427219 0.114637 -27.353251
v -88.427219 -0.066579 -27.353251
v -88.427219 -0.066579 -28.362362
v -88.427219 0.114637 -28.362362
v -88.427219 1.089097 -28.362362
v -88.427219 1.339113 -28.362362
v -88.427219 2.318726 -28.362362
v -88.427219 2.563049 -28.362362
v -88.427219 3.537513 -28.362362
v -88.427219 3.783599 -28.362362
v -88.427219 4.766588 -28.362362
v -88.427219 5.011833 -28.362362
v -88.427219 5.011833 -27.353251
v -91.017857 3.783598 -28.269819
v -91.017857 4.766587 -28.269819
v -88.427219 3.783598 -28.269819
v -88.427219 4.766587 -28.269819
v -91.017857 2.563047 -28.269819
v -91.017857 3.537510 -28.269819
v -88.427219 2.563047 -28.269819
v -88.427219 3.537510 -28.269819
v -91.017857 1.339110 -28.269819
v -91.017857 2.318724 -28.269819
v -88.427219 1.339110 -28.269819
v -88.427219 2.318724 -28.269819
v -91.017857 0.114637 -28.269819
v -91.017857 1.089096 -28.269819
v -88.427219 0.114637 -28.269819
v -88.427219 1.089096 -28.269819
vt 0.505585 0.809366
vt 0.505586 0.858656
vt 0.496734 0.858656
vt 0.496734 0.809366
vt 0.449136 0.858657
vt 0.449136 0.809366
vt 0.436924 0.858657
vt 0.436924 0.809366
vt 0.389075 0.858657
vt 0.389074 0.809367
vt 0.377141 0.858657
vt 0.377140 0.809367
vt 0.329543 0.858658
vt 0.329542 0.809367
vt 0.317522 0.858658
vt 0.317522 0.809367
vt 0.269508 0.858658
vt 0.269508 0.809368
vt 0.257529 0.858658
vt 0.257528 0.809368
vt 0.248058 0.756361
vt 0.248057 0.805652
vt 0.239205 0.805652
vt 0.239206 0.756361
vt 0.191608 0.805651
vt 0.191608 0.756360
vt 0.179395 0.805651
vt 0.179396 0.756360
vt 0.131546 0.805650
vt 0.131546 0.756360
vt 0.119612 0.805650
vt 0.119612 0.756359
vt 0.072014 0.805649
vt 0.072014 0.756359
vt 0.059994 0.805649
vt 0.059994 0.756359
vt 0.011979 0.805648
vt 0.011980 0.756358
vt 0.000000 0.805648
vt 0.000001 0.756358
vt 0.611002 0.194595
vt 0.610999 0.146581
vt 0.655769 0.146578
vt 0.655773 0.194592
vt 0.105365 0.403264
vt 0.105368 0.451278
vt 0.060598 0.451281
vt 0.060595 0.403267
vt 0.520106 0.210835
vt 0.520115 0.163237
vt 0.564885 0.163245
vt 0.564877 0.210842
vt 0.756769 0.738735
vt 0.756761 0.786333
vt 0.711990 0.786325
vt 0.711999 0.738727
vt 0.641296 0.569326
vt 0.641305 0.521477
vt 0.686076 0.521485
vt 0.686067 0.569335
vt 0.044779 0.406116
vt 0.044770 0.453966
vt 0.000000 0.453957
vt 0.000009 0.406107
vt 0.711990 0.839732
vt 0.711999 0.792134
vt 0.756769 0.792142
vt 0.756761 0.839740
vt 0.464561 0.163475
vt 0.512159 0.163467
vt 0.512167 0.208237
vt 0.464569 0.208246
vt 0.429214 0.563437
vt 0.429216 0.551379
vt 0.478507 0.551388
vt 0.478505 0.563445
vt 0.429238 0.424839
vt 0.478528 0.424847
vt 0.429240 0.411565
vt 0.478531 0.411573
vt 0.000008 0.811455
vt 0.012066 0.811457
vt 0.012057 0.860748
vt 0.000000 0.860746
vt 0.138606 0.811479
vt 0.138598 0.860770
vt 0.151880 0.811481
vt 0.151872 0.860772
vt 0.515060 0.853054
vt 0.641601 0.853063
vt 0.641598 0.897833
vt 0.515057 0.897824
vt 0.777936 0.948401
vt 0.651396 0.948392
vt 0.651399 0.903622
vt 0.777939 0.903631
vt 0.711994 0.853049
vt 0.838534 0.853058
vt 0.838531 0.897828
vt 0.711990 0.897819
vt 0.914275 0.948411
vt 0.787734 0.948402
vt 0.787737 0.903632
vt 0.914278 0.903641
vt 0.378722 0.864464
vt 0.505262 0.864473
vt 0.505259 0.909244
vt 0.378718 0.909234
vt 0.641598 0.948411
vt 0.515057 0.948402
vt 0.515060 0.903632
vt 0.641601 0.903641
vt 0.161590 0.864459
vt 0.288130 0.864468
vt 0.288127 0.909238
vt 0.161586 0.909229
vt 0.126541 0.911346
vt 0.000000 0.911337
vt 0.000003 0.866567
vt 0.126544 0.866576
vt 0.287857 0.000003
vt 0.299914 0.000004
vt 0.299913 0.008856
vt 0.287856 0.008854
vt 0.426455 0.000020
vt 0.426454 0.008872
vt 0.299907 0.056454
vt 0.287850 0.056452
vt 0.439728 0.000022
vt 0.439727 0.008873
vt 0.299906 0.068666
vt 0.287848 0.068664
vt 0.426448 0.056469
vt 0.439721 0.056471
vt 0.426446 0.068682
vt 0.299900 0.116515
vt 0.287842 0.116514
vt 0.439720 0.068683
vt 0.299898 0.128449
vt 0.287841 0.128448
vt 0.426440 0.116531
vt 0.439714 0.116533
vt 0.426439 0.128465
vt 0.299892 0.176047
vt 0.287835 0.176046
vt 0.439712 0.128467
vt 0.299891 0.188068
vt 0.287833 0.188066
vt 0.426433 0.176063
vt 0.439706 0.176065
vt 0.426431 0.188083
vt 0.299885 0.236082
vt 0.287827 0.236081
vt 0.439705 0.188085
vt 0.299883 0.248061
vt 0.287826 0.248060
vt 0.426425 0.236098
vt 0.439699 0.236100
vt 0.426424 0.248077
vt 0.439698 0.248079
vt 0.527031 0.405764
vt 0.527032 0.393707
vt 0.535884 0.393708
vt 0.535883 0.405765
vt 0.479433 0.405761
vt 0.479434 0.393704
vt 0.527041 0.267166
vt 0.535893 0.267167
vt 0.467221 0.405760
vt 0.467222 0.393703
vt 0.479443 0.267163
vt 0.527042 0.253893
vt 0.535894 0.253893
vt 0.419372 0.405757
vt 0.419373 0.393699
vt 0.467231 0.267162
vt 0.479444 0.253889
vt 0.407438 0.405756
vt 0.407439 0.393698
vt 0.419382 0.267159
vt 0.467232 0.253888
vt 0.359840 0.405752
vt 0.359841 0.393695
vt 0.407448 0.267158
vt 0.419383 0.253885
vt 0.347819 0.405751
vt 0.347820 0.393694
vt 0.359850 0.267154
vt 0.407449 0.253884
vt 0.299805 0.405748
vt 0.299806 0.393691
vt 0.347829 0.267153
vt 0.359851 0.253881
vt 0.287826 0.405747
vt 0.287827 0.393690
vt 0.299815 0.267150
vt 0.347830 0.253880
vt 0.287836 0.267149
vt 0.299816 0.253876
vt 0.287837 0.253876
vt 0.386347 0.801365
vt 0.338333 0.801370
vt 0.338322 0.674829
vt 0.386336 0.674825
vt 0.926225 0.126544
vt 0.878627 0.126544
vt 0.878628 0.000003
vt 0.926226 0.000004
vt 0.921427 0.537573
vt 0.873577 0.537568
vt 0.873590 0.411028
vt 0.921440 0.411033
vt 0.926224 0.258892
vt 0.878627 0.258891
vt 0.878628 0.132351
vt 0.926226 0.132351
vn 0.000000 0.000000 1.000000
vn 0.000000 0.000000 1.000000
vn 0.000000 0.000000 1.000000
vn 0.000000 0.000000 1.000000
vn 0.000000 1.000000 0.000000
vn 0.000000 1.000000 0.000000
vn 0.000000 1.000000 0.000000
vn 0.000000 1.000000 0.000000
vn 0.000000 0.000000 -1.000000
vn 0.000000 0.000000 -1.000000
vn 0.000000 0.000000 -1.000000
vn 0.000000 0.000000 -1.000000
vn 0.000000 -1.000000 0.000000
vn 0.000000 -1.000000 0.000000
vn 0.000000 -1.000000 0.000000
vn 0.000000 -1.000000 0.000000
vn 1.000000 0.000000 0.000000
vn 1.000000 0.000000 0.000000
vn 1.000000 0.000000 0.000000
vn 1.000000 0.000000 0.000000
vn -1.000000 0.000000 0.000000
vn -1.000000 0.000000 0.000000
vn -1.000000 0.000000 0.000000
vn -1.000000 0.000000 0.000000
vn -1.000000 0.000000 0.000000
vn -1.000000 0.000000 0.000000
vn -1.000000 0.000000 0.000000
vn -1.000000 0.000000 0.000000
vn 0.000000 0.000000 -1.000000
vn 0.000000 0.000000 -1.000000
vn 0.000000 0.000000 -1.000000
vn 0.000000 0.000000 -1.000000
vn 1.000000 0.000000 0.000000
vn 1.000000 0.000000 0.000000
vn 1.000000 0.000000 0.000000
vn 1.000000 0.000000 0.000000
vn 0.000000 0.000000 1.000000
vn 0.000000 0.000000 1.000000
vn 0.000000 0.000000 1.000000
vn 0.000000 0.000000 1.000000
vn -1.000000 0.000000 0.000000
vn -1.000000 0.000000 0.000000
vn 0.000000 0.000000 -1.000000
vn 0.000000 0.000000 -1.000000
vn 1.000000 0.000000 0.000000
vn 1.000000 0.000000 0.000000
vn 0.000000 0.000000 1.000000
vn 0.000000 0.000000 1.000000
vn -1.000000 0.000000 0.000000
vn -1.000000 0.000000 0.000000
vn 0.000000 0.000000 -1.000000
vn 0.000000 0.000000 -1.000000
vn 1.000000 0.000000 0.000000
vn 1.000000 0.000000 0.000000
vn 0.000000 0.000000 1.000000
vn 0.000000 0.000000 1.000000
vn -1.000000 0.000000 0.000000
vn -1.000000 0.000000 0.000000
vn 0.000000 0.000000 -1.000000
vn 0.000000 0.000000 -1.000000
vn 1.000000 0.000000 0.000000
vn 1.000000 0.000000 0.000000
vn 0.000000 0.000000 1.000000
vn 0.000000 0.000000 1.000000
vn -1.000000 0.000000 0.000000
vn -1.000000 0.000000 0.000000
vn 0.000000 0.000000 -1.000000
vn 0.000000 0.000000 -1.000000
vn 1.000000 0.000000 0.000000
vn 1.000000 0.000000 0.000000
vn 0.000000 0.000000 1.000000
vn 0.000000 0.000000 1.000000
vn -1.000000 0.000000 0.000000
vn -1.000000 0.000000 0.000000
vn 0.000000 0.000000 -1.000000
vn 0.000000 0.000000 -1.000000
vn 1.000000 0.000000 0.000000
vn 1.000000 0.000000 0.000000
vn 0.000000 0.000000 1.000000
vn 0.000000 0.000000 1.000000
vn -1.000000 0.000000 0.000000
vn -1.000000 0.000000 0.000000
vn 0.000000 0.000000 -1.000000
vn 0.000000 0.000000 -1.000000
vn 1.000000 0.000000 0.000000
vn 1.000000 0.000000 0.000000
vn 0.000000 0.000000 1.000000
vn 0.000000 0.000000 1.000000
vn 0.000000 0.000000 1.000000
vn 0.000000 0.000000 1.000000
vn 0.000000 0.000000 1.000000
vn 0.000000 0.000000 1.000000
vn 0.000000 0.000000 1.000000
vn 0.000000 0.000000 1.000000
vn 0.000000 0.000000 1.000000
vn 0.000000 0.000000 1.000000
vn 0.000000 0.000000 1.000000
vn 0.000000 0.000000 1.000000
vn 0.000000 0.000000 1.000000
vn 0.000000 0.000000 1.000000
vn 0.000000 0.000000 1.000000
vn 0.000000 0.000000 1.000000
vn 0.000000 0.000000 1.000000
vn 0.000000 0.000000 1.000000
vn 0.000000 0.000000 1.000000
vn 0.000000 0.000000 1.000000
vn 0.000000 0.000000 1.000000
vn 0.000000 0.000000 1.000000
vn 0.000000 1.000000 0.000000
vn 0.000000 1.000000 0.000000
vn 0.000000 1.000000 0.000000
vn 0.000000 1.000000 0.000000
vn 0.000000 0.000000 -1.000000
vn 0.000000 0.000000 -1.000000
vn 0.000000 0.000000 -1.000000
vn 0.000000 0.000000 -1.000000
vn 0.000000 0.000000 -1.000000
vn 0.000000 0.000000 -1.000000
vn 0.000000 0.000000 -1.000000
vn 0.000000 0.000000 -1.000000
vn 0.000000 0.000000 -1.000000
vn 0.000000 0.000000 -1.000000
vn 0.000000 0.000000 -1.000000
vn 0.000000 0.000000 -1.000000
vn 0.000000 0.000000 -1.000000
vn 0.000000 0.000000 -1.000000
vn 0.000000 0.000000 -1.000000
vn 0.000000 0.000000 -1.000000
vn 0.000000 0.000000 -1.000000
vn 0.000000 0.000000 -1.000000
vn 0.000000 0.000000 -1.000000
vn 0.000000 0.000000 -1.000000
vn 0.000000 -1.000000 0.000000
vn 0.000000 -1.000000 0.000000
vn 0.000000 -1.000000 0.000000
vn 0.000000 -1.000000 0.000000
vn 0.000000 0.000000 1.000000
vn 0.000000 0.000000 1.000000
vn 0.000000 0.000000 1.000000
vn 0.000000 0.000000 1.000000
vn 0.000000 0.000000 1.000000
vn 0.000000 0.000000 1.000000
vn 0.000000 0.000000 1.000000
vn 0.000000 0.000000 1.000000
vn 0.000000 0.000000 1.000000
vn 0.000000 0.000000 1.000000
vn 0.000000 0.000000 1.000000
vn 0.000000 0.000000 1.000000
vn 0.000000 0.000000 1.000000
vn 0.000000 0.000000 1.000000
vn 0.000000 0.000000 1.000000
vn 0.000000 0.000000 1.000000
vn 1.000000 0.000000 0.000000
vn 1.000000 0.000000 0.000000
vn 1.000000 0.000000 0.000000
vn 1.000000 0.000000 0.000000
vn 0.000000 1.000000 0.000000
vn 0.000000 1.000000 0.000000
vn 0.000000 1.000000 0.000000
vn 0.000000 1.000000 0.000000
vn -1.000000 0.000000 0.000000
vn -1.000000 0.000000 0.000000
vn -1.000000 0.000000 0.000000
vn -1.000000 0.000000 0.000000
vn 0.000000 -1.000000 0.000000
vn 0.000000 -1.000000 0.000000
vn 0.000000 -1.000000 0.000000
vn 0.000000 -1.000000 0.000000
vn 1.000000 0.000000 0.000000
vn 1.000000 0.000000 0.000000
vn 1.000000 0.000000 0.000000
vn 1.000000 0.000000 0.000000
vn 0.000000 1.000000 0.000000
vn 0.000000 1.000000 0.000000
vn 0.000000 1.000000 0.000000
vn 0.000000 1.000000 0.000000
vn -1.000000 0.000000 0.000000
vn -1.000000 0.000000 0.000000
vn -1.000000 0.000000 0.000000
vn -1.000000 0.000000 0.000000
vn 0.000000 -1.000000 0.000000
vn 0.000000 -1.000000 0.000000
vn 0.000000 -1.000000 0.000000
vn 0.000000 -1.000000 0.000000
vn 1.000000 0.000000 0.000000
vn 1.000000 0.000000 0.000000
vn 1.000000 0.000000 0.000000
vn 1.000000 0.000000 0.000000
vn 0.000000 1.000000 0.000000
vn 0.000000 1.000000 0.000000
vn 0.000000 1.000000 0.000000
vn 0.000000 1.000000 0.000000
vn -1.000000 0.000000 0.000000
vn -1.000000 0.000000 0.000000
vn -1.000000 0.000000 0.000000
vn -1.000000 0.000000 0.000000
vn 0.000000 -1.000000 0.000000
vn 0.000000 -1.000000 0.000000
vn 0.000000 -1.000000 0.000000
vn 0.000000 -1.000000 0.000000
vn 1.000000 0.000000 0.000000
vn 1.000000 0.000000 0.000000
vn 1.000000 0.000000 0.000000
vn 1.000000 0.000000 0.000000
vn 0.000000 1.000000 0.000000
vn 0.000000 1.000000 0.000000
vn 0.000000 1.000000 0.000000
vn 0.000000 1.000000 0.000000
vn -1.000000 0.000000 0.000000
vn -1.000000 0.000000 0.000000
vn -1.000000 0.000000 0.000000
vn -1.000000 0.000000 0.000000
vn 0.000000 -1.000000 0.000000
vn 0.000000 -1.000000 0.000000
vn 0.000000 -1.000000 0.000000
vn 0.000000 -1.000000 0.000000
s 1
g Librero group19
usemtl initialShadingGroup
f 1/121/1 41/122/2 42/123/3 37/124/4
s 2
f 3/73/5 50/74/6 51/75/7 5/76/8
s 3
f 38/161/9 59/162/10 60/163/11 7/164/12
s 4
f 7/81/13 60/82/14 41/83/15 1/84/16
s 5
f 2/1/17 8/2/18 39/3/19 40/4/20
s 6
f 7/21/21 1/22/22 37/23/23 38/24/24
f 10/38/25 9/37/26 3/39/27 5/40/28
s 3
f 5/194/29 51/195/30 52/191/31 10/190/32
s 5
f 12/18/33 11/17/34 6/19/35 4/20/36
s 1
f 9/153/37 49/152/38 50/155/39 3/156/40
s 6
f 14/36/41 13/35/42 9/37/26 10/38/25
s 3
f 10/190/32 52/191/31 53/187/43 14/186/44
s 5
f 16/16/45 15/15/46 11/17/34 12/18/33
s 1
f 13/148/47 48/147/48 49/152/38 9/153/37
s 6
f 18/34/49 17/33/50 13/35/42 14/36/41
s 3
f 14/186/44 53/187/43 54/183/51 18/182/52
s 5
f 20/14/53 19/13/54 15/15/46 16/16/45
s 1
f 17/145/55 47/144/56 48/147/48 13/148/47
s 6
f 22/32/57 21/31/58 17/33/50 18/34/49
s 3
f 18/182/52 54/183/51 55/179/59 22/178/60
s 5
f 24/12/61 23/11/62 19/13/54 20/14/53
s 1
f 21/140/63 46/139/64 47/144/56 17/145/55
s 6
f 26/30/65 25/29/66 21/31/58 22/32/57
s 3
f 22/178/60 55/179/59 56/175/67 26/174/68
s 5
f 28/10/69 27/9/70 23/11/62 24/12/61
s 1
f 25/137/71 45/136/72 46/139/64 21/140/63
s 6
f 30/28/73 29/27/74 25/29/66 26/30/65
s 3
f 26/174/68 56/175/67 57/170/75 30/169/76
s 5
f 32/8/77 31/7/78 27/9/70 28/10/69
s 1
f 29/132/79 44/131/80 45/136/72 25/137/71
s 6
f 34/26/81 33/25/82 29/27/74 30/28/73
s 3
f 30/169/76 57/170/75 58/166/83 34/165/84
s 5
f 36/6/85 35/5/86 31/7/78 32/8/77
s 1
f 33/128/87 43/127/88 44/131/80 29/132/79
s 6
f 38/24/24 37/23/23 33/25/82 34/26/81
s 3
f 34/165/84 58/166/83 59/162/10 38/161/9
s 5
f 40/4/20 39/3/19 35/5/86 36/6/85
s 1
f 37/124/4 42/123/3 43/127/88 33/128/87
f 68/126/89 69/125/90 2/129/91 40/130/92
f 67/133/93 68/126/89 40/130/92 36/134/94
f 66/135/95 67/133/93 36/134/94 32/138/96
f 65/141/97 66/135/95 32/138/96 28/142/98
f 64/143/99 65/141/97 28/142/98 24/146/100
f 63/149/101 64/143/99 24/146/100 20/150/102
f 62/151/103 63/149/101 20/150/102 16/154/104
f 61/157/105 62/151/103 16/154/104 12/158/106
f 80/159/107 61/157/105 12/158/106 4/160/108
s 2
f 79/78/109 80/77/110 4/79/111 6/80/112
s 3
f 78/196/113 79/198/114 6/200/115 11/199/116
f 77/192/117 78/196/113 11/199/116 15/197/118
f 76/188/119 77/192/117 15/197/118 19/193/120
f 75/184/121 76/188/119 19/193/120 23/189/122
f 74/180/123 75/184/121 23/189/122 27/185/124
f 73/176/125 74/180/123 27/185/124 31/181/126
f 72/171/127 73/176/125 31/181/126 35/177/128
f 71/167/129 72/171/127 35/177/128 39/172/130
f 70/168/131 71/167/129 39/172/130 8/173/132
s 4
f 69/86/133 70/85/134 8/87/135 2/88/136
s off
f 82/201/137 81/202/138 83/203/139 84/204/140
s 1
f 48/147/48 47/144/56 63/149/101 62/151/103
s off
f 86/205/141 85/206/142 87/207/143 88/208/144
s 1
f 46/139/64 45/136/72 65/141/97 64/143/99
s off
f 90/209/145 89/210/146 91/211/147 92/212/148
s 1
f 44/131/80 43/127/88 67/133/93 66/135/95
s off
f 94/213/149 93/214/150 95/215/151 96/216/152
s 1
f 42/123/3 41/122/2 69/125/90 68/126/89
s 4
f 41/83/15 60/82/14 70/85/134 69/86/133
s 3
f 60/163/11 59/162/10 71/167/129 70/168/131
f 59/162/10 58/166/83 72/171/127 71/167/129
f 58/166/83 57/170/75 73/176/125 72/171/127
f 57/170/75 56/175/67 74/180/123 73/176/125
f 56/175/67 55/179/59 75/184/121 74/180/123
f 55/179/59 54/183/51 76/188/119 75/184/121
f 54/183/51 53/187/43 77/192/117 76/188/119
f 53/187/43 52/191/31 78/196/113 77/192/117
f 52/191/31 51/195/30 79/198/114 78/196/113
s 2
f 51/75/7 50/74/6 80/77/110 79/78/109
s 1
f 50/155/39 49/152/38 61/157/105 80/159/107
s off
f 49/41/153 48/42/154 81/43/155 82/44/156
f 48/89/157 62/90/158 83/91/159 81/92/160
f 62/45/161 61/46/162 84/47/163 83/48/164
f 61/93/165 49/94/166 82/95/167 84/96/168
f 47/49/169 46/50/170 85/51/171 86/52/172
f 46/97/173 64/98/174 87/99/175 85/100/176
f 64/53/177 63/54/178 88/55/179 87/56/180
f 63/101/181 47/102/182 86/103/183 88/104/184
f 45/57/185 44/58/186 89/59/187 90/60/188
f 44/105/189 66/106/190 91/107/191 89/108/192
f 66/61/193 65/62/194 92/63/195 91/64/196
f 65/109/197 45/110/198 90/111/199 92/112/200
f 43/65/201 42/66/202 93/67/203 94/68/204
f 42/113/205 68/114/206 95/115/207 93/116/208
f 68/69/209 67/70/210 96/71/211 95/72/212
f 67/117/213 43/118/214 94/119/215 96/120/216
