# This file uses centimeters as units for non-parametric coordinates.

mtllib WoodDoorHandle.mtl
g default
v -50.107755 2.361125 -21.203295
v -49.970991 2.361125 -21.203295
v -50.107755 2.518429 -21.203295
v -49.970991 2.518429 -21.203295
v -50.107755 2.518429 -21.289260
v -49.970991 2.518429 -21.289260
v -50.107755 2.361125 -21.289260
v -49.970991 2.361125 -21.289260
v -50.039373 2.345244 -21.203295
v -50.039373 2.534310 -21.203295
v -50.039373 2.534310 -21.289260
v -50.039373 2.345244 -21.289260
v -50.121564 2.468718 -21.203295
v -50.121564 2.468718 -21.289260
v -49.957182 2.439777 -21.289260
v -49.957182 2.439777 -21.203295
v -50.110326 2.503782 -21.289260
v -50.110326 2.503782 -21.203295
v -49.968420 2.503782 -21.203295
v -49.968420 2.503782 -21.289260
v -50.367373 2.468718 -21.203295
v -50.367373 2.468718 -21.289260
v -50.367373 2.503782 -21.203295
v -50.367373 2.503782 -21.289260
v -50.107755 2.361125 -21.180801
v -50.039373 2.345244 -21.180801
v -50.039373 2.439777 -21.180801
v -50.121564 2.439777 -21.180801
v -49.957182 2.439777 -21.180801
v -49.970991 2.361125 -21.180801
v -50.039373 2.516707 -21.180801
v -50.039373 2.534310 -21.180801
v -49.968420 2.503782 -21.180801
v -49.970991 2.518429 -21.180801
v -50.110326 2.503782 -21.180801
v -50.107755 2.518429 -21.180801
v -50.121564 2.439777 -21.309544
v -50.039373 2.439777 -21.309544
v -50.039373 2.345244 -21.309544
v -50.107755 2.361125 -21.309544
v -49.957182 2.439777 -21.309544
v -49.970991 2.361125 -21.309544
v -50.107755 2.518429 -21.309544
v -50.039373 2.534310 -21.309544
v -50.039373 2.516707 -21.309544
v -50.110326 2.503782 -21.309544
v -49.968420 2.503782 -21.309544
v -49.970991 2.518429 -21.309544
vt 0.042293 0.071550
vt 0.042293 0.065402
vt 0.048004 0.065402
vt 0.048004 0.071550
vt 0.042293 0.063951
vt 0.048004 0.063952
vt 0.052652 0.065403
vt 0.052651 0.071551
vt 0.048003 0.073159
vt 0.042293 0.073159
vt 0.052652 0.063952
vt 0.053715 0.065403
vt 0.053715 0.071551
vt 0.052651 0.073159
vt 0.053715 0.063952
vt 0.053714 0.073160
vt 0.963335 0.064472
vt 0.963329 0.058305
vt 0.971095 0.058329
vt 0.971081 0.064458
vt 0.963333 0.056696
vt 0.969056 0.056689
vt 0.969043 0.065941
vt 0.963335 0.065924
vt 0.973725 0.058320
vt 0.973717 0.056706
vt 0.973715 0.064478
vt 0.973701 0.065934
vt 0.974788 0.058320
vt 0.974781 0.056704
vt 0.974778 0.064483
vt 0.974765 0.065939
vt 0.042293 0.056477
vt 0.042293 0.050329
vt 0.044800 0.050329
vt 0.044801 0.056477
vt 0.629689 0.069189
vt 0.634710 0.069190
vt 0.634709 0.075338
vt 0.629689 0.075337
vt 0.629689 0.067581
vt 0.634710 0.067581
vt 0.639731 0.069190
vt 0.639730 0.075338
vt 0.634709 0.076789
vt 0.629689 0.076788
vt 0.639731 0.067582
vt 0.639730 0.076789
vt 0.963330 0.072796
vt 0.968350 0.072795
vt 0.968351 0.078943
vt 0.963330 0.078944
vt 0.963329 0.071345
vt 0.968350 0.071345
vt 0.973371 0.072795
vt 0.973371 0.078943
vt 0.968351 0.080552
vt 0.963330 0.080552
vt 0.973371 0.071345
vt 0.973371 0.080552
vt 0.610892 0.042761
vt 0.617040 0.042761
vt 0.617041 0.060340
vt 0.610893 0.060341
vt 0.051693 0.040164
vt 0.057841 0.040165
vt 0.057839 0.058548
vt 0.051691 0.058547
vt 0.103655 0.022195
vt 0.103382 0.017181
vt 0.110041 0.018351
vt 0.109024 0.024140
vt 0.111057 0.012561
vt 0.105346 0.012561
vt 0.115459 0.019302
vt 0.113671 0.024140
vt 0.115427 0.014144
vt 0.116699 0.019520
vt 0.114735 0.024140
vt 0.116427 0.014507
vt 0.292292 0.035805
vt 0.293308 0.030015
vt 0.299967 0.031185
vt 0.298003 0.035805
vt 0.287922 0.034222
vt 0.287889 0.029064
vt 0.294325 0.024226
vt 0.299694 0.026171
vt 0.286922 0.033860
vt 0.286649 0.028846
vt 0.289677 0.024226
vt 0.288614 0.024226
vt 0.183268 0.121887
vt 0.185775 0.121083
vt 0.185776 0.139466
vt 0.183269 0.139467
vt 0.202065 0.105518
vt 0.204573 0.106322
vt 0.204572 0.123901
vt 0.202064 0.123901
vn 0.000000 0.000000 1.000000
vn 0.000000 0.000000 1.000000
vn 0.000000 0.000000 1.000000
vn 0.000000 0.000000 1.000000
vn -0.226231 0.974074 0.000000
vn 0.000000 1.000000 0.000000
vn 0.000000 1.000000 0.000000
vn -0.226231 0.974074 0.000000
vn 0.000000 0.000000 -1.000000
vn 0.000000 0.000000 -1.000000
vn 0.000000 0.000000 -1.000000
vn 0.000000 0.000000 -1.000000
vn -0.226230 -0.974074 0.000000
vn 0.000000 -1.000000 0.000000
vn 0.000000 -1.000000 0.000000
vn -0.226230 -0.974074 0.000000
vn 0.984935 -0.172923 0.000000
vn 0.984935 -0.172923 0.000000
vn 0.999838 -0.018019 0.000000
vn 0.999838 -0.018019 0.000000
vn -0.991864 -0.127299 0.000000
vn -0.991864 -0.127299 0.000000
vn -0.991864 -0.127299 0.000000
vn -0.991864 -0.127299 0.000000
vn 0.000000 0.000000 1.000000
vn 0.000000 0.000000 1.000000
vn 0.226231 0.974074 0.000000
vn 0.226231 0.974074 0.000000
vn -0.000000 0.000000 -1.000000
vn 0.000000 0.000000 -1.000000
vn 0.226230 -0.974074 0.000000
vn 0.226230 -0.974074 0.000000
vn -0.984940 0.172896 0.000000
vn -0.984940 0.172896 0.000000
vn -0.984940 0.172896 0.000000
vn -0.984940 0.172896 0.000000
vn -0.000000 0.000000 -1.000000
vn 0.000000 0.000000 -1.000000
vn 0.000000 0.000000 -1.000000
vn 0.000000 0.000000 -1.000000
vn -0.000000 0.000000 -1.000000
vn 0.000000 0.000000 -1.000000
vn 0.984935 0.172923 0.000000
vn 0.984935 0.172923 0.000000
vn 0.984940 0.172896 0.000000
vn 0.984940 0.172896 0.000000
vn 0.000000 0.000000 1.000000
vn 0.000000 0.000000 1.000000
vn 0.000000 0.000000 1.000000
vn 0.000000 0.000000 1.000000
vn 0.000000 0.000000 1.000000
vn 0.000000 0.000000 1.000000
vn -1.000000 0.000004 0.000000
vn -1.000000 0.000004 0.000000
vn -1.000000 0.000004 0.000000
vn -1.000000 0.000004 0.000000
vn 0.000000 -1.000000 0.000000
vn 0.000000 -1.000000 0.000000
vn 0.000000 -1.000000 0.000000
vn 0.000000 -1.000000 0.000000
vn 0.000000 0.000000 1.000000
vn 0.000000 0.000000 1.000000
vn 0.000000 0.000000 1.000000
vn 0.000000 0.000000 1.000000
vn 0.000000 1.000000 0.000000
vn 0.000000 1.000000 0.000000
vn 0.000000 1.000000 0.000000
vn 0.000000 1.000000 0.000000
vn 0.000000 0.000000 -1.000000
vn 0.000000 0.000000 -1.000000
vn 0.000000 0.000000 -1.000000
vn 0.000000 0.000000 -1.000000
vn -0.226230 -0.974074 0.000000
vn -0.226230 -0.974074 0.000000
vn -0.226230 -0.974074 0.000000
vn -0.226230 -0.974074 0.000000
vn -0.984809 -0.146034 -0.093944
vn -0.984809 -0.146034 -0.093944
vn -0.984809 -0.146034 -0.093944
vn -0.984809 -0.146034 -0.093944
vn 0.226230 -0.974074 0.000000
vn 0.226230 -0.974074 0.000000
vn 0.226230 -0.974074 0.000000
vn 0.226230 -0.974074 0.000000
vn 0.984935 -0.172924 0.000000
vn 0.984935 -0.172924 0.000000
vn 0.984935 -0.172924 0.000000
vn 0.984935 -0.172924 0.000000
vn 0.984940 0.172895 0.000000
vn 0.984940 0.172895 0.000000
vn 0.984940 0.172895 0.000000
vn 0.984940 0.172895 0.000000
vn 0.226231 0.974074 0.000000
vn 0.226231 0.974074 0.000000
vn 0.226231 0.974074 0.000000
vn 0.226231 0.974074 0.000000
vn -0.226231 0.974074 0.000000
vn -0.226231 0.974074 0.000000
vn -0.226231 0.974074 0.000000
vn -0.226231 0.974074 0.000000
vn -0.984940 0.172895 0.000000
vn -0.984940 0.172895 0.000000
vn -0.984940 0.172895 0.000000
vn -0.984940 0.172895 0.000000
vn -0.965489 0.219036 0.140906
vn -0.965489 0.219036 0.140906
vn -0.965489 0.219036 0.140906
vn -0.965489 0.219036 0.140906
vn 0.984934 0.172930 0.000000
vn 0.984934 0.172930 0.000000
vn 0.984934 0.172930 0.000000
vn 0.984934 0.172930 0.000000
vn -0.226230 -0.974074 0.000000
vn -0.226230 -0.974074 0.000000
vn -0.226230 -0.974074 0.000000
vn -0.226230 -0.974074 0.000000
vn -0.983812 -0.145886 0.104075
vn -0.983812 -0.145886 0.104075
vn -0.983812 -0.145886 0.104075
vn -0.983812 -0.145886 0.104075
vn 0.984935 -0.172923 0.000000
vn 0.984935 -0.172923 0.000000
vn 0.984935 -0.172923 0.000000
vn 0.984935 -0.172923 0.000000
vn 0.226230 -0.974074 0.000000
vn 0.226230 -0.974074 0.000000
vn 0.226230 -0.974074 0.000000
vn 0.226230 -0.974074 0.000000
vn -0.226231 0.974074 0.000000
vn -0.226231 0.974074 0.000000
vn -0.226231 0.974074 0.000000
vn -0.226231 0.974074 0.000000
vn -0.984940 0.172895 0.000000
vn -0.984940 0.172895 0.000000
vn -0.984940 0.172895 0.000000
vn -0.984940 0.172895 0.000000
vn 0.226231 0.974074 0.000000
vn 0.226231 0.974074 0.000000
vn 0.226231 0.974074 0.000000
vn 0.226231 0.974074 0.000000
vn 0.984940 0.172895 0.000000
vn 0.984940 0.172895 0.000000
vn 0.984940 0.172895 0.000000
vn 0.984940 0.172895 0.000000
vn 0.984934 0.172930 0.000000
vn 0.984934 0.172930 0.000000
vn 0.984934 0.172930 0.000000
vn 0.984934 0.172930 0.000000
vn -0.963294 0.218538 -0.155904
vn -0.963294 0.218538 -0.155904
vn -0.963294 0.218538 -0.155904
vn -0.963294 0.218538 -0.155904
s 1
g Handle1 WoodDors
usemtl initialShadingGroup
f 25/69/1 26/70/2 27/71/3 28/72/4
s 2
f 3/37/5 10/38/6 11/39/7 5/40/8
s 3
f 37/81/9 38/82/10 39/83/11 40/84/12
s 4
f 7/49/13 12/50/14 9/51/15 1/52/16
s 5
f 2/1/17 8/2/18 15/3/19 16/4/20
s off
f 7/17/21 1/18/22 13/19/23 14/20/24
s 1
f 29/73/25 27/71/3 26/70/2 30/74/26
s 2
f 11/39/7 10/38/6 4/43/27 6/44/28
s 3
f 39/83/11 38/82/10 41/87/29 42/88/30
s 4
f 9/51/15 12/50/14 8/55/31 2/56/32
s off
f 17/27/33 18/25/34 3/29/35 5/31/36
s 3
f 43/89/37 44/90/38 45/86/39 46/85/40
f 47/91/41 45/86/39 44/90/38 48/92/42
s 5
f 19/8/43 20/7/44 6/12/45 4/13/46
s 1
f 32/78/47 31/75/48 33/77/49 34/80/50
f 35/76/51 31/75/48 32/78/47 36/79/52
s off
f 22/33/53 21/34/54 23/35/55 24/36/56
s 1
f 28/72/4 27/71/3 31/75/48 35/76/51
f 33/77/49 31/75/48 27/71/3 29/73/25
s 5
f 16/4/20 15/3/19 20/7/44 19/8/43
s 3
f 41/87/29 38/82/10 45/86/39 47/91/41
f 46/85/40 45/86/39 38/82/10 37/81/9
s off
f 14/61/57 13/62/58 21/63/59 22/64/60
f 13/93/61 18/94/62 23/95/63 21/96/64
f 18/65/65 17/66/66 24/67/67 23/68/68
f 17/97/69 14/98/70 22/99/71 24/100/72
f 1/52/73 9/51/74 26/57/75 25/58/76
f 13/19/77 1/18/78 25/21/79 28/22/80
f 9/51/81 2/56/82 30/60/83 26/57/84
f 2/1/85 16/4/86 29/9/87 30/10/88
f 19/8/89 4/13/90 34/16/91 33/14/92
f 4/43/93 10/38/94 32/42/95 34/47/96
f 10/38/97 3/37/98 36/41/99 32/42/100
f 3/29/101 18/25/102 35/26/103 36/30/104
f 18/25/105 13/19/106 28/22/107 35/26/108
f 16/4/109 19/8/110 33/14/111 29/9/112
f 12/50/113 7/49/114 40/53/115 39/54/116
f 7/17/117 14/20/118 37/23/119 40/24/120
f 15/3/121 8/2/122 42/5/123 41/6/124
f 8/55/125 12/50/126 39/54/127 42/59/128
f 5/40/129 11/39/130 44/45/131 43/46/132
f 17/27/133 5/31/134 43/32/135 46/28/136
f 11/39/137 6/44/138 48/48/139 44/45/140
f 6/12/141 20/7/142 47/11/143 48/15/144
f 20/7/145 15/3/146 41/6/147 47/11/148
f 14/20/149 17/27/150 46/28/151 37/23/152
