# This file uses centimeters as units for non-parametric coordinates.

mtllib WoodDoor.mtl
g default
v -52.030933 0.268390 -21.303276
v -49.726519 0.268390 -21.303276
v -52.030933 4.446538 -21.303276
v -49.726519 4.446538 -21.303276
v -52.030933 4.446538 -21.460960
v -49.726519 4.446538 -21.460960
v -52.030933 0.268390 -21.460960
v -49.726519 0.268390 -21.460960
vt 0.646548 0.960453
vt 0.646549 0.971730
vt 0.347739 0.971751
vt 0.347738 0.960474
vt 0.665345 0.977133
vt 0.665345 0.988410
vt 0.366536 0.988431
vt 0.366535 0.977154
vt 0.140975 0.164805
vt 0.140980 0.000000
vt 0.152257 0.000000
vt 0.152252 0.164806
vt 0.281950 0.071619
vt 0.446756 0.071624
vt 0.446755 0.082901
vt 0.281950 0.082896
vt 0.843913 0.673086
vt 0.843922 0.837891
vt 0.545113 0.837908
vt 0.545103 0.673103
vt 0.681379 0.000009
vt 0.846185 0.000000
vt 0.846201 0.298809
vt 0.681396 0.298819
vn 0.000000 0.000000 1.000000
vn 0.000000 0.000000 1.000000
vn 0.000000 0.000000 1.000000
vn 0.000000 0.000000 1.000000
vn 0.000000 1.000000 0.000000
vn 0.000000 1.000000 0.000000
vn 0.000000 1.000000 0.000000
vn 0.000000 1.000000 0.000000
vn 0.000000 0.000000 -1.000000
vn 0.000000 0.000000 -1.000000
vn 0.000000 0.000000 -1.000000
vn 0.000000 0.000000 -1.000000
vn 0.000000 -1.000000 0.000000
vn 0.000000 -1.000000 0.000000
vn 0.000000 -1.000000 0.000000
vn 0.000000 -1.000000 0.000000
vn 1.000000 0.000000 0.000000
vn 1.000000 0.000000 0.000000
vn 1.000000 0.000000 0.000000
vn 1.000000 0.000000 0.000000
vn -1.000000 0.000000 0.000000
vn -1.000000 0.000000 0.000000
vn -1.000000 0.000000 0.000000
vn -1.000000 0.000000 0.000000
s off
g Wood_Door1 WoodDors
usemtl initialShadingGroup
f 1/17/1 2/18/2 4/19/3 3/20/4
f 3/9/5 4/10/6 6/11/7 5/12/8
f 5/21/9 6/22/10 8/23/11 7/24/12
f 7/13/13 8/14/14 2/15/15 1/16/16
f 2/1/17 8/2/18 6/3/19 4/4/20
f 7/5/21 1/6/22 3/7/23 5/8/24
