# This file uses centimeters as units for non-parametric coordinates.

mtllib Building3.mtl
g default
v 460.256101 31.764918 108.578537
v 460.256101 31.764845 182.991005
v 460.256101 31.764845 257.403452
v 542.931359 31.764918 108.578537
v 542.931359 31.764845 182.991005
v 542.931359 31.764845 257.403452
v 460.256101 75.026678 108.578537
v 460.256101 75.026678 182.991005
v 542.931359 75.026678 108.578537
v 542.931359 75.026678 182.991005
v 460.256101 -107.699496 108.578537
v 460.256101 -107.699496 182.991005
v 460.256101 -107.699496 257.403452
v 542.931359 -107.699496 108.578537
v 542.931359 -107.699496 257.403452
v 542.931359 -107.699496 182.991005
v 460.256101 -11.360434 108.578537
v 460.256101 -11.360434 182.991005
v 460.256101 -11.360434 257.403452
v 542.931359 -11.360434 257.403452
v 542.931359 -11.360434 182.991005
v 542.931359 -11.360434 108.578537
v 402.999587 -11.360434 182.991005
v 402.999587 -107.699496 182.991005
v 402.999587 -11.360434 257.403452
v 402.999587 -107.699496 257.403452
vt 0.626738 0.876587
vt 0.826622 0.876856
vt 0.991651 0.342758
vt 0.404046 0.877336
vt 0.206004 0.877648
vt 0.729007 0.425929
vt 0.864313 0.355879
vt 0.847067 0.584973
vt 0.864404 0.498680
vt 0.205929 0.992341
vt 0.626413 0.506916
vt 0.827591 0.507526
vt 0.509267 0.056005
vt 0.403756 0.507565
vt 0.728676 0.055809
vt 0.206246 0.507906
vt 0.626637 0.762277
vt 0.008850 0.312503
vt 0.991749 0.268270
vt 0.008800 0.763187
vt 0.206079 0.763316
vt 0.403956 0.762995
vt 0.161060 0.311690
vt 0.160351 0.057624
vt 0.357423 0.311477
vt 0.356954 0.056609
vt 0.509496 0.311676
vt 0.728905 0.311480
vt 0.008967 0.507777
vt 0.992629 0.012377
vt 0.509598 0.426125
vt 0.991879 0.169374
vt 0.863220 0.268101
vt 0.863350 0.169205
vt 0.847419 0.510250
vt 0.849829 0.012922
vt 0.404135 0.992039
vt 0.989866 0.585646
vt 0.992933 0.498598
vt 0.826569 0.991489
vt 0.992841 0.355797
vt 0.993119 0.140905
vt 0.626839 0.991259
vt 0.008725 0.877518
vt 0.850319 0.141449
vt 0.990218 0.510923
vt 0.863122 0.342590
vt 0.827887 0.762195
vt 0.008555 0.057833
vn 0.000000 1.000000 0.000000
vn 0.000000 1.000000 0.000000
vn 0.000000 1.000000 0.000000
vn 0.000000 1.000000 0.000000
vn 0.000000 1.000000 0.000000
vn 0.000000 1.000000 0.000000
vn 0.000000 1.000000 0.000000
vn 0.000000 1.000000 0.000000
vn -1.000000 0.000000 0.000000
vn -1.000000 0.000000 0.000000
vn -1.000000 0.000000 0.000000
vn -1.000000 0.000000 0.000000
vn 0.000000 0.000000 1.000000
vn 0.000000 0.000000 1.000000
vn 0.000000 0.000000 1.000000
vn 0.000000 0.000000 1.000000
vn -0.000000 0.000000 -1.000000
vn -0.000000 0.000000 -1.000000
vn -0.000000 0.000000 -1.000000
vn -0.000000 0.000000 -1.000000
vn 1.000000 0.000000 0.000000
vn 1.000000 0.000000 0.000000
vn 1.000000 0.000000 0.000000
vn 1.000000 0.000000 0.000000
vn -0.000000 0.000000 -1.000000
vn -0.000000 0.000000 -1.000000
vn -0.000000 0.000000 -1.000000
vn -0.000000 0.000000 -1.000000
vn -1.000000 0.000000 0.000000
vn -1.000000 0.000000 0.000000
vn -1.000000 0.000000 0.000000
vn -1.000000 0.000000 0.000000
vn -1.000000 0.000000 0.000000
vn -1.000000 0.000000 0.000000
vn -1.000000 0.000000 0.000000
vn -1.000000 0.000000 0.000000
vn 0.000000 0.000000 1.000000
vn 0.000000 0.000000 1.000000
vn 0.000000 0.000000 1.000000
vn 0.000000 0.000000 1.000000
vn 1.000000 0.000000 -0.000000
vn 1.000000 0.000000 -0.000000
vn 1.000000 0.000000 -0.000000
vn 1.000000 0.000000 -0.000000
vn 1.000000 0.000000 0.000000
vn 1.000000 0.000000 0.000000
vn 1.000000 0.000000 0.000000
vn 1.000000 0.000000 0.000000
vn -1.000000 0.000000 0.000000
vn -1.000000 0.000000 0.000000
vn -1.000000 0.000000 0.000000
vn -1.000000 0.000000 0.000000
vn -1.000000 0.000000 0.000000
vn -1.000000 0.000000 0.000000
vn 0.000000 0.000000 1.000000
vn 0.000000 0.000000 1.000000
vn 1.000000 0.000000 0.000000
vn 1.000000 0.000000 0.000000
vn 1.000000 0.000000 0.000000
vn 1.000000 0.000000 0.000000
vn -0.000000 0.000000 -1.000000
vn -0.000000 0.000000 -1.000000
vn -0.000000 0.000000 -1.000000
vn -0.000000 0.000000 -1.000000
vn -0.000000 0.000000 -1.000000
vn -0.000000 0.000000 -1.000000
vn 0.000000 1.000000 0.000000
vn 0.000000 1.000000 0.000000
vn 0.000000 1.000000 0.000000
vn 0.000000 1.000000 0.000000
vn 0.000000 0.000000 1.000000
vn 0.000000 0.000000 1.000000
vn 0.000000 0.000000 1.000000
vn 0.000000 0.000000 1.000000
s off
g pPlane9 group18 group16
usemtl initialShadingGroup
f 9/9/1 7/7/2 8/41/3 10/39/4
f 5/42/5 2/45/6 3/36/7 6/30/8
f 7/43/9 1/1/10 2/2/11 8/40/12
f 8/8/13 2/35/14 5/46/15 10/38/16
f 7/43/17 9/37/18 4/4/19 1/1/20
f 9/37/21 10/10/22 5/5/23 4/4/24
s 1
f 22/22/25 17/17/26 1/1/27 4/4/28
s 2
f 17/17/29 18/48/30 2/2/31 1/1/32
s off
f 19/19/33 3/3/34 2/47/35 18/33/36
s 3
f 19/27/37 20/28/38 6/6/39 3/31/40
s 4
f 21/21/41 22/22/42 4/4/43 5/5/44
s 5
f 20/20/45 21/21/46 5/5/47 6/44/48
s 2
f 11/11/49 12/12/50 18/48/30 17/17/29
s off
f 24/24/51 26/26/52 25/25/53 23/23/54
s 3
f 13/13/55 15/15/56 20/28/38 19/27/37
s 5
f 15/29/57 16/16/58 21/21/46 20/20/45
s 4
f 16/16/59 14/14/60 22/22/42 21/21/41
s 1
f 14/14/61 11/11/62 17/17/26 22/22/25
s off
f 18/18/63 12/49/64 24/24/65 23/23/66
f 23/34/67 25/32/68 19/19/69 18/33/70
f 13/13/71 19/27/72 25/25/73 26/26/74
