# This file uses centimeters as units for non-parametric coordinates.

mtllib BuildingRofts2.mtl
g default
v 2.616287 0.040611 235.624481
v 20.915878 0.040611 235.624481
v 2.616287 10.091435 235.624481
v 20.915878 10.091435 235.624481
v 2.616287 10.091435 221.577011
v 20.915878 10.091435 221.577011
v 2.616287 0.040611 221.577011
v 20.915878 0.040611 221.577011
v 2.616287 10.091435 227.408951
v 2.616287 0.040611 227.408951
v 20.915878 0.040611 227.408951
v 20.915878 10.091435 227.408951
v 2.616287 10.091435 230.448334
v 2.616287 0.040611 230.448334
v 20.915878 0.040611 230.448334
v 20.915878 10.091435 230.448334
v 2.616287 5.283171 235.624481
v 2.616287 5.283171 230.448334
v 2.616287 5.283171 227.408951
v 2.616287 5.283171 221.577011
v 20.915878 5.283171 221.577011
v 20.915878 5.283171 227.408951
v 20.915878 5.283171 230.448334
v 20.915878 5.283171 235.624481
v 2.041794 5.283171 235.624481
v 2.041794 5.283171 230.448334
v 2.041794 0.040611 230.448334
v 2.041794 0.040611 235.624481
v 2.041794 0.040611 221.577011
v 2.041794 0.040611 227.408951
v 2.041794 5.283171 227.408951
v 2.041794 5.283171 221.577011
v 2.041794 10.091435 230.448334
v 2.041794 10.091435 235.624481
v 2.041794 10.091435 227.408951
v 2.041794 10.091435 221.577011
vt 0.653778 0.794644
vt 0.993425 0.796595
vt 0.994519 0.229303
vt 0.992329 0.979027
vt 0.982912 0.783746
vt 0.725850 0.577266
vt 0.983814 0.595635
vt 0.995564 0.006731
vt 0.837964 0.228862
vt 0.495405 0.559499
vt 0.880504 0.006941
vt 0.880867 0.205238
vt 0.895883 0.229025
vt 0.584898 0.558816
vt 0.820539 0.007051
vt 0.820902 0.205347
vt 0.653206 0.889801
vt 0.586026 0.720107
vt 0.496533 0.720790
vt 0.983343 0.693754
vt 0.995754 0.110163
vt 0.880693 0.110374
vt 0.820728 0.110483
vt 0.992854 0.891753
vt 0.612168 0.109880
vt 0.601814 0.558686
vt 0.710045 0.010514
vt 0.642544 0.889740
vt 0.994566 0.595687
vt 0.554511 0.010697
vt 0.496656 0.738465
vt 0.444219 0.110077
vt 0.994550 0.218355
vt 0.895913 0.218078
vt 0.837995 0.217915
vt 0.993664 0.783797
vt 0.726862 0.217602
vt 0.444325 0.201106
vt 0.994095 0.693806
vt 0.554734 0.200977
vt 0.726831 0.228550
vt 0.612275 0.200909
vt 0.642019 0.977014
vt 0.710269 0.200794
vt 0.710162 0.109765
vt 0.652682 0.977076
vt 0.444102 0.010826
vt 0.643115 0.794583
vt 0.718606 0.110670
vt 0.993538 0.578019
vt 0.718779 0.205534
vt 0.640850 0.692112
vt 0.641320 0.593993
vt 0.894902 0.577741
vt 0.836984 0.577578
vt 0.640418 0.782103
vt 0.995927 0.205027
vt 0.718416 0.007238
vt 0.602942 0.719978
vt 0.554627 0.109948
vt 0.478489 0.559628
vt 0.612052 0.010629
vt 0.479617 0.720919
vt 0.586150 0.737782
vn 0.000000 0.000000 1.000000
vn 0.000000 0.000000 1.000000
vn 0.000000 0.000000 1.000000
vn 0.000000 0.000000 1.000000
vn 0.000000 1.000000 0.000000
vn 0.000000 1.000000 0.000000
vn 0.000000 1.000000 0.000000
vn 0.000000 1.000000 0.000000
vn 0.000000 0.000000 -1.000000
vn 0.000000 0.000000 -1.000000
vn 0.000000 0.000000 -1.000000
vn 0.000000 0.000000 -1.000000
vn 1.000000 0.000000 0.000000
vn 1.000000 0.000000 0.000000
vn 1.000000 0.000000 0.000000
vn 1.000000 0.000000 0.000000
vn -1.000000 0.000000 0.000000
vn -1.000000 0.000000 0.000000
vn -1.000000 0.000000 0.000000
vn -1.000000 0.000000 0.000000
vn -1.000000 0.000000 0.000000
vn -1.000000 0.000000 0.000000
vn -1.000000 0.000000 0.000000
vn -1.000000 0.000000 0.000000
vn 1.000000 0.000000 0.000000
vn 1.000000 0.000000 0.000000
vn 1.000000 0.000000 0.000000
vn 1.000000 0.000000 0.000000
vn 0.000000 1.000000 0.000000
vn 0.000000 1.000000 0.000000
vn 0.000000 1.000000 0.000000
vn 0.000000 1.000000 0.000000
vn -1.000000 0.000000 0.000000
vn -1.000000 0.000000 0.000000
vn -1.000000 0.000000 0.000000
vn -1.000000 0.000000 0.000000
vn -1.000000 0.000000 0.000000
vn -1.000000 0.000000 0.000000
vn -1.000000 0.000000 0.000000
vn -1.000000 0.000000 0.000000
vn 0.000000 0.000000 -1.000000
vn 0.000000 0.000000 -1.000000
vn 1.000000 0.000000 0.000000
vn 1.000000 0.000000 0.000000
vn 1.000000 0.000000 0.000000
vn 1.000000 0.000000 0.000000
vn 0.000000 0.000000 1.000000
vn 0.000000 0.000000 1.000000
vn 0.000000 0.000000 -1.000000
vn 0.000000 0.000000 -1.000000
vn 0.000000 0.000000 -1.000000
vn 0.000000 0.000000 -1.000000
vn 0.000000 0.000000 1.000000
vn 0.000000 0.000000 1.000000
vn 0.000000 0.000000 1.000000
vn 0.000000 0.000000 1.000000
vn 0.000000 0.000000 1.000000
vn 0.000000 0.000000 1.000000
vn 0.000000 0.000000 -1.000000
vn 0.000000 0.000000 -1.000000
vn 0.000000 0.000000 1.000000
vn 0.000000 1.000000 0.000000
vn 0.000000 1.000000 0.000000
vn 0.000000 -1.000000 0.000000
vn 0.000000 -1.000000 0.000000
vn 0.000000 -1.000000 0.000000
vn 0.000000 -1.000000 0.000000
vn 0.000000 1.000000 0.000000
vn 0.000000 1.000000 0.000000
vn 0.000000 0.000000 -1.000000
s 1
g pCube589 group18 group16
usemtl initialShadingGroup
f 1/1/1 2/2/2 24/24/3 17/17/4
s 2
f 3/3/5 4/50/6 16/54/7 13/13/8
s 3
f 20/20/9 21/52/10 8/53/11 7/7/12
s 4
f 2/58/13 15/15/14 23/23/15 24/49/16
s 5
f 25/45/17 26/25/18 27/62/19 28/27/20
f 29/47/21 30/30/22 31/60/23 32/32/24
s 4
f 21/21/25 22/22/26 11/11/27 8/8/28
s 2
f 9/9/29 12/55/30 6/6/31 5/41/32
s off
f 18/18/33 19/19/34 10/10/35 14/14/36
s 4
f 22/22/26 23/23/15 15/15/14 11/11/27
s 2
f 13/13/8 16/54/7 12/55/30 9/9/29
s 5
f 33/42/37 26/25/18 25/45/17 34/44/38
f 35/40/39 31/60/23 26/25/18 33/42/37
f 32/32/24 31/60/23 35/40/39 36/38/40
s 3
f 5/5/41 6/56/42 21/52/10 20/20/9
s 4
f 12/12/43 22/22/26 21/21/25 6/57/44
f 16/16/45 23/23/15 22/22/26 12/12/43
f 24/49/16 23/23/15 16/16/45 4/51/46
s 1
f 17/17/4 24/24/3 4/4/47 3/46/48
s off
f 18/18/49 14/14/50 27/26/51 26/59/52
s 1
f 1/1/1 17/17/4 25/28/53 28/48/54
s off
f 10/10/55 19/19/56 31/63/57 30/61/58
s 3
f 20/20/9 7/7/12 29/29/59 32/39/60
s 1
f 17/17/4 3/46/48 34/43/61 25/28/53
s 2
f 3/3/5 13/13/8 33/34/62 34/33/63
s off
f 19/19/64 18/18/65 26/64/66 31/31/67
s 2
f 13/13/8 9/9/29 35/35/68 33/34/62
f 9/9/29 5/41/32 36/37/69 35/35/68
s 3
f 5/5/41 20/20/9 32/39/60 36/36/70
