# This file uses centimeters as units for non-parametric coordinates.

mtllib ElectricBox.mtl
g default
v 0.764901 0.266818 -10.143673
v 0.790390 0.256261 -10.143673
v 0.790390 0.266818 -10.118185
v 0.790390 0.292307 -10.107627
v 0.764901 0.292307 -10.118185
v 0.754344 0.292307 -10.143673
v 3.726058 0.266818 -10.143673
v 3.736614 0.292307 -10.143673
v 3.726058 0.292307 -10.118185
v 3.700569 0.292307 -10.107627
v 3.700569 0.266818 -10.118185
v 3.700569 0.256261 -10.143673
v 0.764901 4.769069 -10.143673
v 0.754344 4.743580 -10.143673
v 0.764901 4.743580 -10.118185
v 0.790390 4.743580 -10.107627
v 0.790390 4.769069 -10.118185
v 0.790390 4.779627 -10.143673
v 3.726058 4.769069 -10.143673
v 3.700569 4.779627 -10.143673
v 3.700569 4.769069 -10.118185
v 3.700569 4.743580 -10.107627
v 3.726058 4.743580 -10.118185
v 3.736614 4.743580 -10.143673
v 0.764901 4.743580 -10.818053
v 0.754344 4.743580 -10.792565
v 0.764901 4.769069 -10.792565
v 0.790390 4.779627 -10.792565
v 0.790390 4.769069 -10.818053
v 0.790390 4.743580 -10.828611
v 3.726058 4.743580 -10.818053
v 3.700569 4.743580 -10.828611
v 3.700569 4.769069 -10.818053
v 3.700569 4.779627 -10.792565
v 3.726058 4.769069 -10.792565
v 3.736614 4.743580 -10.792565
v 0.764901 0.266818 -10.792565
v 0.754344 0.292307 -10.792565
v 0.764901 0.292307 -10.818053
v 0.790390 0.292307 -10.828611
v 0.790390 0.266818 -10.818053
v 0.790390 0.256261 -10.792565
v 3.726058 0.266818 -10.792565
v 3.700569 0.256261 -10.792565
v 3.700569 0.266818 -10.818053
v 3.700569 0.292307 -10.828611
v 3.726058 0.292307 -10.818053
v 3.736614 0.292307 -10.792565
v 0.769586 0.271503 -10.122870
v 3.721373 0.271503 -10.122870
v 0.769586 4.764385 -10.122870
v 3.721373 4.764385 -10.122870
v 0.769586 4.764385 -10.813368
v 3.721373 4.764385 -10.813368
v 0.769586 0.271503 -10.813368
v 3.721373 0.271503 -10.813368
vt 0.380913 0.664623
vt 0.203037 0.715107
vt 0.205273 0.665288
vt 0.391919 0.711989
vt 0.203955 0.986498
vt 0.381387 0.985898
vt 0.393074 0.988354
vt 0.442122 0.713146
vt 0.190196 0.664725
vt 0.013229 0.664026
vt 0.433362 0.988185
vt 0.432207 0.711820
vt 0.205408 0.703383
vt 0.192167 0.714990
vt 0.014382 0.714387
vt 0.380469 0.714507
vt 0.190036 0.703107
vt 0.013068 0.702409
vt 0.191245 0.986922
vt 0.013460 0.986319
vt 0.381048 0.702718
vt 0.482277 0.712804
vt 0.484619 0.988257
vt 0.444465 0.988598
vt 0.383085 0.663776
vt 0.483142 0.710566
vt 0.202585 0.712911
vt 0.381346 0.662505
vt 0.484508 0.712826
vt 0.200840 0.715154
vt 0.391023 0.709754
vt 0.203094 0.664458
vt 0.382667 0.714540
vt 0.389681 0.712038
vt 0.204825 0.663173
vt 0.380907 0.712308
vt 0.485522 0.990480
vt 0.192224 0.703961
vt 0.201757 0.986466
vt 0.486850 0.988198
vt 0.190471 0.705241
vt 0.203517 0.988697
vt 0.010873 0.703245
vt 0.392197 0.990595
vt 0.381839 0.988095
vt 0.012615 0.704539
vt 0.390836 0.988323
vt 0.383584 0.985851
vt 0.442234 0.988577
vt 0.193447 0.986890
vt 0.192391 0.663889
vt 0.443600 0.990836
vt 0.191684 0.989126
vt 0.190649 0.662594
vt 0.011258 0.986272
vt 0.435600 0.988135
vt 0.012794 0.661892
vt 0.013006 0.988520
vt 0.434258 0.990419
vt 0.011040 0.663173
vt 0.441220 0.710923
vt 0.383227 0.703548
vt 0.194369 0.715037
vt 0.439892 0.713205
vt 0.381496 0.704832
vt 0.192621 0.712790
vt 0.203236 0.704229
vt 0.433084 0.709578
vt 0.013943 0.712184
vt 0.204975 0.705501
vt 0.434445 0.711851
vt 0.012180 0.714419
vt 0.383081 0.662498
vt 0.200832 0.712917
vt 0.484489 0.710555
vt 0.389672 0.709760
vt 0.382659 0.712302
vt 0.203090 0.663180
vt 0.486869 0.990469
vt 0.201765 0.988703
vt 0.192219 0.705248
vt 0.010868 0.704532
vt 0.383592 0.988089
vt 0.390846 0.990601
vt 0.442253 0.990848
vt 0.192397 0.662601
vt 0.193440 0.989132
vt 0.011250 0.988514
vt 0.011046 0.661885
vt 0.435609 0.990414
vt 0.439873 0.710934
vt 0.194377 0.712795
vt 0.383231 0.704826
vt 0.203240 0.705507
vt 0.012187 0.712178
vt 0.434435 0.709573
vn -0.003557 -0.999872 0.015615
vn -0.381511 -0.924308 0.010240
vn -0.381511 -0.924308 -0.010240
vn -0.003557 -0.999872 -0.015615
vn -0.924317 -0.381481 0.010509
vn -0.999875 -0.002331 0.015627
vn -0.999875 -0.002331 -0.015627
vn -0.924317 -0.381481 -0.010509
vn -0.003582 -0.002344 0.999991
vn -0.003365 -0.382291 0.924036
vn 0.003365 -0.382291 0.924036
vn 0.003582 -0.002344 0.999991
vn -0.001286 -0.923941 0.382533
vn 0.003557 -0.999872 0.015615
vn 0.001286 -0.923941 0.382533
vn -0.923916 -0.000683 0.382594
vn -0.923916 0.000683 0.382594
vn -0.999875 0.002331 0.015627
vn -0.382413 -0.002208 0.923989
vn -0.003582 0.002344 0.999991
vn -0.382413 0.002208 0.923989
vn 0.999875 -0.002331 0.015625
vn 0.924335 -0.381436 0.010509
vn 0.924335 -0.381436 -0.010509
vn 0.999875 -0.002331 -0.015625
vn 0.381510 -0.924308 0.010239
vn 0.003557 -0.999872 -0.015615
vn 0.381510 -0.924308 -0.010239
vn 0.382414 -0.002208 0.923989
vn 0.382414 0.002208 0.923989
vn 0.003582 0.002344 0.999991
vn 0.923934 -0.000683 0.382550
vn 0.999875 0.002331 0.015625
vn 0.923934 0.000683 0.382550
vn -0.924316 0.381484 0.010509
vn -0.924316 0.381484 -0.010509
vn -0.999875 0.002331 -0.015627
vn -0.381527 0.924301 0.010239
vn -0.003557 0.999872 0.015616
vn -0.003557 0.999872 -0.015616
vn -0.381527 0.924301 -0.010239
vn -0.001286 0.923934 0.382550
vn 0.001286 0.923934 0.382550
vn 0.003557 0.999872 0.015616
vn -0.003365 0.382294 0.924035
vn 0.003365 0.382294 0.924034
vn 0.381526 0.924302 0.010239
vn 0.381526 0.924302 -0.010239
vn 0.003557 0.999872 -0.015616
vn 0.924334 0.381440 0.010509
vn 0.999875 0.002331 -0.015625
vn 0.924334 0.381440 -0.010509
vn -0.923916 0.000683 -0.382594
vn -0.923916 -0.000683 -0.382594
vn -0.382414 0.002208 -0.923989
vn -0.003582 0.002344 -0.999991
vn -0.003582 -0.002344 -0.999991
vn -0.382414 -0.002208 -0.923989
vn -0.003365 0.382294 -0.924035
vn 0.003365 0.382294 -0.924034
vn 0.003582 0.002344 -0.999991
vn -0.001286 0.923934 -0.382550
vn 0.001286 0.923934 -0.382550
vn 0.382414 0.002208 -0.923989
vn 0.382414 -0.002208 -0.923989
vn 0.003582 -0.002344 -0.999991
vn 0.923934 0.000683 -0.382550
vn 0.923934 -0.000683 -0.382550
vn -0.001286 -0.923941 -0.382533
vn 0.001286 -0.923941 -0.382533
vn -0.003365 -0.382291 -0.924036
vn 0.003365 -0.382291 -0.924036
vn -0.887923 -0.325264 0.325264
vn -0.325266 -0.887919 0.325273
vn -0.325266 -0.325273 0.887919
vn 0.325274 -0.887913 0.325281
vn 0.887923 -0.325266 0.325262
vn 0.325277 -0.325281 0.887912
vn -0.325260 0.887924 0.325265
vn -0.887927 0.325260 0.325257
vn -0.325258 0.325268 0.887923
vn 0.887925 0.325263 0.325258
vn 0.325267 0.887916 0.325278
vn 0.325268 0.325277 0.887916
vn -0.325259 0.325269 -0.887923
vn -0.887926 0.325262 -0.325257
vn -0.325259 0.887924 -0.325265
vn 0.887925 0.325263 -0.325258
vn 0.325268 0.325277 -0.887916
vn 0.325267 0.887917 -0.325277
vn -0.325266 -0.887918 -0.325273
vn -0.887923 -0.325263 -0.325264
vn -0.325269 -0.325273 -0.887918
vn 0.887923 -0.325266 -0.325262
vn 0.325274 -0.887913 -0.325282
vn 0.325276 -0.325281 -0.887912
s 1
g caja_de_luz_high
usemtl initialShadingGroup
f 2/1/1 1/25/2 37/62/3 42/21/4
s 2
f 1/26/5 6/22/6 38/8/7 37/61/8
s 3
f 4/2/9 3/27/10 11/36/11 10/16/12
s 1
f 3/28/13 2/1/1 12/3/14 11/35/15
s 2
f 6/22/6 5/29/16 15/40/17 14/23/18
s 3
f 5/30/19 4/2/9 16/5/20 15/39/21
s 4
f 8/4/22 7/31/23 43/68/24 48/12/25
s 1
f 7/32/26 12/3/14 44/13/27 43/67/28
s 3
f 10/16/12 9/33/29 23/48/30 22/6/31
s 4
f 9/34/32 8/4/22 24/7/33 23/47/34
s 2
f 14/23/18 13/37/35 27/52/36 26/24/37
s 5
f 13/38/38 18/17/39 28/9/40 27/51/41
f 18/17/39 17/41/42 21/46/43 20/18/44
s 3
f 17/42/45 16/5/20 22/6/31 21/45/46
s 5
f 20/18/44 19/43/47 35/60/48 34/10/49
s 4
f 19/44/50 24/7/33 36/11/51 35/59/52
s 2
f 26/24/37 25/49/53 39/64/54 38/8/7
s 6
f 25/50/55 30/19/56 40/14/57 39/63/58
f 30/19/56 29/53/59 33/58/60 32/20/61
s 5
f 29/54/62 28/9/40 34/10/49 33/57/63
s 6
f 32/20/61 31/55/64 47/72/65 46/15/66
s 4
f 31/56/67 36/11/51 48/12/25 47/71/68
s 1
f 42/21/4 41/65/69 45/70/70 44/13/27
s 6
f 41/66/71 40/14/57 46/15/66 45/69/72
s 3
f 4/2/9 10/16/12 22/6/31 16/5/20
s 5
f 18/17/39 20/18/44 34/10/49 28/9/40
s 6
f 30/19/56 32/20/61 46/15/66 40/14/57
s 1
f 42/21/4 44/13/27 12/3/14 2/1/1
s 4
f 8/4/22 48/12/25 36/11/51 24/7/33
s 2
f 38/8/7 6/22/6 14/23/18 26/24/37
f 5/29/16 6/22/6 1/26/5 49/75/73
s 1
f 1/25/2 2/1/1 3/28/13 49/73/74
s 3
f 3/27/10 4/2/9 5/30/19 49/74/75
s 1
f 11/35/15 12/3/14 7/32/26 50/78/76
s 4
f 7/31/23 8/4/22 9/34/32 50/76/77
s 3
f 9/33/29 10/16/12 11/36/11 50/77/78
s 5
f 17/41/42 18/17/39 13/38/38 51/81/79
s 2
f 13/37/35 14/23/18 15/40/17 51/79/80
s 3
f 15/39/21 16/5/20 17/42/45 51/80/81
s 4
f 23/47/34 24/7/33 19/44/50 52/84/82
s 5
f 19/43/47 20/18/44 21/46/43 52/82/83
s 3
f 21/45/46 22/6/31 23/48/30 52/83/84
s 6
f 29/53/59 30/19/56 25/50/55 53/87/85
s 2
f 25/49/53 26/24/37 27/52/36 53/85/86
s 5
f 27/51/41 28/9/40 29/54/62 53/86/87
s 4
f 35/59/52 36/11/51 31/56/67 54/90/88
s 6
f 31/55/64 32/20/61 33/58/60 54/88/89
s 5
f 33/57/63 34/10/49 35/60/48 54/89/90
s 1
f 41/65/69 42/21/4 37/62/3 55/93/91
s 2
f 37/61/8 38/8/7 39/64/54 55/91/92
s 6
f 39/63/58 40/14/57 41/66/71 55/92/93
s 4
f 47/71/68 48/12/25 43/68/24 56/96/94
s 1
f 43/67/28 44/13/27 45/70/70 56/94/95
s 6
f 45/69/72 46/15/66 47/72/65 56/95/96
