# This file uses centimeters as units for non-parametric coordinates.

mtllib Libro2.mtl
g default
v -90.488379 3.834869 -27.327819
v -90.423773 3.834869 -27.327819
v -90.488379 4.471292 -27.327819
v -90.423773 4.471292 -27.327819
v -90.488379 4.471292 -27.772865
v -90.423773 4.471292 -27.772865
v -90.488379 3.834869 -27.772865
v -90.423773 3.834869 -27.772865
v -90.488379 4.384523 -27.327819
v -90.488379 4.384523 -27.772865
v -90.423773 4.384523 -27.772865
v -90.423773 4.384523 -27.327819
v -90.488379 4.245530 -27.327819
v -90.488379 4.245530 -27.772865
v -90.423773 4.245530 -27.772865
v -90.423773 4.245530 -27.327819
v -90.488379 3.858802 -27.327819
v -90.488379 3.858802 -27.772865
v -90.423773 3.858802 -27.772865
v -90.423773 3.858802 -27.327819
v -90.488379 4.450675 -27.772865
v -90.488379 4.450675 -27.327819
v -90.423773 4.450675 -27.327819
v -90.423773 4.450675 -27.772865
vt 0.484765 0.562901
vt 0.506503 0.562905
vt 0.506503 0.564074
vt 0.484765 0.564070
vt 0.506500 0.582964
vt 0.484761 0.582960
vt 0.506499 0.589753
vt 0.484760 0.589749
vt 0.506498 0.592984
vt 0.484760 0.592980
vt 0.506498 0.593991
vt 0.484759 0.593987
vt 0.429218 0.569246
vt 0.450957 0.569249
vt 0.450956 0.570418
vt 0.429218 0.570415
vt 0.450954 0.589308
vt 0.429216 0.589305
vt 0.450953 0.596097
vt 0.429215 0.596094
vt 0.450953 0.599328
vt 0.429214 0.599325
vt 0.450953 0.600335
vt 0.429214 0.600332
vt 0.979618 0.422265
vt 0.982774 0.422265
vt 0.982774 0.444003
vt 0.979618 0.444003
vt 0.688283 0.146574
vt 0.688283 0.149730
vt 0.666544 0.149729
vt 0.666544 0.146574
vt 0.828920 0.276304
vt 0.828920 0.279460
vt 0.827751 0.279460
vt 0.827751 0.276304
vt 0.808861 0.279461
vt 0.808861 0.276306
vt 0.802072 0.279462
vt 0.802072 0.276306
vt 0.798841 0.279462
vt 0.798840 0.276306
vt 0.797834 0.279462
vt 0.797833 0.276307
vt 0.050499 0.436028
vt 0.053654 0.436028
vt 0.053654 0.437197
vt 0.050499 0.437197
vt 0.050497 0.417138
vt 0.053653 0.417138
vt 0.050496 0.410349
vt 0.053652 0.410349
vt 0.050496 0.407118
vt 0.053652 0.407117
vt 0.050496 0.406111
vt 0.053651 0.406110
vn 0.000000 0.000000 1.000000
vn 0.000000 0.000000 1.000000
vn 0.000000 0.000000 1.000000
vn 0.000000 0.000000 1.000000
vn 0.000000 1.000000 0.000000
vn 0.000000 1.000000 0.000000
vn 0.000000 1.000000 0.000000
vn 0.000000 1.000000 0.000000
vn 0.000000 0.000000 -1.000000
vn 0.000000 0.000000 -1.000000
vn 0.000000 0.000000 -1.000000
vn 0.000000 0.000000 -1.000000
vn 0.000000 -1.000000 0.000000
vn 0.000000 -1.000000 0.000000
vn 0.000000 -1.000000 0.000000
vn 0.000000 -1.000000 0.000000
vn 1.000000 0.000000 0.000000
vn 1.000000 0.000000 0.000000
vn 1.000000 0.000000 0.000000
vn 1.000000 0.000000 0.000000
vn -1.000000 0.000000 0.000000
vn -1.000000 0.000000 0.000000
vn -1.000000 0.000000 0.000000
vn -1.000000 0.000000 0.000000
vn -1.000000 0.000000 0.000000
vn -1.000000 0.000000 0.000000
vn -1.000000 0.000000 0.000000
vn -1.000000 0.000000 0.000000
vn 0.000000 0.000000 -1.000000
vn 0.000000 0.000000 -1.000000
vn 0.000000 0.000000 -1.000000
vn 0.000000 0.000000 -1.000000
vn 1.000000 0.000000 0.000000
vn 1.000000 0.000000 0.000000
vn 1.000000 0.000000 0.000000
vn 1.000000 0.000000 0.000000
vn 0.000000 0.000000 1.000000
vn 0.000000 0.000000 1.000000
vn 0.000000 0.000000 1.000000
vn 0.000000 0.000000 1.000000
vn -1.000000 0.000000 0.000000
vn -1.000000 0.000000 0.000000
vn -1.000000 0.000000 0.000000
vn -1.000000 0.000000 0.000000
vn 0.000000 0.000000 -1.000000
vn 0.000000 0.000000 -1.000000
vn 0.000000 0.000000 -1.000000
vn 0.000000 0.000000 -1.000000
vn 1.000000 0.000000 0.000000
vn 1.000000 0.000000 0.000000
vn 1.000000 0.000000 0.000000
vn 1.000000 0.000000 0.000000
vn 0.000000 0.000000 1.000000
vn 0.000000 0.000000 1.000000
vn 0.000000 0.000000 1.000000
vn 0.000000 0.000000 1.000000
s 1
g Libro3 group19
usemtl initialShadingGroup
f 1/33/1 2/34/2 20/35/3 17/36/4
s off
f 3/25/5 4/26/6 6/27/7 5/28/8
s 2
f 18/45/9 19/46/10 8/47/11 7/48/12
s off
f 7/29/13 8/30/14 2/31/15 1/32/16
s 3
f 2/1/17 8/2/18 19/3/19 20/4/20
s 4
f 7/13/21 1/14/22 17/15/23 18/16/24
f 21/22/25 22/21/26 3/23/27 5/24/28
s 2
f 5/55/29 6/56/30 24/54/31 21/53/32
s 3
f 23/10/33 24/9/34 6/11/35 4/12/36
s 1
f 22/42/37 23/41/38 4/43/39 3/44/40
s 4
f 14/18/41 13/17/42 9/19/43 10/20/44
s 2
f 10/51/45 11/52/46 15/50/47 14/49/48
s 3
f 16/6/49 15/5/50 11/7/51 12/8/52
s 1
f 13/38/53 16/37/54 12/39/55 9/40/56
s 4
f 18/16/24 17/15/23 13/17/42 14/18/41
s 2
f 14/49/48 15/50/47 19/46/10 18/45/9
s 3
f 20/4/20 19/3/19 15/5/50 16/6/49
s 1
f 17/36/4 20/35/3 16/37/54 13/38/53
s 4
f 10/20/44 9/19/43 22/21/26 21/22/25
s 1
f 9/40/56 12/39/55 23/41/38 22/42/37
s 3
f 12/8/52 11/7/51 24/9/34 23/10/33
s 2
f 21/53/32 24/54/31 11/52/46 10/51/45
