# This file uses centimeters as units for non-parametric coordinates.

mtllib Libro3.mtl
g default
v -90.330409 3.827258 -27.280159
v -90.183068 3.827258 -27.280159
v -90.330409 4.599986 -27.280159
v -90.183068 4.599986 -27.280159
v -90.330409 4.599986 -27.820522
v -90.183068 4.599986 -27.820522
v -90.330409 3.827258 -27.820522
v -90.183068 3.827258 -27.820522
v -90.330409 4.494633 -27.280159
v -90.330409 4.494633 -27.820522
v -90.183068 4.494633 -27.820522
v -90.183068 4.494633 -27.280159
v -90.330409 4.325871 -27.280159
v -90.330409 4.325871 -27.820522
v -90.183068 4.325871 -27.820522
v -90.183068 4.325871 -27.280159
v -90.330409 3.856317 -27.280159
v -90.330409 3.856317 -27.820522
v -90.183068 3.856317 -27.820522
v -90.183068 3.856317 -27.280159
v -90.330409 4.574953 -27.820522
v -90.330409 4.574953 -27.280159
v -90.183068 4.574953 -27.280159
v -90.183068 4.574953 -27.820522
vt 0.641303 0.575135
vt 0.667697 0.575140
vt 0.667697 0.576560
vt 0.641303 0.576555
vt 0.667693 0.599495
vt 0.641299 0.599490
vt 0.667692 0.607738
vt 0.641297 0.607734
vt 0.667691 0.611662
vt 0.641297 0.611657
vt 0.667691 0.612884
vt 0.641296 0.612880
vt 0.585756 0.627721
vt 0.612150 0.627725
vt 0.612150 0.629144
vt 0.585756 0.629141
vt 0.612147 0.652080
vt 0.585753 0.652076
vt 0.612146 0.660323
vt 0.585752 0.660319
vt 0.612145 0.664246
vt 0.585751 0.664243
vt 0.612145 0.665469
vt 0.585751 0.665465
vt 0.545354 0.375446
vt 0.552551 0.375446
vt 0.552552 0.401840
vt 0.545355 0.401841
vt 0.071840 0.277880
vt 0.071841 0.285077
vt 0.045446 0.285077
vt 0.045446 0.277881
vt 0.673991 0.215697
vt 0.673991 0.222894
vt 0.672572 0.222894
vt 0.672572 0.215697
vt 0.649636 0.222895
vt 0.649636 0.215698
vt 0.641393 0.222896
vt 0.641393 0.215699
vt 0.637470 0.222896
vt 0.637470 0.215699
vt 0.636247 0.222896
vt 0.636247 0.215699
vt 0.873577 0.579701
vt 0.880774 0.579703
vt 0.880774 0.581122
vt 0.873577 0.581121
vt 0.873581 0.556766
vt 0.880778 0.556767
vt 0.873583 0.548523
vt 0.880780 0.548524
vt 0.873584 0.544599
vt 0.880781 0.544601
vt 0.873584 0.543377
vt 0.880781 0.543378
vn 0.000000 0.000000 1.000000
vn 0.000000 0.000000 1.000000
vn 0.000000 0.000000 1.000000
vn 0.000000 0.000000 1.000000
vn 0.000000 1.000000 0.000000
vn 0.000000 1.000000 0.000000
vn 0.000000 1.000000 0.000000
vn 0.000000 1.000000 0.000000
vn 0.000000 0.000000 -1.000000
vn 0.000000 0.000000 -1.000000
vn 0.000000 0.000000 -1.000000
vn 0.000000 0.000000 -1.000000
vn 0.000000 -1.000000 0.000000
vn 0.000000 -1.000000 0.000000
vn 0.000000 -1.000000 0.000000
vn 0.000000 -1.000000 0.000000
vn 1.000000 0.000000 0.000000
vn 1.000000 0.000000 0.000000
vn 1.000000 0.000000 0.000000
vn 1.000000 0.000000 0.000000
vn -1.000000 0.000000 0.000000
vn -1.000000 0.000000 0.000000
vn -1.000000 0.000000 0.000000
vn -1.000000 0.000000 0.000000
vn -1.000000 0.000000 0.000000
vn -1.000000 0.000000 0.000000
vn -1.000000 0.000000 0.000000
vn -1.000000 0.000000 0.000000
vn 0.000000 0.000000 -1.000000
vn 0.000000 0.000000 -1.000000
vn 0.000000 0.000000 -1.000000
vn 0.000000 0.000000 -1.000000
vn 1.000000 0.000000 0.000000
vn 1.000000 0.000000 0.000000
vn 1.000000 0.000000 0.000000
vn 1.000000 0.000000 0.000000
vn 0.000000 0.000000 1.000000
vn 0.000000 0.000000 1.000000
vn 0.000000 0.000000 1.000000
vn 0.000000 0.000000 1.000000
vn -1.000000 0.000000 0.000000
vn -1.000000 0.000000 0.000000
vn -1.000000 0.000000 0.000000
vn -1.000000 0.000000 0.000000
vn 0.000000 0.000000 -1.000000
vn 0.000000 0.000000 -1.000000
vn 0.000000 0.000000 -1.000000
vn 0.000000 0.000000 -1.000000
vn 1.000000 0.000000 0.000000
vn 1.000000 0.000000 0.000000
vn 1.000000 0.000000 0.000000
vn 1.000000 0.000000 0.000000
vn 0.000000 0.000000 1.000000
vn 0.000000 0.000000 1.000000
vn 0.000000 0.000000 1.000000
vn 0.000000 0.000000 1.000000
s 1
g Libro1 group19
usemtl initialShadingGroup
f 1/33/1 2/34/2 20/35/3 17/36/4
s off
f 3/25/5 4/26/6 6/27/7 5/28/8
s 2
f 18/45/9 19/46/10 8/47/11 7/48/12
s off
f 7/29/13 8/30/14 2/31/15 1/32/16
s 3
f 2/1/17 8/2/18 19/3/19 20/4/20
s 4
f 7/13/21 1/14/22 17/15/23 18/16/24
f 21/22/25 22/21/26 3/23/27 5/24/28
s 2
f 5/55/29 6/56/30 24/54/31 21/53/32
s 3
f 23/10/33 24/9/34 6/11/35 4/12/36
s 1
f 22/42/37 23/41/38 4/43/39 3/44/40
s 4
f 14/18/41 13/17/42 9/19/43 10/20/44
s 2
f 10/51/45 11/52/46 15/50/47 14/49/48
s 3
f 16/6/49 15/5/50 11/7/51 12/8/52
s 1
f 13/38/53 16/37/54 12/39/55 9/40/56
s 4
f 18/16/24 17/15/23 13/17/42 14/18/41
s 2
f 14/49/48 15/50/47 19/46/10 18/45/9
s 3
f 20/4/20 19/3/19 15/5/50 16/6/49
s 1
f 17/36/4 20/35/3 16/37/54 13/38/53
s 4
f 10/20/44 9/19/43 22/21/26 21/22/25
s 1
f 9/40/56 12/39/55 23/41/38 22/42/37
s 3
f 12/8/52 11/7/51 24/9/34 23/10/33
s 2
f 21/53/32 24/54/31 11/52/46 10/51/45
