# Blender v3.1.2 OBJ File: ''
# www.blender.org
mtllib botiquinPequeño.mtl
o botiquinPequeño
v -0.600000 -0.000000 1.700000
v -0.600000 0.100000 1.800000
v -0.600000 0.100000 -1.800000
v -0.600000 2.800000 1.700001
v -0.200000 3.000000 1.600001
v -0.200000 3.000000 1.000000
v -0.200000 2.900000 0.600001
v -0.200000 2.900000 0.800000
v -0.200000 3.000000 -0.600000
v -0.200000 2.900000 -0.800000
v -0.200000 2.900000 -1.600000
v -0.200000 3.100000 1.500000
v -0.200000 3.100000 0.500000
v -0.200000 3.100000 -0.499999
v -0.200000 3.000000 -0.500000
v -0.200000 3.100000 -1.500000
v -0.200000 3.100000 0.400001
v -0.200000 3.200000 0.400001
v -0.200000 3.200000 -0.499999
v -0.200000 3.200000 -0.599999
v -0.200000 3.300000 0.400001
v -0.200000 3.200000 -0.300000
v -0.200000 3.300000 -0.399999
v -0.200000 3.300000 -0.499999
v -0.200000 3.400000 -0.299999
v -0.200000 3.400000 -0.399999
v 0.200000 3.000000 1.000000
v 0.200000 3.000000 0.900000
v 0.200000 2.900000 0.800000
v 0.200000 3.000000 0.600001
v 0.200000 2.900000 -0.600000
v 0.200000 3.000000 -0.600000
v 0.200000 2.900000 -0.899999
v 0.200000 2.900000 -1.600000
v 0.200000 3.000000 -1.000000
v 0.200000 3.000000 -1.500000
v 0.200000 3.000000 -1.600000
v 0.200000 3.100000 1.500000
v 0.200000 3.100000 1.000000
v 0.200000 3.000000 0.500000
v 0.200000 3.100000 0.500000
v 0.200000 3.300000 0.400001
v 0.200000 3.300000 -0.299999
v 0.200000 3.400000 -0.199999
v 0.200000 3.300000 -0.199999
v 0.200000 3.500000 -0.299999
v 0.600000 0.100000 1.800000
v 0.600000 0.100000 -1.800000
v 0.600000 2.800000 1.700001
v 0.600000 2.800000 -1.700000
v 0.600000 2.900000 1.700001
v -0.600000 2.800000 1.800000
v 0.600000 2.800000 1.800000
v -0.600000 2.900000 1.700001
v 0.200000 2.900000 1.600001
v 0.200000 3.000000 1.600001
v 0.200000 3.000000 1.500000
v -0.200000 3.000000 1.500000
v -0.200000 3.000000 0.800000
v 0.200000 3.000000 0.700000
v 0.200000 3.100000 0.700000
v -0.200000 3.300000 0.500001
v -0.200000 3.200000 0.500001
v 0.200000 3.300000 0.500001
v 0.200000 3.400000 0.300001
v -0.200000 3.400000 0.300001
v 0.200000 3.500000 0.300001
v 0.200000 3.200000 -0.300000
v -0.200000 3.300000 -0.299999
v 0.200000 3.100000 -0.399999
v -0.200000 3.200000 -0.399999
v 0.200000 3.000000 -0.500000
v -0.200000 2.900000 -0.600000
v -0.200000 3.000000 -0.899999
v -0.200000 2.900000 -0.899999
v -0.200000 3.100000 -1.000000
v -0.200000 3.000000 -1.000000
v -0.200000 2.900000 0.900000
v -0.200000 3.000000 0.900000
v -0.200000 3.000000 0.600001
v 0.200000 3.100000 0.400001
v -0.200000 3.200000 0.300001
v 0.200000 3.300000 0.200001
v 0.200000 3.400000 0.200001
v 0.200000 3.300000 -0.399999
v 0.200000 3.400000 -0.399999
v -0.200000 3.100000 -0.600000
v -0.200000 3.000000 -0.700000
v 0.200000 3.100000 -0.700000
v -0.600000 0.100000 -1.700000
v 0.600000 0.000000 -1.700000
v 0.600000 2.900000 -1.700000
v -0.600000 2.800000 -1.799999
v -0.600000 0.000000 -1.700000
v 0.600000 -0.000000 1.700000
v -0.600000 0.100000 1.700000
v 0.600000 0.100000 1.700000
v 0.600000 0.100000 -1.700000
v -0.200000 3.000000 0.500000
v -0.200000 3.100000 -0.399999
v 0.200000 3.100000 -0.499999
v 0.200000 3.200000 0.400001
v 0.200000 3.200000 0.300001
v 0.200000 3.200000 -0.399999
v -0.200000 3.300000 0.200001
v 0.200000 3.300000 0.300001
v -0.200000 3.300000 0.300001
v -0.200000 3.300000 -0.199999
v -0.200000 3.400000 -0.199999
v -0.200000 3.400000 0.200001
v -0.600000 2.800000 -1.700000
v 0.600000 2.800000 -1.799999
v -0.200000 2.900000 1.600001
v 0.200000 2.900000 0.900000
v 0.200000 2.900000 0.600001
v 0.200000 2.900000 -0.800000
v -0.600000 2.900000 -1.700000
v 0.200000 3.000000 0.800000
v -0.200000 3.000000 0.700000
v 0.200000 3.000000 -0.700000
v -0.200000 3.000000 -0.800000
v 0.200000 3.000000 -0.800000
v 0.200000 3.000000 -0.899999
v -0.200000 3.000000 -1.500000
v -0.200000 3.000000 -1.600000
v -0.200000 3.100000 1.000000
v -0.200000 3.100000 0.700000
v -0.200000 3.100000 0.600001
v 0.200000 3.100000 0.600001
v 0.200000 3.100000 -0.600000
v -0.200000 3.100000 -0.700000
v 0.200000 3.100000 -1.000000
v 0.200000 3.100000 -1.500000
v -0.200000 3.200000 0.600001
v 0.200000 3.200000 0.600001
v 0.200000 3.200000 0.500001
v 0.200000 3.200000 -0.499999
v 0.200000 3.200000 -0.599999
v 0.200000 3.300000 -0.499999
v -0.200000 3.400000 0.400001
v 0.200000 3.400000 0.400001
v 0.200000 3.400000 -0.299999
v -0.200000 3.500000 0.300001
v -0.200000 3.500000 -0.299999
vt 0.788732 0.859155
vt 0.845070 0.845071
vt 0.845070 0.859155
vt 0.788732 0.704225
vt 0.845070 0.690141
vt 0.845070 0.704225
vt 0.577465 0.661972
vt 0.591549 0.661972
vt 0.577465 0.647887
vt 0.732394 0.507042
vt 0.676056 0.591549
vt 0.732394 0.591549
vt 0.845070 0.605634
vt 0.788732 0.591549
vt 0.845070 0.591549
vt 0.845070 0.591549
vt 0.788732 0.577465
vt 0.845070 0.577465
vt 0.507042 0.802817
vt 0.563380 0.788732
vt 0.563380 0.802817
vt 0.788732 0.816902
vt 0.732394 0.830986
vt 0.788732 0.830986
vt 0.619718 0.887324
vt 0.563380 0.873239
vt 0.619718 0.873239
vt 0.732394 0.816901
vt 0.563380 0.830986
vt 0.732394 0.830986
vt 0.507042 0.830986
vt 0.563380 0.816901
vt 0.563380 0.830986
vt 0.732394 0.591549
vt 0.676056 0.661972
vt 0.732394 0.661972
vt 0.845070 0.549296
vt 0.788732 0.563380
vt 0.845070 0.563380
vt 0.676056 0.887324
vt 0.619718 0.873239
vt 0.619718 0.887324
vt 0.507042 0.873240
vt 0.563380 0.859155
vt 0.563380 0.873240
vt 0.845070 0.873240
vt 0.788732 0.859155
vt 0.788732 0.873240
vt 0.929578 0.464789
vt 0.816901 0.478873
vt 0.985916 0.478873
vt 0.788732 0.718310
vt 0.845070 0.704225
vt 0.845070 0.718310
vt 0.788732 0.802817
vt 0.732394 0.788733
vt 0.732394 0.802817
vt 0.563380 0.845071
vt 0.507042 0.830986
vt 0.563380 0.830986
vt 0.732394 0.774648
vt 0.788732 0.760563
vt 0.788732 0.774648
vt 0.788732 0.802817
vt 0.845070 0.788732
vt 0.845070 0.802817
vt 0.732394 0.816901
vt 0.563380 0.802817
vt 0.563380 0.816901
vt 0.394366 0.014085
vt 0.014084 0.492958
vt 0.014084 0.014085
vt 0.774648 0.690141
vt 0.774648 0.619718
vt 0.760563 0.704225
vt 0.873240 0.507042
vt 0.816901 0.492958
vt 0.816901 0.507042
vt 0.845070 0.521127
vt 0.788732 0.535211
vt 0.845070 0.535211
vt 0.774648 0.591549
vt 0.760563 0.605634
vt 0.774648 0.521127
vt 0.845070 0.647887
vt 0.788732 0.661972
vt 0.845070 0.661972
vt 0.676056 0.859155
vt 0.619718 0.845070
vt 0.619718 0.859155
vt 0.563380 0.788732
vt 0.507042 0.732394
vt 0.563380 0.732394
vt 0.676056 0.873239
vt 0.619718 0.859155
vt 0.619718 0.873239
vt 0.845070 0.830986
vt 0.788732 0.845071
vt 0.845070 0.845071
vt 0.338028 0.887324
vt 0.507042 0.507042
vt 0.507042 0.887324
vt 0.788732 0.788732
vt 0.845070 0.774648
vt 0.845070 0.788732
vt 0.732394 0.774648
vt 0.563380 0.760563
vt 0.732394 0.760563
vt 0.169014 0.985915
vt 0.000000 0.507042
vt 0.169014 0.507042
vt 0.563380 0.746479
vt 0.732394 0.732394
vt 0.732394 0.746479
vt 0.732394 0.774648
vt 0.563380 0.788732
vt 0.732394 0.788732
vt 0.845070 0.661972
vt 0.788732 0.676056
vt 0.845070 0.676056
vt 0.788732 0.859155
vt 0.732394 0.845071
vt 0.732394 0.859155
vt 0.732394 0.746479
vt 0.788732 0.732394
vt 0.788732 0.746479
vt 0.732394 0.845070
vt 0.563380 0.830986
vt 0.732394 0.830986
vt 0.619718 0.873239
vt 0.563380 0.859155
vt 0.563380 0.873239
vt 0.788732 0.816902
vt 0.845070 0.802817
vt 0.845070 0.816902
vt 0.845070 0.605634
vt 0.788732 0.619718
vt 0.845070 0.619718
vt 0.732394 0.661972
vt 0.676056 0.732394
vt 0.732394 0.732394
vt 0.788732 0.816902
vt 0.732394 0.802817
vt 0.732394 0.816902
vt 0.563380 0.816901
vt 0.507042 0.802817
vt 0.507042 0.816901
vt 0.732394 0.760563
vt 0.563380 0.746479
vt 0.563380 0.760563
vt 0.788732 0.774648
vt 0.732394 0.788733
vt 0.788732 0.788733
vt 0.873240 0.478873
vt 0.816901 0.492958
vt 0.873240 0.492958
vt 0.929578 0.014085
vt 0.816901 0.000000
vt 0.873240 0.014085
vt 0.619718 0.859155
vt 0.563380 0.845070
vt 0.563380 0.859155
vt 0.788732 0.732394
vt 0.845070 0.718310
vt 0.845070 0.732394
vt 0.929578 0.352113
vt 0.873240 0.352113
vt 0.929578 0.366197
vt 0.338028 0.887324
vt 0.169014 0.507042
vt 0.169014 0.887324
vt 0.845070 0.760563
vt 0.788732 0.746479
vt 0.788732 0.760563
vt 0.929578 0.126761
vt 0.929578 0.112676
vt 0.873240 0.112676
vt 0.845070 0.690141
vt 0.788732 0.676056
vt 0.845070 0.676056
vt 0.845070 0.507042
vt 0.788732 0.521127
vt 0.845070 0.521127
vt 0.845070 0.774648
vt 0.788732 0.760563
vt 0.788732 0.774648
vt 0.563380 0.802817
vt 0.732394 0.788732
vt 0.732394 0.802817
vt 0.845070 0.647887
vt 0.788732 0.633803
vt 0.845070 0.633803
vt 0.732394 0.605634
vt 0.746479 0.619718
vt 0.746479 0.690141
vt 0.661972 0.591549
vt 0.661972 0.577465
vt 0.676056 0.577465
vt 0.845070 0.633803
vt 0.788732 0.619718
vt 0.845070 0.619718
vt 0.929578 0.323944
vt 0.873240 0.154930
vt 0.873240 0.323944
vt 0.788732 0.859155
vt 0.732394 0.873240
vt 0.788732 0.873240
vt 0.788732 0.746479
vt 0.845070 0.732394
vt 0.845070 0.746479
vt 0.788732 0.760563
vt 0.732394 0.746479
vt 0.788732 0.746479
vt 0.845070 0.535211
vt 0.788732 0.549296
vt 0.845070 0.549296
vt 0.563380 0.859155
vt 0.507042 0.845071
vt 0.507042 0.859155
vt 0.802817 0.492958
vt 0.802817 0.014085
vt 0.422535 0.014085
vt 0.746479 0.591549
vt 0.746479 0.521127
vt 0.732394 0.507042
vt 0.788732 0.830986
vt 0.845070 0.816902
vt 0.845070 0.830986
vt 0.788732 0.718310
vt 0.732394 0.704225
vt 0.732394 0.718310
vt 0.788732 0.830986
vt 0.732394 0.845071
vt 0.788732 0.845071
vt 0.845070 0.563380
vt 0.788732 0.577465
vt 0.845070 0.577465
vt 0.507042 0.887324
vt 0.563380 0.873240
vt 0.563380 0.887324
vt 0.788732 0.845071
vt 0.788732 0.690141
vt 0.549296 0.549296
vt 0.549296 0.535211
vt 0.535211 0.535211
vt 0.535211 0.521127
vt 0.521127 0.521127
vt 0.521127 0.507042
vt 0.507042 0.507042
vt 0.507042 0.535211
vt 0.521127 0.535211
vt 0.521127 0.549296
vt 0.535211 0.549296
vt 0.535211 0.563380
vt 0.549296 0.563380
vt 0.549296 0.577465
vt 0.563380 0.577465
vt 0.563380 0.591549
vt 0.577465 0.591549
vt 0.563380 0.647887
vt 0.563380 0.661972
vt 0.563380 0.563380
vt 0.577465 0.577465
vt 0.563380 0.549296
vt 0.577465 0.563380
vt 0.591549 0.577465
vt 0.563380 0.676056
vt 0.577465 0.676056
vt 0.549296 0.690141
vt 0.563380 0.690141
vt 0.535211 0.704225
vt 0.549296 0.704225
vt 0.521127 0.718310
vt 0.535211 0.718310
vt 0.507042 0.732394
vt 0.521127 0.732394
vt 0.521127 0.704225
vt 0.507042 0.704225
vt 0.535211 0.690141
vt 0.521127 0.690141
vt 0.549296 0.676056
vt 0.535211 0.676056
vt 0.549296 0.661972
vt 0.676056 0.507042
vt 0.788732 0.605634
vt 0.788732 0.591549
vt 0.507042 0.788732
vt 0.732394 0.816902
vt 0.563380 0.887324
vt 0.563380 0.816901
vt 0.507042 0.816901
vt 0.676056 0.591549
vt 0.788732 0.549296
vt 0.676056 0.873239
vt 0.507042 0.859155
vt 0.845070 0.859155
vt 0.873240 0.464789
vt 0.788732 0.704225
vt 0.788732 0.788733
vt 0.507042 0.845071
vt 0.732394 0.760563
vt 0.788732 0.788732
vt 0.732394 0.802817
vt 0.408451 0.014085
vt 0.408451 0.492958
vt 0.394366 0.492958
vt 0.394366 0.507042
vt 0.014084 0.507042
vt 0.014084 0.000000
vt 0.394366 0.000000
vt 0.000000 0.492958
vt 0.000000 0.014085
vt 0.788732 0.690141
vt 0.788732 0.619718
vt 0.774648 0.605634
vt 0.760563 0.605634
vt 0.774648 0.704225
vt 0.873240 0.492958
vt 0.788732 0.521127
vt 0.788732 0.521127
vt 0.788732 0.591549
vt 0.774648 0.605634
vt 0.760563 0.507042
vt 0.774648 0.507042
vt 0.788732 0.647887
vt 0.676056 0.845070
vt 0.507042 0.788732
vt 0.676056 0.859155
vt 0.788732 0.830986
vt 0.338028 0.507042
vt 0.788732 0.774648
vt 0.563380 0.774648
vt 0.000000 0.985915
vt 0.563380 0.732394
vt 0.563380 0.774648
vt 0.788732 0.661972
vt 0.788732 0.845071
vt 0.732394 0.732394
vt 0.563380 0.845070
vt 0.619718 0.859155
vt 0.788732 0.802817
vt 0.788732 0.605634
vt 0.676056 0.661972
vt 0.788732 0.802817
vt 0.563380 0.802817
vt 0.732394 0.746479
vt 0.732394 0.774648
vt 0.816901 0.478873
vt 0.985916 0.000000
vt 0.619718 0.845070
vt 0.788732 0.718310
vt 0.873240 0.366197
vt 0.338028 0.507042
vt 0.845070 0.746479
vt 0.929578 0.154930
vt 0.873240 0.126761
vt 0.788732 0.690141
vt 0.788732 0.507042
vt 0.845070 0.760563
vt 0.563380 0.788732
vt 0.788732 0.647887
vt 0.746479 0.704225
vt 0.732394 0.704225
vt 0.746479 0.605634
vt 0.760563 0.619718
vt 0.760563 0.690141
vt 0.676056 0.661972
vt 0.661972 0.647887
vt 0.661972 0.661972
vt 0.661972 0.676056
vt 0.647887 0.676056
vt 0.647887 0.690141
vt 0.633803 0.690141
vt 0.633803 0.704225
vt 0.619718 0.704225
vt 0.619718 0.718310
vt 0.605634 0.718310
vt 0.605634 0.732394
vt 0.591549 0.732394
vt 0.591549 0.704225
vt 0.605634 0.704225
vt 0.605634 0.690141
vt 0.619718 0.690141
vt 0.619718 0.676056
vt 0.633803 0.676056
vt 0.633803 0.661972
vt 0.647887 0.661972
vt 0.647887 0.647887
vt 0.647887 0.591549
vt 0.647887 0.577465
vt 0.647887 0.563380
vt 0.661972 0.563380
vt 0.633803 0.549296
vt 0.647887 0.549296
vt 0.619718 0.535211
vt 0.633803 0.535211
vt 0.605634 0.521127
vt 0.619718 0.521127
vt 0.591549 0.507042
vt 0.605634 0.507042
vt 0.605634 0.535211
vt 0.591549 0.535211
vt 0.619718 0.549296
vt 0.605634 0.549296
vt 0.633803 0.563380
vt 0.619718 0.563380
vt 0.633803 0.577465
vt 0.788732 0.633803
vt 0.732394 0.859155
vt 0.788732 0.732394
vt 0.732394 0.760563
vt 0.788732 0.535211
vt 0.563380 0.845071
vt 0.408451 0.014085
vt 0.408451 0.492958
vt 0.422535 0.492958
vt 0.422535 0.507042
vt 0.802817 0.507042
vt 0.816902 0.492958
vt 0.816902 0.014085
vt 0.802817 0.000000
vt 0.422535 0.000000
vt 0.732394 0.605634
vt 0.746479 0.605634
vt 0.760563 0.591549
vt 0.760563 0.521127
vt 0.746479 0.507042
vt 0.788732 0.816902
vt 0.788732 0.704225
vt 0.732394 0.830986
vt 0.788732 0.563380
vt 0.507042 0.873240
vn 0.0000 0.0000 1.0000
vn -1.0000 0.0000 0.0000
vn 0.0000 1.0000 0.0000
vn 0.0000 -1.0000 0.0000
vn 0.0000 0.0000 -1.0000
vn 1.0000 0.0000 0.0000
usemtl botiquinPequeño_Material
s off
f 12/1/1 57/2/1 38/3/1
f 143/4/1 65/5/1 67/6/1
f 66/7/2 143/8/2 110/9/2
f 46/10/3 143/11/3 67/12/3
f 102/13/4 82/14/4 103/15/4
f 68/16/4 71/17/4 104/18/4
f 140/19/1 42/20/1 141/21/1
f 35/22/3 74/23/3 123/24/3
f 41/25/4 17/26/4 81/27/4
f 112/28/3 111/29/3 50/30/3
f 109/31/1 45/32/1 44/33/1
f 39/34/3 12/35/3 38/36/3
f 138/37/3 19/38/3 137/39/3
f 122/40/5 10/41/5 121/42/5
f 5/43/1 55/44/1 56/45/1
f 39/46/5 6/47/5 126/48/5
f 55/49/3 54/50/3 51/51/3
f 74/52/1 33/53/1 123/54/1
f 102/55/5 17/56/5 18/57/5
f 106/58/4 105/59/4 83/60/4
f 134/61/1 129/62/1 135/63/1
f 9/64/1 31/65/1 32/66/1
f 98/67/5 94/68/5 90/69/5
f 50/70/6 97/71/6 98/72/6
f 58/73/2 6/74/2 113/75/2
f 41/76/5 99/77/5 13/78/5
f 86/79/3 25/80/3 142/81/3
f 57/82/6 55/83/6 27/84/6
f 139/85/3 23/86/3 85/87/3
f 46/88/5 25/89/5 144/90/5
f 84/91/4 109/92/4 44/93/4
f 28/94/5 78/95/5 79/96/5
f 28/97/3 6/98/3 27/99/3
f 52/100/1 47/101/1 53/102/1
f 62/103/1 136/104/1 64/105/1
f 98/106/4 3/107/4 48/108/4
f 95/109/4 94/110/4 91/111/4
f 54/112/1 49/113/1 51/114/1
f 49/115/3 52/116/3 53/117/3
f 89/118/3 87/119/3 130/120/3
f 106/121/5 82/122/5 107/123/5
f 71/124/1 70/125/1 104/126/1
f 47/127/4 96/128/4 97/129/4
f 30/130/5 7/131/5 80/132/5
f 127/133/1 60/134/1 61/135/1
f 65/136/3 140/137/3 141/138/3
f 133/139/3 76/140/3 132/141/3
f 84/142/5 105/143/5 110/144/5
f 86/145/5 23/146/5 26/147/5
f 92/148/5 111/149/5 117/150/5
f 136/151/3 134/152/3 135/153/3
f 129/154/3 127/155/3 61/156/3
f 34/157/3 117/158/3 11/159/3
f 139/160/5 19/161/5 24/162/5
f 69/163/1 68/164/1 43/165/1
f 29/166/3 8/167/3 114/168/3
f 112/169/5 3/170/5 93/171/5
f 37/172/5 11/173/5 125/174/5
f 116/175/3 33/176/3 75/177/3
f 70/178/4 14/179/4 101/180/4
f 122/181/3 88/182/3 120/183/3
f 133/184/5 124/185/5 16/186/5
f 96/187/1 95/188/1 97/189/1
f 72/190/4 9/191/4 32/192/4
f 34/193/6 36/194/6 35/195/6
f 44/196/6 142/197/6 46/198/6
f 45/199/4 69/200/4 43/201/4
f 115/202/3 73/203/3 7/204/3
f 42/205/3 62/206/3 64/207/3
f 14/208/1 72/209/1 101/210/1
f 30/211/4 99/212/4 40/213/4
f 60/214/3 59/215/3 118/216/3
f 89/217/5 88/218/5 131/219/5
f 4/220/2 111/221/2 90/222/2
f 77/223/2 124/224/2 11/225/2
f 59/226/1 29/227/1 118/228/1
f 138/229/5 87/230/5 20/231/5
f 57/232/3 5/233/3 56/234/3
f 37/235/3 124/236/3 36/237/3
f 76/238/1 35/239/1 132/240/1
f 12/1/1 58/241/1 57/2/1
f 143/4/1 66/242/1 65/5/1
f 19/243/2 20/244/2 87/245/2
f 87/245/2 131/246/2 88/247/2
f 88/247/2 121/248/2 10/249/2
f 10/249/2 73/250/2 88/247/2
f 73/250/2 9/251/2 88/247/2
f 9/251/2 15/252/2 14/253/2
f 14/253/2 100/254/2 71/255/2
f 71/255/2 22/256/2 69/257/2
f 69/257/2 108/258/2 109/259/2
f 110/9/2 105/260/2 107/261/2
f 71/255/2 69/257/2 23/262/2
f 69/257/2 109/259/2 25/263/2
f 23/262/2 69/257/2 25/263/2
f 9/251/2 14/253/2 87/245/2
f 14/253/2 71/255/2 19/243/2
f 87/245/2 14/253/2 19/243/2
f 87/245/2 88/247/2 9/251/2
f 19/243/2 71/255/2 23/262/2
f 23/262/2 24/264/2 19/243/2
f 25/263/2 26/265/2 23/262/2
f 143/8/2 144/266/2 109/259/2
f 144/266/2 25/263/2 109/259/2
f 21/267/2 140/268/2 66/7/2
f 109/259/2 110/9/2 143/8/2
f 63/269/2 62/270/2 21/267/2
f 128/271/2 134/272/2 63/269/2
f 119/273/2 127/274/2 128/271/2
f 8/275/2 59/276/2 119/273/2
f 80/277/2 7/278/2 119/273/2
f 7/278/2 8/275/2 119/273/2
f 13/279/2 99/280/2 80/277/2
f 18/281/2 17/282/2 13/279/2
f 107/261/2 82/283/2 18/281/2
f 110/9/2 107/261/2 66/7/2
f 107/261/2 18/281/2 21/267/2
f 66/7/2 107/261/2 21/267/2
f 18/281/2 13/279/2 63/269/2
f 13/279/2 80/277/2 128/271/2
f 128/271/2 63/269/2 13/279/2
f 63/269/2 21/267/2 18/281/2
f 80/277/2 119/273/2 128/271/2
f 46/10/3 144/284/3 143/11/3
f 102/13/4 18/285/4 82/14/4
f 68/16/4 22/286/4 71/17/4
f 140/19/1 21/287/1 42/20/1
f 35/22/3 77/288/3 74/23/3
f 41/25/4 13/289/4 17/26/4
f 112/28/3 93/290/3 111/29/3
f 109/31/1 108/291/1 45/32/1
f 39/34/3 126/292/3 12/35/3
f 138/37/3 20/293/3 19/38/3
f 122/40/5 116/294/5 10/41/5
f 5/43/1 113/295/1 55/44/1
f 39/46/5 27/296/5 6/47/5
f 55/49/3 113/297/3 54/50/3
f 51/51/3 114/168/3 55/49/3
f 74/52/1 75/298/1 33/53/1
f 102/55/5 81/299/5 17/56/5
f 106/58/4 107/300/4 105/59/4
f 134/61/1 128/301/1 129/62/1
f 9/64/1 73/302/1 31/65/1
f 98/67/5 91/303/5 94/68/5
f 50/70/6 92/304/6 51/305/6
f 49/306/6 53/307/6 47/308/6
f 50/70/6 51/305/6 49/306/6
f 48/309/6 112/310/6 50/70/6
f 95/311/6 91/312/6 98/72/6
f 98/72/6 48/309/6 50/70/6
f 50/70/6 49/306/6 97/71/6
f 49/306/6 47/308/6 97/71/6
f 97/71/6 95/311/6 98/72/6
f 58/73/2 12/313/2 126/314/2
f 6/74/2 79/315/2 78/316/2
f 58/73/2 126/314/2 6/74/2
f 113/75/2 5/317/2 58/73/2
f 6/74/2 78/316/2 113/75/2
f 41/76/5 40/318/5 99/77/5
f 86/79/3 26/319/3 25/80/3
f 39/320/6 38/321/6 57/82/6
f 57/82/6 56/322/6 55/83/6
f 55/83/6 114/323/6 27/84/6
f 114/323/6 28/324/6 27/84/6
f 27/84/6 39/320/6 57/82/6
f 139/85/3 24/325/3 23/86/3
f 46/88/5 142/326/5 25/89/5
f 84/91/4 110/327/4 109/92/4
f 28/94/5 114/328/5 78/95/5
f 28/97/3 79/329/3 6/98/3
f 52/100/1 2/330/1 47/101/1
f 62/103/1 63/331/1 136/104/1
f 98/106/4 90/332/4 3/107/4
f 95/109/4 1/333/4 94/110/4
f 54/112/1 4/334/1 49/113/1
f 49/115/3 4/335/3 52/116/3
f 89/118/3 131/336/3 87/119/3
f 106/121/5 103/337/5 82/122/5
f 71/124/1 100/338/1 70/125/1
f 47/127/4 2/339/4 96/128/4
f 30/130/5 115/340/5 7/131/5
f 127/133/1 119/341/1 60/134/1
f 65/136/3 66/342/3 140/137/3
f 133/139/3 16/343/3 76/140/3
f 84/142/5 83/344/5 105/143/5
f 86/145/5 85/345/5 23/146/5
f 92/148/5 50/346/5 111/149/5
f 136/151/3 63/347/3 134/152/3
f 129/154/3 128/348/3 127/155/3
f 34/157/3 92/349/3 117/158/3
f 139/160/5 137/350/5 19/161/5
f 69/163/1 22/351/1 68/164/1
f 8/167/3 7/204/3 54/50/3
f 7/204/3 117/158/3 54/50/3
f 54/50/3 113/297/3 78/352/3
f 54/50/3 78/352/3 8/167/3
f 114/168/3 51/51/3 29/166/3
f 51/51/3 92/349/3 115/202/3
f 29/166/3 51/51/3 115/202/3
f 8/167/3 78/352/3 114/168/3
f 112/169/5 48/353/5 3/170/5
f 37/172/5 34/354/5 11/173/5
f 116/175/3 31/355/3 92/349/3
f 31/355/3 115/202/3 92/349/3
f 92/349/3 34/157/3 33/176/3
f 75/177/3 11/159/3 117/158/3
f 117/158/3 7/204/3 73/203/3
f 117/158/3 73/203/3 10/356/3
f 75/177/3 117/158/3 10/356/3
f 75/177/3 10/356/3 116/175/3
f 116/175/3 92/349/3 33/176/3
f 70/178/4 100/357/4 14/179/4
f 122/181/3 121/358/3 88/182/3
f 133/184/5 36/359/5 124/185/5
f 96/187/1 1/360/1 95/188/1
f 72/190/4 15/361/4 9/191/4
f 123/362/6 33/363/6 35/195/6
f 33/363/6 34/193/6 35/195/6
f 34/193/6 37/364/6 36/194/6
f 36/194/6 133/365/6 132/366/6
f 36/194/6 132/366/6 35/195/6
f 46/198/6 67/367/6 84/368/6
f 67/367/6 65/369/6 84/368/6
f 65/369/6 141/370/6 42/371/6
f 42/371/6 64/372/6 136/373/6
f 136/373/6 135/374/6 129/375/6
f 129/375/6 61/376/6 60/377/6
f 60/377/6 118/378/6 29/379/6
f 29/379/6 115/380/6 60/377/6
f 115/380/6 30/381/6 60/377/6
f 30/381/6 40/382/6 41/383/6
f 41/383/6 81/384/6 102/385/6
f 102/385/6 103/386/6 106/387/6
f 106/387/6 83/388/6 84/368/6
f 44/196/6 45/389/6 43/390/6
f 102/385/6 106/387/6 42/371/6
f 106/387/6 84/368/6 65/369/6
f 42/371/6 106/387/6 65/369/6
f 30/381/6 41/383/6 129/375/6
f 41/383/6 102/385/6 136/373/6
f 129/375/6 41/383/6 136/373/6
f 42/371/6 136/373/6 102/385/6
f 129/375/6 60/377/6 30/381/6
f 85/391/6 86/392/6 142/197/6
f 137/393/6 139/394/6 85/391/6
f 130/395/6 138/396/6 137/393/6
f 120/397/6 89/398/6 130/395/6
f 116/399/6 122/400/6 120/397/6
f 32/401/6 31/402/6 120/397/6
f 31/402/6 116/399/6 120/397/6
f 101/403/6 72/404/6 32/401/6
f 104/405/6 70/406/6 101/403/6
f 43/390/6 68/407/6 104/405/6
f 84/368/6 44/196/6 46/198/6
f 44/196/6 43/390/6 142/197/6
f 43/390/6 104/405/6 85/391/6
f 142/197/6 43/390/6 85/391/6
f 104/405/6 101/403/6 137/393/6
f 101/403/6 32/401/6 130/395/6
f 130/395/6 137/393/6 101/403/6
f 137/393/6 85/391/6 104/405/6
f 32/401/6 120/397/6 130/395/6
f 45/199/4 108/408/4 69/200/4
f 115/202/3 31/355/3 73/203/3
f 42/205/3 21/409/3 62/206/3
f 14/208/1 15/410/1 72/209/1
f 30/211/4 80/411/4 99/212/4
f 60/214/3 119/412/3 59/215/3
f 89/217/5 120/413/5 88/218/5
f 94/414/2 1/415/2 96/416/2
f 96/416/2 2/417/2 52/418/2
f 4/220/2 54/419/2 117/420/2
f 96/416/2 52/418/2 4/220/2
f 90/222/2 94/414/2 96/416/2
f 93/421/2 3/422/2 90/222/2
f 4/220/2 117/420/2 111/221/2
f 111/221/2 93/421/2 90/222/2
f 90/222/2 96/416/2 4/220/2
f 11/225/2 75/423/2 77/223/2
f 75/423/2 74/424/2 77/223/2
f 77/223/2 76/425/2 16/426/2
f 124/224/2 125/427/2 11/225/2
f 77/223/2 16/426/2 124/224/2
f 59/226/1 8/428/1 29/227/1
f 138/229/5 130/429/5 87/230/5
f 57/232/3 58/430/3 5/233/3
f 37/235/3 125/431/3 124/236/3
f 76/238/1 77/432/1 35/239/1
