# This file uses centimeters as units for non-parametric coordinates.

mtllib Sofa3.mtl
g default
v -73.960913 1.054020 -17.755828
v -73.915110 1.035048 -17.755828
v -73.915110 1.054020 -17.710024
v -73.915110 1.099825 -17.691051
v -73.960913 1.099825 -17.710024
v -73.979883 1.099825 -17.755828
v -71.246945 1.054020 -17.755828
v -71.227966 1.099825 -17.755828
v -71.246945 1.099825 -17.710024
v -71.292749 1.099825 -17.691051
v -71.292749 1.054020 -17.710024
v -71.292749 1.035048 -17.755828
v -73.960913 1.462863 -17.755828
v -73.979883 1.417058 -17.755828
v -73.960913 1.417058 -17.710024
v -73.915110 1.417058 -17.691051
v -73.915110 1.462863 -17.710024
v -73.915110 1.481836 -17.755828
v -71.246945 1.462863 -17.755828
v -71.292749 1.481836 -17.755828
v -71.292749 1.462863 -17.710024
v -71.292749 1.417058 -17.691051
v -71.246945 1.417058 -17.710024
v -71.227966 1.417058 -17.755828
v -73.960913 1.417058 -20.683312
v -73.979883 1.417058 -20.637506
v -73.960913 1.462863 -20.637506
v -73.915110 1.481836 -20.637506
v -73.915110 1.462863 -20.683312
v -73.915110 1.417058 -20.702284
v -71.246945 1.417058 -20.683312
v -71.292749 1.417058 -20.702284
v -71.292749 1.462863 -20.683312
v -71.292749 1.481836 -20.637506
v -71.246945 1.462863 -20.637506
v -71.227966 1.417058 -20.637506
v -73.960913 1.054020 -20.637506
v -73.979883 1.099825 -20.637506
v -73.960913 1.099825 -20.683312
v -73.915110 1.099825 -20.702284
v -73.915110 1.054020 -20.683312
v -73.915110 1.035048 -20.637506
v -71.246945 1.054020 -20.637506
v -71.292749 1.035048 -20.637506
v -71.292749 1.054020 -20.683312
v -71.292749 1.099825 -20.702284
v -71.246945 1.099825 -20.683312
v -71.227966 1.099825 -20.637506
v -73.952498 1.062439 -17.718441
v -71.255360 1.062439 -17.718441
v -73.952498 1.454445 -17.718441
v -71.255360 1.454445 -17.718441
v -73.952498 1.454445 -20.674893
v -71.255360 1.454445 -20.674893
v -73.952498 1.062439 -20.674893
v -71.255360 1.062439 -20.674893
vt 0.931562 0.279572
vt 0.933980 0.279640
vt 0.933965 0.420361
vt 0.931544 0.420427
vt 0.933906 0.277222
vt 0.931958 0.277616
vt 0.949474 0.279640
vt 0.949459 0.420360
vt 0.933891 0.422764
vt 0.931941 0.422377
vt 0.929140 0.279571
vt 0.929122 0.420427
vt 0.949549 0.277236
vt 0.951895 0.279573
vt 0.951878 0.420429
vt 0.949533 0.422779
vt 0.951498 0.277623
vt 0.954317 0.279574
vt 0.954300 0.420429
vt 0.951482 0.422384
vt 0.933970 0.571721
vt 0.931549 0.571788
vt 0.931544 0.430932
vt 0.933963 0.431000
vt 0.933896 0.574125
vt 0.931947 0.573738
vt 0.929127 0.571788
vt 0.929122 0.430932
vt 0.933889 0.428581
vt 0.931940 0.428977
vt 0.949457 0.430997
vt 0.949464 0.571718
vt 0.949539 0.574137
vt 0.949531 0.428593
vt 0.951883 0.571786
vt 0.951878 0.430930
vt 0.951488 0.573742
vt 0.951481 0.428980
vt 0.954305 0.571786
vt 0.954300 0.430930
vt 0.545354 0.228882
vt 0.673445 0.228867
vt 0.673462 0.369623
vt 0.545372 0.369639
vt 0.590801 0.000019
vt 0.718891 0.000003
vt 0.718908 0.140760
vt 0.590818 0.140775
vt 0.944068 0.710597
vt 0.941650 0.710600
vt 0.941636 0.582516
vt 0.944054 0.582522
vt 0.943911 0.712989
vt 0.941842 0.712485
vt 0.939231 0.710732
vt 0.939221 0.582384
vt 0.943893 0.580101
vt 0.941827 0.580625
vt 0.959549 0.582516
vt 0.959563 0.710591
vt 0.959724 0.713012
vt 0.940010 0.713191
vt 0.939996 0.579923
vt 0.959706 0.580125
vt 0.961981 0.710597
vt 0.961967 0.582513
vt 0.961790 0.712488
vt 0.961775 0.580628
vt 0.964395 0.710729
vt 0.964386 0.582381
vt 0.963621 0.713190
vt 0.963606 0.579922
vt 0.903506 0.827584
vt 0.903663 0.825193
vt 0.919158 0.825188
vt 0.919319 0.827609
vt 0.901245 0.825196
vt 0.901437 0.827081
vt 0.903657 0.697118
vt 0.919152 0.697113
vt 0.921576 0.825194
vt 0.921385 0.827085
vt 0.901239 0.697112
vt 0.899605 0.827786
vt 0.898826 0.825328
vt 0.903496 0.694697
vt 0.919310 0.694721
vt 0.921570 0.697110
vt 0.923990 0.825326
vt 0.923216 0.827788
vt 0.898825 0.696980
vt 0.901430 0.695221
vt 0.921378 0.695225
vt 0.923989 0.696978
vt 0.899599 0.694518
vt 0.923210 0.694519
vn -0.007049 -0.999955 0.006419
vn -0.382148 -0.924089 0.004807
vn -0.382148 -0.924089 -0.004807
vn -0.007049 -0.999955 -0.006419
vn -0.924008 -0.382365 0.002409
vn -0.998632 -0.051922 0.006186
vn -0.998632 -0.051922 -0.006186
vn -0.924008 -0.382365 -0.002409
vn -0.006851 -0.051959 0.998626
vn -0.003536 -0.382294 0.924034
vn 0.003536 -0.382294 0.924034
vn 0.006851 -0.051959 0.998626
vn -0.005813 -0.924131 0.382030
vn 0.007049 -0.999955 0.006419
vn 0.005814 -0.924132 0.382030
vn -0.924965 -0.037048 0.378243
vn -0.924965 0.037048 0.378242
vn -0.998632 0.051922 0.006186
vn -0.378746 -0.033500 0.924894
vn -0.006851 0.051959 0.998626
vn -0.378744 0.033500 0.924895
vn 0.998631 -0.051948 0.006189
vn 0.923940 -0.382530 0.002410
vn 0.923940 -0.382530 -0.002410
vn 0.998631 -0.051948 -0.006189
vn 0.382146 -0.924089 0.004807
vn 0.007049 -0.999955 -0.006419
vn 0.382147 -0.924089 -0.004807
vn 0.378745 -0.033500 0.924894
vn 0.378744 0.033500 0.924895
vn 0.006851 0.051959 0.998626
vn 0.924899 -0.037059 0.378402
vn 0.998631 0.051948 0.006189
vn 0.924899 0.037060 0.378402
vn -0.924008 0.382365 0.002409
vn -0.924008 0.382365 -0.002409
vn -0.998632 0.051922 -0.006186
vn -0.382162 0.924083 0.004807
vn -0.007049 0.999955 0.006419
vn -0.007049 0.999955 -0.006419
vn -0.382162 0.924083 -0.004807
vn -0.005813 0.924124 0.382048
vn 0.005813 0.924124 0.382048
vn 0.007049 0.999955 0.006419
vn -0.003536 0.382294 0.924034
vn 0.003536 0.382294 0.924034
vn 0.382160 0.924083 0.004806
vn 0.382161 0.924083 -0.004806
vn 0.007049 0.999955 -0.006419
vn 0.923940 0.382530 0.002410
vn 0.998631 0.051948 -0.006189
vn 0.923940 0.382530 -0.002410
vn -0.924972 0.037049 -0.378226
vn -0.924972 -0.037048 -0.378226
vn -0.378733 0.033501 -0.924900
vn -0.006851 0.051956 -0.998626
vn -0.006851 -0.051956 -0.998626
vn -0.378733 -0.033502 -0.924899
vn -0.003536 0.382273 -0.924042
vn 0.003536 0.382273 -0.924042
vn 0.006851 0.051956 -0.998626
vn -0.005813 0.924131 -0.382031
vn 0.005813 0.924131 -0.382031
vn 0.378731 0.033502 -0.924900
vn 0.378732 -0.033501 -0.924900
vn 0.006851 -0.051956 -0.998626
vn 0.924906 0.037059 -0.378385
vn 0.924906 -0.037059 -0.378385
vn -0.005814 -0.924139 -0.382013
vn 0.005813 -0.924139 -0.382013
vn -0.003536 -0.382274 -0.924042
vn 0.003536 -0.382274 -0.924042
vn -0.887961 -0.325209 0.325215
vn -0.325261 -0.887926 0.325258
vn -0.325257 -0.325244 0.887932
vn 0.325262 -0.887929 0.325248
vn 0.887896 -0.325298 0.325303
vn 0.325259 -0.325247 0.887931
vn -0.325262 0.887929 0.325248
vn -0.887965 0.325204 0.325209
vn -0.325235 0.325239 0.887942
vn 0.887899 0.325295 0.325299
vn 0.325264 0.887934 0.325233
vn 0.325243 0.325240 0.887939
vn -0.325253 0.325249 -0.887932
vn -0.887963 0.325213 -0.325204
vn -0.325270 0.887927 -0.325245
vn 0.887897 0.325304 -0.325293
vn 0.325249 0.325252 -0.887933
vn 0.325273 0.887936 -0.325219
vn -0.325271 -0.887929 -0.325239
vn -0.887964 -0.325211 -0.325204
vn -0.325257 -0.325258 -0.887927
vn 0.887897 -0.325304 -0.325293
vn 0.325269 -0.887926 -0.325249
vn 0.325252 -0.325259 -0.887929
s 1
g Cojinsilla3 Sofas group19
usemtl initialShadingGroup
f 2/11/1 1/1/2 37/4/3 42/12/4
s 2
f 1/1/5 6/2/6 38/3/7 37/4/8
s 3
f 4/49/9 3/50/10 11/51/11 10/52/12
s 1
f 3/50/13 2/55/1 12/56/14 11/51/15
s 2
f 6/2/6 5/5/16 15/13/17 14/7/18
s 3
f 5/53/19 4/49/9 16/60/20 15/61/21
s 4
f 8/21/22 7/22/23 43/23/24 48/24/25
s 1
f 7/22/26 12/27/14 44/28/27 43/23/28
s 3
f 10/52/12 9/57/29 23/64/30 22/59/31
s 4
f 9/25/32 8/21/22 24/32/33 23/33/34
s 2
f 14/7/18 13/14/35 27/15/36 26/8/37
s 5
f 13/14/38 18/18/39 28/19/40 27/15/41
f 18/69/39 17/65/42 21/66/43 20/70/44
s 3
f 17/65/45 16/60/20 22/59/31 21/66/46
s 5
f 20/39/44 19/35/47 35/36/48 34/40/49
s 4
f 19/35/50 24/32/33 36/31/51 35/36/52
s 2
f 26/8/37 25/16/53 39/9/54 38/3/7
s 6
f 25/73/55 30/74/56 40/75/57 39/76/58
f 30/74/56 29/77/59 33/83/60 32/79/61
s 5
f 29/77/62 28/85/40 34/91/49 33/83/63
s 6
f 32/79/61 31/86/64 47/87/65 46/80/66
s 4
f 31/34/67 36/31/51 48/24/25 47/29/68
s 1
f 42/89/4 41/81/69 45/88/70 44/94/27
s 6
f 41/81/71 40/75/57 46/80/66 45/88/72
s 3
f 4/49/9 10/52/12 22/59/31 16/60/20
s 5
f 18/41/39 20/42/44 34/43/49 28/44/40
s 6
f 30/74/56 32/79/61 46/80/66 40/75/57
s 1
f 42/45/4 44/46/27 12/47/14 2/48/1
s 4
f 8/21/22 48/24/25 36/31/51 24/32/33
s 2
f 38/3/7 6/2/6 14/7/18 26/8/37
f 5/5/16 6/2/6 1/1/5 49/6/73
s 1
f 1/62/2 2/55/1 3/50/13 49/54/74
s 3
f 3/50/10 4/49/9 5/53/19 49/54/75
s 1
f 11/51/15 12/56/14 7/63/26 50/58/76
s 4
f 7/22/23 8/21/22 9/25/32 50/26/77
s 3
f 9/57/29 10/52/12 11/51/11 50/58/78
s 5
f 17/65/42 18/69/39 13/71/38 51/67/79
s 2
f 13/14/35 14/7/18 15/13/17 51/17/80
s 3
f 15/61/21 16/60/20 17/65/45 51/67/81
s 4
f 23/33/34 24/32/33 19/35/50 52/37/82
s 5
f 19/72/47 20/70/44 21/66/43 52/68/83
s 3
f 21/66/46 22/59/31 23/64/30 52/68/84
s 6
f 29/77/59 30/74/56 25/73/55 53/78/85
s 2
f 25/16/53 26/8/37 27/15/36 53/20/86
s 5
f 27/84/41 28/85/40 29/77/62 53/78/87
s 4
f 35/36/52 36/31/51 31/34/67 54/38/88
s 6
f 31/86/64 32/79/61 33/83/60 54/92/89
s 5
f 33/83/63 34/91/49 35/95/48 54/92/90
s 1
f 41/81/69 42/89/4 37/90/3 55/82/91
s 2
f 37/4/8 38/3/7 39/9/54 55/10/92
s 6
f 39/76/58 40/75/57 41/81/71 55/82/93
s 4
f 47/29/68 48/24/25 43/23/24 56/30/94
s 1
f 43/96/28 44/94/27 45/88/70 56/93/95
s 6
f 45/88/72 46/80/66 47/87/65 56/93/96
g default
v -73.961633 0.520003 -17.759425
v -73.905633 0.496808 -17.759425
v -73.905633 0.520003 -17.703424
v -73.905633 0.576002 -17.680230
v -73.961633 0.576002 -17.703424
v -73.984826 0.576002 -17.759425
v -71.257810 0.520003 -17.759425
v -71.234617 0.576002 -17.759425
v -71.257810 0.576002 -17.703424
v -71.313810 0.576002 -17.680230
v -71.313810 0.520003 -17.703424
v -71.313810 0.496808 -17.759425
v -73.961633 1.001631 -17.759425
v -73.984826 0.945631 -17.759425
v -73.961633 0.945631 -17.703424
v -73.905633 0.945631 -17.680230
v -73.905633 1.001631 -17.703424
v -73.905633 1.024826 -17.759425
v -71.257810 1.001631 -17.759425
v -71.313810 1.024826 -17.759425
v -71.313810 1.001631 -17.703424
v -71.313810 0.945631 -17.680230
v -71.257810 0.945631 -17.703424
v -71.234617 0.945631 -17.759425
v -73.961633 0.945631 -20.686358
v -73.984826 0.945631 -20.630358
v -73.961633 1.001631 -20.630358
v -73.905633 1.024826 -20.630358
v -73.905633 1.001631 -20.686358
v -73.905633 0.945631 -20.709554
v -71.257810 0.945631 -20.686358
v -71.313810 0.945631 -20.709554
v -71.313810 1.001631 -20.686358
v -71.313810 1.024826 -20.630358
v -71.257810 1.001631 -20.630358
v -71.234617 0.945631 -20.630358
v -73.961633 0.520003 -20.630358
v -73.984826 0.576002 -20.630358
v -73.961633 0.576002 -20.686358
v -73.905633 0.576002 -20.709554
v -73.905633 0.520003 -20.686358
v -73.905633 0.496808 -20.630358
v -71.257810 0.520003 -20.630358
v -71.313810 0.496808 -20.630358
v -71.313810 0.520003 -20.686358
v -71.313810 0.576002 -20.709554
v -71.257810 0.576002 -20.686358
v -71.234617 0.576002 -20.630358
v -73.951341 0.530295 -17.713716
v -71.268102 0.530295 -17.713716
v -73.951341 0.991339 -17.713716
v -71.268102 0.991339 -17.713716
v -73.951341 0.991339 -20.676066
v -71.268102 0.991339 -20.676066
v -73.951341 0.530295 -20.676066
v -71.268102 0.530295 -20.676066
vt 0.279563 0.918006
vt 0.279479 0.920963
vt 0.139294 0.920956
vt 0.139211 0.917996
vt 0.282436 0.920872
vt 0.281954 0.918490
vt 0.279481 0.939015
vt 0.139296 0.939009
vt 0.136356 0.920865
vt 0.136828 0.918482
vt 0.279564 0.915045
vt 0.139212 0.915035
vt 0.282419 0.939106
vt 0.279564 0.941975
vt 0.139211 0.941965
vt 0.136339 0.939100
vt 0.281947 0.941489
vt 0.279563 0.944936
vt 0.139211 0.944926
vt 0.136821 0.941482
vt 0.290779 0.920971
vt 0.290696 0.918011
vt 0.431049 0.918007
vt 0.430965 0.920963
vt 0.287841 0.920880
vt 0.288313 0.918497
vt 0.290697 0.915050
vt 0.431049 0.915046
vt 0.433922 0.920872
vt 0.433439 0.918490
vt 0.430969 0.939016
vt 0.290783 0.939023
vt 0.287826 0.939114
vt 0.433907 0.939106
vt 0.290699 0.941980
vt 0.431051 0.941976
vt 0.288308 0.941496
vt 0.433435 0.941490
vt 0.290699 0.944941
vt 0.431051 0.944937
vt 0.641296 0.375438
vt 0.767895 0.375414
vt 0.767921 0.515646
vt 0.641323 0.515670
vt 0.000000 0.607601
vt 0.126599 0.607577
vt 0.126625 0.747808
vt 0.000027 0.747832
vt 0.940109 0.129764
vt 0.937154 0.129768
vt 0.937123 0.003178
vt 0.940078 0.003185
vt 0.939916 0.132687
vt 0.937388 0.132072
vt 0.934196 0.129931
vt 0.934172 0.003016
vt 0.939879 0.000226
vt 0.937355 0.000866
vt 0.958130 0.003175
vt 0.958161 0.129754
vt 0.958360 0.132713
vt 0.935149 0.132937
vt 0.935117 0.000007
vt 0.958323 0.000253
vt 0.961116 0.129761
vt 0.961085 0.003171
vt 0.960884 0.132073
vt 0.960850 0.000867
vt 0.964067 0.129923
vt 0.964043 0.003008
vt 0.963122 0.132932
vt 0.963090 0.000002
vt 0.949990 0.271184
vt 0.950184 0.268261
vt 0.968236 0.268256
vt 0.968434 0.271215
vt 0.947229 0.268264
vt 0.947463 0.270569
vt 0.950185 0.141682
vt 0.968237 0.141677
vt 0.971191 0.268264
vt 0.970958 0.270576
vt 0.947230 0.141674
vt 0.945223 0.271433
vt 0.944271 0.268427
vt 0.949987 0.138723
vt 0.968431 0.138754
vt 0.971192 0.141674
vt 0.974142 0.268427
vt 0.973196 0.271435
vt 0.944279 0.141511
vt 0.947463 0.139362
vt 0.970958 0.139369
vt 0.974150 0.141511
vt 0.945225 0.138502
vt 0.973198 0.138505
vn -0.008667 -0.999932 0.007831
vn -0.382009 -0.924140 0.005880
vn -0.382009 -0.924140 -0.005880
vn -0.008667 -0.999932 -0.007831
vn -0.924025 -0.382321 0.002952
vn -0.998508 -0.054080 0.007550
vn -0.998508 -0.054080 -0.007550
vn -0.924025 -0.382321 -0.002952
vn -0.008426 -0.054116 0.998499
vn -0.004363 -0.382173 0.924080
vn 0.004363 -0.382173 0.924080
vn 0.008426 -0.054116 0.998499
vn -0.007162 -0.924192 0.381860
vn 0.008667 -0.999932 0.007831
vn 0.007162 -0.924192 0.381860
vn -0.924982 -0.038673 0.378038
vn -0.924981 0.038672 0.378039
vn -0.998508 0.054080 0.007550
vn -0.378521 -0.034981 0.924931
vn -0.008426 0.054116 0.998499
vn -0.378521 0.034981 0.924931
vn 0.998508 -0.054080 0.007550
vn 0.924025 -0.382320 0.002952
vn 0.924025 -0.382320 -0.002952
vn 0.998508 -0.054080 -0.007550
vn 0.382009 -0.924140 0.005880
vn 0.008667 -0.999932 -0.007831
vn 0.382009 -0.924140 -0.005880
vn 0.378521 -0.034980 0.924932
vn 0.378521 0.034980 0.924931
vn 0.008426 0.054116 0.998499
vn 0.924982 -0.038673 0.378038
vn 0.998508 0.054080 0.007550
vn 0.924981 0.038673 0.378039
vn -0.924027 0.382316 0.002952
vn -0.924027 0.382316 -0.002952
vn -0.998508 0.054080 -0.007550
vn -0.382009 0.924140 0.005880
vn -0.008667 0.999932 0.007831
vn -0.008667 0.999932 -0.007831
vn -0.382009 0.924140 -0.005880
vn -0.007162 0.924192 0.381860
vn 0.007163 0.924193 0.381860
vn 0.008667 0.999932 0.007831
vn -0.004363 0.382169 0.924082
vn 0.004363 0.382169 0.924082
vn 0.382009 0.924140 0.005880
vn 0.382009 0.924140 -0.005880
vn 0.008667 0.999932 -0.007831
vn 0.924028 0.382314 0.002952
vn 0.998508 0.054080 -0.007550
vn 0.924028 0.382314 -0.002952
vn -0.924978 0.038673 -0.378047
vn -0.924979 -0.038673 -0.378046
vn -0.378542 0.034982 -0.924923
vn -0.008426 0.054119 -0.998499
vn -0.008426 -0.054119 -0.998499
vn -0.378542 -0.034982 -0.924923
vn -0.004363 0.382189 -0.924074
vn 0.004363 0.382189 -0.924074
vn 0.008426 0.054119 -0.998499
vn -0.007162 0.924191 -0.381864
vn 0.007162 0.924191 -0.381864
vn 0.378542 0.034982 -0.924923
vn 0.378541 -0.034982 -0.924923
vn 0.008426 -0.054119 -0.998499
vn 0.924978 0.038673 -0.378047
vn 0.924979 -0.038673 -0.378046
vn -0.007162 -0.924191 -0.381864
vn 0.007162 -0.924191 -0.381864
vn -0.004363 -0.382193 -0.924072
vn 0.004363 -0.382193 -0.924072
vn -0.887937 -0.325250 0.325240
vn -0.325261 -0.887926 0.325259
vn -0.325249 -0.325262 0.887929
vn 0.325263 -0.887926 0.325257
vn 0.887937 -0.325249 0.325239
vn 0.325245 -0.325260 0.887931
vn -0.325271 0.887923 0.325255
vn -0.887933 0.325246 0.325254
vn -0.325251 0.325258 0.887929
vn 0.887932 0.325249 0.325255
vn 0.325272 0.887924 0.325251
vn 0.325250 0.325255 0.887931
vn -0.325264 0.325267 -0.887921
vn -0.887933 0.325245 -0.325255
vn -0.325268 0.887924 -0.325256
vn 0.887934 0.325243 -0.325254
vn 0.325264 0.325269 -0.887921
vn 0.325268 0.887922 -0.325261
vn -0.325261 -0.887925 -0.325262
vn -0.887936 -0.325247 -0.325243
vn -0.325265 -0.325271 -0.887920
vn 0.887938 -0.325246 -0.325241
vn 0.325260 -0.887924 -0.325264
vn 0.325260 -0.325273 -0.887921
s 1
g Sofas group19 SofaBase3
usemtl initialShadingGroup
f 58/107/97 57/97/98 93/100/99 98/108/100
s 2
f 57/97/101 62/98/102 94/99/103 93/100/104
s 3
f 60/145/105 59/146/106 67/147/107 66/148/108
s 1
f 59/146/109 58/151/97 68/152/110 67/147/111
s 2
f 62/98/102 61/101/112 71/109/113 70/103/114
s 3
f 61/149/115 60/145/105 72/156/116 71/157/117
s 4
f 64/117/118 63/118/119 99/119/120 104/120/121
s 1
f 63/118/122 68/123/110 100/124/123 99/119/124
s 3
f 66/148/108 65/153/125 79/160/126 78/155/127
s 4
f 65/121/128 64/117/118 80/128/129 79/129/130
s 2
f 70/103/114 69/110/131 83/111/132 82/104/133
s 5
f 69/110/134 74/114/135 84/115/136 83/111/137
f 74/165/135 73/161/138 77/162/139 76/166/140
s 3
f 73/161/141 72/156/116 78/155/127 77/162/142
s 5
f 76/135/140 75/131/143 91/132/144 90/136/145
s 4
f 75/131/146 80/128/129 92/127/147 91/132/148
s 2
f 82/104/133 81/112/149 95/105/150 94/99/103
s 6
f 81/169/151 86/170/152 96/171/153 95/172/154
f 86/170/152 85/173/155 89/179/156 88/175/157
s 5
f 85/173/158 84/181/136 90/187/145 89/179/159
s 6
f 88/175/157 87/182/160 103/183/161 102/176/162
s 4
f 87/130/163 92/127/147 104/120/121 103/125/164
s 1
f 98/185/100 97/177/165 101/184/166 100/190/123
s 6
f 97/177/167 96/171/153 102/176/162 101/184/168
s 3
f 60/145/105 66/148/108 78/155/127 72/156/116
s 5
f 74/137/135 76/138/140 90/139/145 84/140/136
s 6
f 86/170/152 88/175/157 102/176/162 96/171/153
s 1
f 98/141/100 100/142/123 68/143/110 58/144/97
s 4
f 64/117/118 104/120/121 92/127/147 80/128/129
s 2
f 94/99/103 62/98/102 70/103/114 82/104/133
f 61/101/112 62/98/102 57/97/101 105/102/169
s 1
f 57/158/98 58/151/97 59/146/109 105/150/170
s 3
f 59/146/106 60/145/105 61/149/115 105/150/171
s 1
f 67/147/111 68/152/110 63/159/122 106/154/172
s 4
f 63/118/119 64/117/118 65/121/128 106/122/173
s 3
f 65/153/125 66/148/108 67/147/107 106/154/174
s 5
f 73/161/138 74/165/135 69/167/134 107/163/175
s 2
f 69/110/131 70/103/114 71/109/113 107/113/176
s 3
f 71/157/117 72/156/116 73/161/141 107/163/177
s 4
f 79/129/130 80/128/129 75/131/146 108/133/178
s 5
f 75/168/143 76/166/140 77/162/139 108/164/179
s 3
f 77/162/142 78/155/127 79/160/126 108/164/180
s 6
f 85/173/155 86/170/152 81/169/151 109/174/181
s 2
f 81/112/149 82/104/133 83/111/132 109/116/182
s 5
f 83/180/137 84/181/136 85/173/158 109/174/183
s 4
f 91/132/148 92/127/147 87/130/163 110/134/184
s 6
f 87/182/160 88/175/157 89/179/156 110/188/185
s 5
f 89/179/159 90/187/145 91/191/144 110/188/186
s 1
f 97/177/165 98/185/100 93/186/99 111/178/187
s 2
f 93/100/104 94/99/103 95/105/150 111/106/188
s 6
f 95/172/154 96/171/153 97/177/167 111/178/189
s 4
f 103/125/164 104/120/121 99/119/120 112/126/190
s 1
f 99/192/124 100/190/123 101/184/166 112/189/191
s 6
f 101/184/168 102/176/162 103/183/161 112/189/192
