# This file uses centimeters as units for non-parametric coordinates.

mtllib ElevatorDoor2.mtl
g default
v -57.750729 0.268390 -21.907164
v -56.350729 0.268390 -21.907164
v -57.750729 4.446538 -21.907164
v -56.350729 4.446538 -21.907164
v -57.750729 4.446538 -22.064848
v -56.350729 4.446538 -22.064848
v -57.750729 0.268390 -22.064848
v -56.350729 0.268390 -22.064848
vt 0.970791 0.972021
vt 0.970791 0.983298
vt 0.671982 0.983319
vt 0.671981 0.972042
vt 0.984888 0.988702
vt 0.984889 0.999979
vt 0.686079 1.000000
vt 0.686079 0.988723
vt 0.173869 0.100124
vt 0.173878 0.000000
vt 0.185155 0.000001
vt 0.185146 0.100125
vt 0.028196 0.105656
vt 0.128320 0.105664
vt 0.128319 0.116942
vt 0.028195 0.116933
vt 0.298827 0.673197
vt 0.298809 0.773321
vt 0.000000 0.773268
vt 0.000018 0.673144
vt 0.094036 0.348718
vt 0.194160 0.348735
vt 0.194107 0.647545
vt 0.093983 0.647527
vn 0.000000 0.000000 1.000000
vn 0.000000 0.000000 1.000000
vn 0.000000 0.000000 1.000000
vn 0.000000 0.000000 1.000000
vn 0.000000 1.000000 0.000000
vn 0.000000 1.000000 0.000000
vn 0.000000 1.000000 0.000000
vn 0.000000 1.000000 0.000000
vn 0.000000 0.000000 -1.000000
vn 0.000000 0.000000 -1.000000
vn 0.000000 0.000000 -1.000000
vn 0.000000 0.000000 -1.000000
vn 0.000000 -1.000000 0.000000
vn 0.000000 -1.000000 0.000000
vn 0.000000 -1.000000 0.000000
vn 0.000000 -1.000000 0.000000
vn 1.000000 0.000000 0.000000
vn 1.000000 0.000000 0.000000
vn 1.000000 0.000000 0.000000
vn 1.000000 0.000000 0.000000
vn -1.000000 0.000000 0.000000
vn -1.000000 0.000000 0.000000
vn -1.000000 0.000000 0.000000
vn -1.000000 0.000000 0.000000
s off
g elevatorDoor1 ElevatorDoors
usemtl initialShadingGroup
f 1/17/1 2/18/2 4/19/3 3/20/4
f 3/9/5 4/10/6 6/11/7 5/12/8
f 5/21/9 6/22/10 8/23/11 7/24/12
f 7/13/13 8/14/14 2/15/15 1/16/16
f 2/1/17 8/2/18 6/3/19 4/4/20
f 7/5/21 1/6/22 3/7/23 5/8/24
