# This file uses centimeters as units for non-parametric coordinates.

mtllib ElevatorFrame.mtl
g default
v -58.099198 0.250302 -21.914272
v -54.646830 0.250302 -21.914272
v -58.099198 4.711660 -21.914272
v -54.646830 4.711660 -21.914272
v -58.099198 4.711660 -22.241545
v -54.646830 4.711660 -22.241545
v -58.099198 0.250302 -22.241545
v -54.646830 0.250302 -22.241545
v -57.774754 0.250302 -21.914272
v -54.971274 0.250302 -21.914272
v -57.774754 4.711660 -21.914272
v -54.971274 4.711660 -21.914272
v -57.774754 4.711660 -22.241545
v -54.971274 4.711660 -22.241545
v -57.774754 0.250302 -22.241545
v -54.971274 0.250302 -22.241545
v -58.099198 4.448869 -21.914272
v -58.099198 4.448868 -22.241545
v -57.774754 4.448869 -22.241545
v -54.971274 4.448868 -22.241545
v -54.646830 4.448868 -22.241545
v -54.646830 4.448869 -21.914272
v -54.971274 4.448869 -21.914272
v -57.774754 4.448869 -21.914272
vt 0.878265 0.843293
vt 0.878267 0.866698
vt 0.577998 0.866727
vt 0.577995 0.843322
vt 0.559203 0.866729
vt 0.559201 0.843324
vt 0.855294 0.000000
vt 0.878699 0.000003
vt 0.878657 0.300273
vt 0.855251 0.300270
vt 0.878654 0.319067
vt 0.855249 0.319064
vt 0.272552 0.884256
vt 0.572821 0.884243
vt 0.572823 0.907649
vt 0.272553 0.907661
vt 0.577998 0.872132
vt 0.878267 0.872119
vt 0.878268 0.895525
vt 0.577999 0.895538
vt 0.704585 0.652105
vt 0.704583 0.628699
vt 0.905080 0.628678
vt 0.905082 0.652083
vt 0.681379 0.628702
vt 0.681382 0.652107
vt 0.928283 0.628675
vt 0.928286 0.652081
vt 0.338340 0.673159
vt 0.538837 0.673142
vt 0.538839 0.696548
vt 0.338342 0.696565
vt 0.023203 0.000030
vt 0.023244 0.300300
vt 0.000041 0.300303
vt 0.000000 0.000033
vt 0.023247 0.319094
vt 0.000043 0.319097
vt 0.223741 0.300273
vt 0.223744 0.319067
vt 0.246944 0.300270
vt 0.246947 0.319064
vt 0.223700 0.000003
vt 0.246904 0.000000
vt 0.477496 0.319067
vt 0.477458 0.018797
vt 0.500661 0.018794
vt 0.500699 0.319064
vt 0.477456 0.000003
vt 0.500659 0.000000
vt 0.276961 0.018823
vt 0.276958 0.000028
vt 0.253755 0.000031
vt 0.253757 0.018826
vt 0.276999 0.319092
vt 0.253796 0.319095
vn 0.000000 0.000000 1.000000
vn 0.000000 0.000000 1.000000
vn 0.000000 0.000000 1.000000
vn 0.000000 0.000000 1.000000
vn 0.000000 1.000000 0.000000
vn 0.000000 1.000000 0.000000
vn 0.000000 1.000000 0.000000
vn 0.000000 1.000000 0.000000
vn 1.000000 0.000000 0.000000
vn 1.000000 0.000000 0.000000
vn 1.000000 0.000000 0.000000
vn 1.000000 0.000000 0.000000
vn -1.000000 0.000000 0.000000
vn -1.000000 0.000000 0.000000
vn -1.000000 0.000000 0.000000
vn -1.000000 0.000000 0.000000
vn 0.000000 0.000000 1.000000
vn 0.000000 0.000000 1.000000
vn 0.000000 0.000000 1.000000
vn 0.000000 0.000000 1.000000
vn 0.000000 1.000000 0.000000
vn 0.000000 1.000000 0.000000
vn 0.000000 0.000000 -1.000000
vn 0.000000 0.000000 -1.000000
vn 0.000000 0.000000 -1.000000
vn 0.000000 0.000000 -1.000000
vn 0.000000 0.000000 -1.000000
vn 0.000000 0.000000 -1.000000
vn 0.000000 0.000000 -1.000000
vn 0.000000 0.000000 -1.000000
vn 0.000000 1.000000 0.000000
vn 0.000000 1.000000 0.000000
vn -1.000000 0.000000 0.000000
vn -1.000000 0.000000 0.000000
vn 0.000000 0.000000 -1.000000
vn 0.000000 0.000000 -1.000000
vn 0.000000 0.000000 -1.000000
vn 0.000000 0.000000 -1.000000
vn 1.000000 0.000000 0.000000
vn 1.000000 0.000000 0.000000
vn 0.000000 0.000000 1.000000
vn 0.000000 0.000000 1.000000
vn 0.000000 0.000000 1.000000
vn 0.000000 0.000000 1.000000
vn 1.000000 0.000000 0.000000
vn 1.000000 0.000000 0.000000
vn 1.000000 0.000000 0.000000
vn 1.000000 0.000000 0.000000
vn -1.000000 0.000000 0.000000
vn -1.000000 0.000000 0.000000
vn -1.000000 0.000000 0.000000
vn -1.000000 0.000000 0.000000
vn -0.000000 -1.000000 0.000002
vn -0.000000 -1.000000 0.000002
vn -0.000000 -1.000000 0.000002
vn -0.000000 -1.000000 0.000002
s 1
g ElevatorFrame ElevatorDoors
usemtl initialShadingGroup
f 9/33/1 24/34/2 17/35/3 1/36/4
s 2
f 13/21/5 11/22/6 12/23/7 14/24/8
s 3
f 2/1/9 8/2/10 21/3/11 22/4/12
s 4
f 7/7/13 1/8/14 17/9/15 18/10/16
s 1
f 22/41/17 23/39/18 10/43/19 2/44/20
s 2
f 14/24/8 12/23/7 4/27/21 6/28/22
s 6
f 16/45/23 20/46/24 21/47/25 8/48/26
f 18/54/27 19/51/28 15/55/29 7/56/30
s 2
f 3/25/31 11/22/6 13/21/5 5/26/32
s 4
f 18/10/16 17/9/15 3/11/33 5/12/34
s 6
f 5/53/35 13/52/36 19/51/28 18/54/27
f 20/46/24 19/51/28 13/52/36 14/49/37
f 21/47/25 20/46/24 14/49/37 6/50/38
s 3
f 22/4/12 21/3/11 6/5/39 4/6/40
s 1
f 12/40/41 23/39/18 22/41/17 4/42/42
f 24/34/2 23/39/18 12/40/41 11/37/43
f 17/35/3 24/34/2 11/37/43 3/38/44
s off
f 15/13/45 19/14/46 24/15/47 9/16/48
f 10/17/49 23/18/50 20/19/51 16/20/52
f 19/29/53 20/30/54 23/31/55 24/32/56
