# This file uses centimeters as units for non-parametric coordinates.

mtllib MetalPipeShort.mtl
g default
v 20.688393 1.818819 9.382528
v 20.889388 1.818819 9.382528
v 20.688393 3.318819 9.382528
v 20.889388 3.318819 9.382528
v 20.688393 3.318819 9.181533
v 20.889388 3.318819 9.181533
v 20.688393 1.818819 9.181533
v 20.889388 1.818819 9.181533
vt 0.851538 0.497720
vt 0.873187 0.497702
vt 0.851669 0.659285
vt 0.873318 0.659268
vt 0.851687 0.680934
vt 0.873336 0.680917
vt 0.851818 0.842500
vt 0.873467 0.842482
vt 0.851835 0.864149
vt 0.873484 0.864132
vt 0.894837 0.497684
vt 0.894968 0.659250
vt 0.829889 0.497737
vt 0.830020 0.659303
vn 0.000000 0.000000 1.000000
vn 0.000000 0.000000 1.000000
vn 0.000000 0.000000 1.000000
vn 0.000000 0.000000 1.000000
vn 0.000000 1.000000 0.000000
vn 0.000000 1.000000 0.000000
vn 0.000000 1.000000 0.000000
vn 0.000000 1.000000 0.000000
vn 0.000000 0.000000 -1.000000
vn 0.000000 0.000000 -1.000000
vn 0.000000 0.000000 -1.000000
vn 0.000000 0.000000 -1.000000
vn 0.000000 -1.000000 0.000000
vn 0.000000 -1.000000 0.000000
vn 0.000000 -1.000000 0.000000
vn 0.000000 -1.000000 0.000000
vn 1.000000 0.000000 0.000000
vn 1.000000 0.000000 0.000000
vn 1.000000 0.000000 0.000000
vn 1.000000 0.000000 0.000000
vn -1.000000 0.000000 0.000000
vn -1.000000 0.000000 0.000000
vn -1.000000 0.000000 0.000000
vn -1.000000 0.000000 0.000000
s off
g pCube259
usemtl initialShadingGroup
f 1/1/1 2/2/2 4/4/3 3/3/4
f 3/3/5 4/4/6 6/6/7 5/5/8
f 5/5/9 6/6/10 8/8/11 7/7/12
f 7/7/13 8/8/14 2/10/15 1/9/16
f 2/2/17 8/11/18 6/12/19 4/4/20
f 7/13/21 1/1/22 3/3/23 5/14/24
