# This file uses centimeters as units for non-parametric coordinates.

mtllib MetalPipeMiddle.mtl
g default
v 19.904210 1.876981 9.382528
v 20.105205 1.876981 9.382528
v 19.904210 6.876981 9.382528
v 20.105205 6.876981 9.382528
v 19.904210 6.876981 9.181533
v 20.105205 6.876981 9.181533
v 19.904210 1.876981 9.181533
v 20.105205 1.876981 9.181533
vt 0.768839 0.320547
vt 0.781911 0.320615
vt 0.767151 0.645725
vt 0.780223 0.645793
vt 0.767083 0.658797
vt 0.780155 0.658865
vt 0.765396 0.983975
vt 0.778468 0.984043
vt 0.765328 0.997047
vt 0.778400 0.997115
vt 0.794982 0.320682
vt 0.793295 0.645861
vt 0.755767 0.320479
vt 0.754079 0.645657
vn 0.000000 0.000000 1.000000
vn 0.000000 0.000000 1.000000
vn 0.000000 0.000000 1.000000
vn 0.000000 0.000000 1.000000
vn 0.000000 1.000000 0.000000
vn 0.000000 1.000000 0.000000
vn 0.000000 1.000000 0.000000
vn 0.000000 1.000000 0.000000
vn 0.000000 0.000000 -1.000000
vn 0.000000 0.000000 -1.000000
vn 0.000000 0.000000 -1.000000
vn 0.000000 0.000000 -1.000000
vn 0.000000 -1.000000 0.000000
vn 0.000000 -1.000000 0.000000
vn 0.000000 -1.000000 0.000000
vn 0.000000 -1.000000 0.000000
vn 1.000000 0.000000 0.000000
vn 1.000000 0.000000 0.000000
vn 1.000000 0.000000 0.000000
vn 1.000000 0.000000 0.000000
vn -1.000000 0.000000 0.000000
vn -1.000000 0.000000 0.000000
vn -1.000000 0.000000 0.000000
vn -1.000000 0.000000 0.000000
s off
g pCube260
usemtl initialShadingGroup
f 1/1/1 2/2/2 4/4/3 3/3/4
f 3/3/5 4/4/6 6/6/7 5/5/8
f 5/5/9 6/6/10 8/8/11 7/7/12
f 7/7/13 8/8/14 2/10/15 1/9/16
f 2/2/17 8/11/18 6/12/19 4/4/20
f 7/13/21 1/1/22 3/3/23 5/14/24
