# This file uses centimeters as units for non-parametric coordinates.

mtllib Viga1.mtl
g default
v 2.148707 0.257553 11.504633
v 2.230097 0.257553 11.504633
v 2.148707 7.077479 11.504633
v 2.230097 7.077479 11.504633
v 2.148707 7.077479 10.682152
v 2.230097 7.077479 10.682152
v 2.148707 0.257553 10.682152
v 2.230097 0.257553 10.682152
v 2.148707 7.077479 11.396835
v 2.148707 7.077479 10.789949
v 2.148707 0.257553 10.789949
v 2.148707 0.257553 11.396835
v 2.230097 0.257553 10.789949
v 2.230097 0.257553 11.396835
v 2.230097 7.077479 11.396835
v 2.230097 7.077479 10.789949
v 2.453305 0.257553 11.396835
v 2.453305 0.257553 11.504633
v 2.453305 7.077479 11.396835
v 2.453305 7.077479 11.504633
v 1.918446 0.257553 10.682152
v 1.918446 0.257553 10.789949
v 1.918446 7.077479 10.789949
v 1.918446 7.077479 10.682152
v 2.453305 7.077479 10.789949
v 2.453305 0.257553 10.789949
v 2.453305 0.257553 10.682152
v 2.453305 7.077479 10.682152
v 1.918446 0.257553 11.396835
v 1.918446 0.257553 11.504633
v 1.918446 7.077479 11.504633
v 1.918446 7.077479 11.396835
vt 0.882914 0.295501
vt 0.928476 0.273516
vt 0.888388 0.604712
vt 0.975456 0.274077
vt 0.943051 0.273920
vt 0.920538 0.605517
vt 0.938145 0.277587
vt 0.949358 0.605534
vt 0.945848 0.296294
vt 0.891231 0.277668
vt 0.923634 0.277266
vt 0.911734 0.295335
vt 0.896725 0.295422
vt 0.923464 0.263456
vt 0.903397 0.604626
vt 0.975390 0.287888
vt 0.858929 0.604882
vt 0.975308 0.296311
vt 0.959979 0.296303
vt 0.896248 0.288047
vt 0.964687 0.605543
vt 0.938214 0.263456
vt 0.896073 0.273917
vt 0.942984 0.287731
vt 0.930839 0.296286
vt 0.891060 0.263857
vt 0.935547 0.605526
vt 0.970551 0.277744
vt 0.867586 0.295590
vt 0.928651 0.287646
vt 0.874257 0.604794
vt 0.970619 0.263613
vt 0.970569 0.274053
vt 0.869369 0.604822
vt 0.884697 0.604734
vt 0.975507 0.263636
vt 0.945668 0.605532
vt 0.938096 0.287708
vt 0.930659 0.605523
vt 0.943033 0.277610
vt 0.938163 0.273896
vt 0.959799 0.605540
vt 0.821454 0.603937
vt 0.943102 0.263479
vt 0.975439 0.277767
vt 0.898509 0.604654
vt 0.785908 0.604171
vt 0.970502 0.287865
vt 0.923764 0.287706
vt 0.850387 0.294829
vt 0.928522 0.277206
vt 0.872474 0.295561
vt 0.891185 0.273977
vt 0.935727 0.296288
vt 0.812174 0.294824
vt 0.895947 0.263797
vt 0.891360 0.288107
vt 0.949538 0.296297
vt 0.896118 0.277607
vt 0.964867 0.296305
vt 0.928351 0.263395
vt 0.886605 0.295480
vt 0.923589 0.273576
vt 0.901613 0.295393
vt 0.920718 0.296280
vt 0.813426 0.604059
vt 0.913517 0.604567
vt 0.784657 0.294936
vt 0.975128 0.605549
vt 0.822869 0.294702
vt 0.857145 0.295650
vt 0.848972 0.604063
vn 0.000000 0.000000 1.000000
vn 0.000000 0.000000 1.000000
vn 0.000000 0.000000 1.000000
vn 0.000000 0.000000 1.000000
vn 0.000000 1.000000 0.000000
vn 0.000000 1.000000 0.000000
vn 0.000000 1.000000 0.000000
vn 0.000000 1.000000 0.000000
vn 0.000000 0.000000 -1.000000
vn 0.000000 0.000000 -1.000000
vn 0.000000 0.000000 -1.000000
vn 0.000000 0.000000 -1.000000
vn 0.000000 -1.000000 0.000000
vn 0.000000 -1.000000 0.000000
vn 0.000000 -1.000000 0.000000
vn 0.000000 -1.000000 0.000000
vn 1.000000 0.000000 0.000000
vn 1.000000 0.000000 0.000000
vn 1.000000 0.000000 0.000000
vn 1.000000 0.000000 0.000000
vn -1.000000 0.000000 0.000000
vn -1.000000 0.000000 0.000000
vn -1.000000 0.000000 0.000000
vn -1.000000 0.000000 0.000000
vn -1.000000 0.000000 0.000000
vn -1.000000 0.000000 0.000000
vn -1.000000 0.000000 0.000000
vn -1.000000 0.000000 0.000000
vn 0.000000 -1.000000 0.000000
vn 0.000000 -1.000000 0.000000
vn 0.000000 -1.000000 0.000000
vn 0.000000 -1.000000 0.000000
vn 1.000000 0.000000 0.000000
vn 1.000000 0.000000 0.000000
vn 1.000000 0.000000 0.000000
vn 1.000000 0.000000 0.000000
vn 1.000000 0.000000 0.000000
vn 1.000000 0.000000 0.000000
vn 1.000000 0.000000 0.000000
vn 1.000000 0.000000 0.000000
vn 0.000000 -1.000000 0.000000
vn 0.000000 -1.000000 0.000000
vn 0.000000 -1.000000 0.000000
vn 0.000000 -1.000000 0.000000
vn 0.000000 1.000000 0.000000
vn 0.000000 1.000000 0.000000
vn 0.000000 1.000000 0.000000
vn 0.000000 1.000000 0.000000
vn -1.000000 0.000000 0.000000
vn -1.000000 0.000000 0.000000
vn -1.000000 0.000000 0.000000
vn -1.000000 0.000000 0.000000
vn 0.000000 1.000000 0.000000
vn 0.000000 1.000000 0.000000
vn 0.000000 1.000000 0.000000
vn 0.000000 1.000000 0.000000
vn 0.000000 -1.000000 0.000000
vn 0.000000 -1.000000 0.000000
vn 0.000000 -1.000000 0.000000
vn 0.000000 -1.000000 0.000000
vn 0.000000 0.000000 -1.000000
vn 0.000000 0.000000 -1.000000
vn 0.000000 0.000000 -1.000000
vn 0.000000 0.000000 -1.000000
vn 0.000000 1.000000 0.000000
vn 0.000000 1.000000 0.000000
vn 0.000000 1.000000 0.000000
vn 0.000000 1.000000 0.000000
vn 0.000000 0.000000 1.000000
vn 0.000000 0.000000 1.000000
vn 0.000000 0.000000 1.000000
vn 0.000000 0.000000 1.000000
vn 0.000000 -1.000000 0.000000
vn 0.000000 -1.000000 0.000000
vn 0.000000 -1.000000 0.000000
vn 0.000000 -1.000000 0.000000
vn 0.000000 0.000000 1.000000
vn 0.000000 0.000000 1.000000
vn 0.000000 0.000000 1.000000
vn 0.000000 0.000000 1.000000
vn 0.000000 1.000000 0.000000
vn 0.000000 1.000000 0.000000
vn 0.000000 1.000000 0.000000
vn 0.000000 1.000000 0.000000
vn 0.000000 0.000000 -1.000000
vn 0.000000 0.000000 -1.000000
vn 0.000000 0.000000 -1.000000
vn 0.000000 0.000000 -1.000000
vn 0.000000 0.000000 1.000000
vn 0.000000 0.000000 1.000000
vn 0.000000 0.000000 1.000000
vn 0.000000 0.000000 1.000000
vn 0.000000 -1.000000 0.000000
vn 0.000000 -1.000000 0.000000
vn 0.000000 -1.000000 0.000000
vn 0.000000 -1.000000 0.000000
vn 0.000000 0.000000 -1.000000
vn 0.000000 0.000000 -1.000000
vn 0.000000 0.000000 -1.000000
vn 0.000000 0.000000 -1.000000
vn 0.000000 1.000000 0.000000
vn 0.000000 1.000000 0.000000
vn 0.000000 1.000000 0.000000
vn 0.000000 1.000000 0.000000
vn 0.000000 -1.000000 0.000000
vn 0.000000 -1.000000 0.000000
vn 0.000000 -1.000000 0.000000
vn 0.000000 -1.000000 0.000000
vn 0.000000 0.000000 1.000000
vn 0.000000 0.000000 1.000000
vn 0.000000 0.000000 1.000000
vn 0.000000 0.000000 1.000000
vn 0.000000 1.000000 0.000000
vn 0.000000 1.000000 0.000000
vn 0.000000 1.000000 0.000000
vn 0.000000 1.000000 0.000000
vn 0.000000 0.000000 -1.000000
vn 0.000000 0.000000 -1.000000
vn 0.000000 0.000000 -1.000000
vn 0.000000 0.000000 -1.000000
s off
g Viga10 Vigas Tanque_de_agua
usemtl aiStandardSurface3SG
f 1/1/1 2/62/2 4/3/3 3/35/4
f 10/5/5 16/40/6 6/7/7 5/41/8
f 5/8/9 6/37/10 8/9/11 7/58/12
f 12/11/13 14/63/14 2/2/15 1/51/16
f 18/13/17 17/64/18 19/15/19 20/46/20
f 12/50/21 9/72/22 10/43/23 11/70/24
f 21/19/25 22/60/26 23/21/27 24/42/28
f 7/10/29 8/53/30 13/23/31 11/59/32
f 25/39/33 26/25/34 27/54/35 28/27/36
f 15/47/37 14/68/38 13/55/39 16/66/40
f 11/59/41 13/23/42 14/63/43 12/11/44
f 9/33/45 15/28/46 16/40/47 10/5/48
f 29/29/49 30/52/50 31/31/51 32/34/52
f 3/4/53 4/45/54 15/28/55 9/33/56
f 2/2/57 14/63/58 17/14/59 18/61/60
f 14/12/61 15/67/62 19/15/63 17/64/64
f 15/28/65 4/45/66 20/16/67 19/48/68
f 4/3/69 2/62/70 18/13/71 20/46/72
f 7/10/73 11/59/74 22/20/75 21/57/76
f 11/18/77 10/69/78 23/21/79 22/60/80
f 10/5/81 5/41/82 24/22/83 23/44/84
f 5/8/85 7/58/86 21/19/87 24/42/88
f 16/6/89 13/65/90 26/25/91 25/39/92
f 13/23/93 8/53/94 27/26/95 26/56/96
f 8/9/97 6/37/98 28/27/99 27/54/100
f 6/7/101 16/40/102 25/24/103 28/38/104
f 12/11/105 1/51/106 30/30/107 29/49/108
f 1/1/109 3/35/110 31/31/111 30/52/112
f 3/4/113 9/33/114 32/32/115 31/36/116
f 9/17/117 12/71/118 29/29/119 32/34/120
