# This file uses centimeters as units for non-parametric coordinates.

mtllib Viga2.mtl
g default
v 3.327614 0.257553 11.414947
v 3.409004 0.257553 11.414947
v 3.327614 7.077479 11.414947
v 3.409004 7.077479 11.414947
v 3.327614 7.077479 10.592465
v 3.409004 7.077479 10.592465
v 3.327614 0.257553 10.592465
v 3.409004 0.257553 10.592465
v 3.327614 7.077479 11.307149
v 3.327614 7.077479 10.700263
v 3.327614 0.257553 10.700263
v 3.327614 0.257553 11.307149
v 3.409004 0.257553 10.700263
v 3.409004 0.257553 11.307149
v 3.409004 7.077479 11.307149
v 3.409004 7.077479 10.700263
v 3.632212 0.257553 11.307149
v 3.632212 0.257553 11.414947
v 3.632212 7.077479 11.307149
v 3.632212 7.077479 11.414947
v 3.097353 0.257553 10.592465
v 3.097353 0.257553 10.700263
v 3.097353 7.077479 10.700263
v 3.097353 7.077479 10.592465
v 3.632212 7.077479 10.700263
v 3.632212 0.257553 10.700263
v 3.632212 0.257553 10.592465
v 3.632212 7.077479 10.592465
v 3.097353 0.257553 11.307149
v 3.097353 0.257553 11.414947
v 3.097353 7.077479 11.414947
v 3.097353 7.077479 11.307149
vt 0.886851 0.671667
vt 0.932413 0.649681
vt 0.892325 0.980878
vt 0.979394 0.650242
vt 0.946988 0.650085
vt 0.924475 0.981683
vt 0.942082 0.653752
vt 0.953295 0.981699
vt 0.949785 0.672460
vt 0.895168 0.653833
vt 0.927572 0.653432
vt 0.915671 0.671500
vt 0.900663 0.671587
vt 0.927401 0.639621
vt 0.907334 0.980791
vt 0.979327 0.664053
vt 0.862866 0.981048
vt 0.979245 0.672477
vt 0.963916 0.672468
vt 0.900185 0.664212
vt 0.968624 0.981708
vt 0.942151 0.639621
vt 0.900010 0.650082
vt 0.946921 0.663897
vt 0.934776 0.672451
vt 0.894997 0.640023
vt 0.939484 0.981691
vt 0.974488 0.653909
vt 0.871523 0.671755
vt 0.932588 0.663811
vt 0.878194 0.980959
vt 0.974556 0.639778
vt 0.974506 0.650219
vt 0.873306 0.980987
vt 0.888635 0.980899
vt 0.979444 0.639802
vt 0.949605 0.981697
vt 0.942033 0.663873
vt 0.934596 0.981688
vt 0.946970 0.653776
vt 0.942100 0.650062
vt 0.963736 0.981705
vt 0.825391 0.980102
vt 0.947038 0.639645
vt 0.979376 0.653933
vt 0.902446 0.980819
vt 0.789845 0.980336
vt 0.974439 0.664030
vt 0.927701 0.663871
vt 0.854324 0.670994
vt 0.932459 0.653371
vt 0.876411 0.671727
vt 0.895122 0.650143
vt 0.939664 0.672454
vt 0.816112 0.670990
vt 0.899884 0.639962
vt 0.895297 0.664273
vt 0.953475 0.672462
vt 0.900055 0.653772
vt 0.968804 0.672471
vt 0.932288 0.639561
vt 0.890542 0.671645
vt 0.927526 0.649741
vt 0.905550 0.671559
vt 0.924655 0.672445
vt 0.817363 0.980225
vt 0.917455 0.980733
vt 0.788594 0.671101
vt 0.979065 0.981714
vt 0.826806 0.670868
vt 0.861082 0.671815
vt 0.852909 0.980228
vn 0.000000 0.000000 1.000000
vn 0.000000 0.000000 1.000000
vn 0.000000 0.000000 1.000000
vn 0.000000 0.000000 1.000000
vn 0.000000 1.000000 0.000000
vn 0.000000 1.000000 0.000000
vn 0.000000 1.000000 0.000000
vn 0.000000 1.000000 0.000000
vn 0.000000 0.000000 -1.000000
vn 0.000000 0.000000 -1.000000
vn 0.000000 0.000000 -1.000000
vn 0.000000 0.000000 -1.000000
vn 0.000000 -1.000000 0.000000
vn 0.000000 -1.000000 0.000000
vn 0.000000 -1.000000 0.000000
vn 0.000000 -1.000000 0.000000
vn 1.000000 0.000000 0.000000
vn 1.000000 0.000000 0.000000
vn 1.000000 0.000000 0.000000
vn 1.000000 0.000000 0.000000
vn -1.000000 0.000000 0.000000
vn -1.000000 0.000000 0.000000
vn -1.000000 0.000000 0.000000
vn -1.000000 0.000000 0.000000
vn -1.000000 0.000000 0.000000
vn -1.000000 0.000000 0.000000
vn -1.000000 0.000000 0.000000
vn -1.000000 0.000000 0.000000
vn 0.000000 -1.000000 0.000000
vn 0.000000 -1.000000 0.000000
vn 0.000000 -1.000000 0.000000
vn 0.000000 -1.000000 0.000000
vn 1.000000 0.000000 0.000000
vn 1.000000 0.000000 0.000000
vn 1.000000 0.000000 0.000000
vn 1.000000 0.000000 0.000000
vn 1.000000 0.000000 0.000000
vn 1.000000 0.000000 0.000000
vn 1.000000 0.000000 0.000000
vn 1.000000 0.000000 0.000000
vn 0.000000 -1.000000 0.000000
vn 0.000000 -1.000000 0.000000
vn 0.000000 -1.000000 0.000000
vn 0.000000 -1.000000 0.000000
vn 0.000000 1.000000 0.000000
vn 0.000000 1.000000 0.000000
vn 0.000000 1.000000 0.000000
vn 0.000000 1.000000 0.000000
vn -1.000000 0.000000 0.000000
vn -1.000000 0.000000 0.000000
vn -1.000000 0.000000 0.000000
vn -1.000000 0.000000 0.000000
vn 0.000000 1.000000 0.000000
vn 0.000000 1.000000 0.000000
vn 0.000000 1.000000 0.000000
vn 0.000000 1.000000 0.000000
vn 0.000000 -1.000000 0.000000
vn 0.000000 -1.000000 0.000000
vn 0.000000 -1.000000 0.000000
vn 0.000000 -1.000000 0.000000
vn 0.000000 0.000000 -1.000000
vn 0.000000 0.000000 -1.000000
vn 0.000000 0.000000 -1.000000
vn 0.000000 0.000000 -1.000000
vn 0.000000 1.000000 0.000000
vn 0.000000 1.000000 0.000000
vn 0.000000 1.000000 0.000000
vn 0.000000 1.000000 0.000000
vn 0.000000 0.000000 1.000000
vn 0.000000 0.000000 1.000000
vn 0.000000 0.000000 1.000000
vn 0.000000 0.000000 1.000000
vn 0.000000 -1.000000 0.000000
vn 0.000000 -1.000000 0.000000
vn 0.000000 -1.000000 0.000000
vn 0.000000 -1.000000 0.000000
vn 0.000000 0.000000 1.000000
vn 0.000000 0.000000 1.000000
vn 0.000000 0.000000 1.000000
vn 0.000000 0.000000 1.000000
vn 0.000000 1.000000 0.000000
vn 0.000000 1.000000 0.000000
vn 0.000000 1.000000 0.000000
vn 0.000000 1.000000 0.000000
vn 0.000000 0.000000 -1.000000
vn 0.000000 0.000000 -1.000000
vn 0.000000 0.000000 -1.000000
vn 0.000000 0.000000 -1.000000
vn 0.000000 0.000000 1.000000
vn 0.000000 0.000000 1.000000
vn 0.000000 0.000000 1.000000
vn 0.000000 0.000000 1.000000
vn 0.000000 -1.000000 0.000000
vn 0.000000 -1.000000 0.000000
vn 0.000000 -1.000000 0.000000
vn 0.000000 -1.000000 0.000000
vn 0.000000 0.000000 -1.000000
vn 0.000000 0.000000 -1.000000
vn 0.000000 0.000000 -1.000000
vn 0.000000 0.000000 -1.000000
vn 0.000000 1.000000 0.000000
vn 0.000000 1.000000 0.000000
vn 0.000000 1.000000 0.000000
vn 0.000000 1.000000 0.000000
vn 0.000000 -1.000000 0.000000
vn 0.000000 -1.000000 0.000000
vn 0.000000 -1.000000 0.000000
vn 0.000000 -1.000000 0.000000
vn 0.000000 0.000000 1.000000
vn 0.000000 0.000000 1.000000
vn 0.000000 0.000000 1.000000
vn 0.000000 0.000000 1.000000
vn 0.000000 1.000000 0.000000
vn 0.000000 1.000000 0.000000
vn 0.000000 1.000000 0.000000
vn 0.000000 1.000000 0.000000
vn 0.000000 0.000000 -1.000000
vn 0.000000 0.000000 -1.000000
vn 0.000000 0.000000 -1.000000
vn 0.000000 0.000000 -1.000000
s off
g Viga9 Vigas Tanque_de_agua
usemtl aiStandardSurface2SG
f 1/1/1 2/62/2 4/3/3 3/35/4
f 10/5/5 16/40/6 6/7/7 5/41/8
f 5/8/9 6/37/10 8/9/11 7/58/12
f 12/11/13 14/63/14 2/2/15 1/51/16
f 18/13/17 17/64/18 19/15/19 20/46/20
f 12/50/21 9/72/22 10/43/23 11/70/24
f 21/19/25 22/60/26 23/21/27 24/42/28
f 7/10/29 8/53/30 13/23/31 11/59/32
f 25/39/33 26/25/34 27/54/35 28/27/36
f 15/47/37 14/68/38 13/55/39 16/66/40
f 11/59/41 13/23/42 14/63/43 12/11/44
f 9/33/45 15/28/46 16/40/47 10/5/48
f 29/29/49 30/52/50 31/31/51 32/34/52
f 3/4/53 4/45/54 15/28/55 9/33/56
f 2/2/57 14/63/58 17/14/59 18/61/60
f 14/12/61 15/67/62 19/15/63 17/64/64
f 15/28/65 4/45/66 20/16/67 19/48/68
f 4/3/69 2/62/70 18/13/71 20/46/72
f 7/10/73 11/59/74 22/20/75 21/57/76
f 11/18/77 10/69/78 23/21/79 22/60/80
f 10/5/81 5/41/82 24/22/83 23/44/84
f 5/8/85 7/58/86 21/19/87 24/42/88
f 16/6/89 13/65/90 26/25/91 25/39/92
f 13/23/93 8/53/94 27/26/95 26/56/96
f 8/9/97 6/37/98 28/27/99 27/54/100
f 6/7/101 16/40/102 25/24/103 28/38/104
f 12/11/105 1/51/106 30/30/107 29/49/108
f 1/1/109 3/35/110 31/31/111 30/52/112
f 3/4/113 9/33/114 32/32/115 31/36/116
f 9/17/117 12/71/118 29/29/119 32/34/120
