# This file uses centimeters as units for non-parametric coordinates.

mtllib Cajademadera.mtl
g default
v 8.683177 -0.168638 -6.018190
v 11.390626 -0.168638 -6.014078
v 8.683177 2.538812 -6.018190
v 11.390626 2.538812 -6.014078
v 8.687288 2.538812 -8.725637
v 11.394738 2.538812 -8.721525
v 8.687288 -0.168638 -8.725637
v 11.394738 -0.168638 -8.721525
v 8.879185 0.027367 -6.017892
v 11.194619 0.027367 -6.014375
v 11.194619 2.342806 -6.014375
v 8.879185 2.342806 -6.017892
v 8.879480 2.538812 -6.213897
v 11.194918 2.538812 -6.210380
v 11.198435 2.538812 -8.525819
v 8.882998 2.538812 -8.529335
v 8.883297 2.342806 -8.725338
v 11.198731 2.342806 -8.721822
v 11.198731 0.027367 -8.721822
v 8.883297 0.027367 -8.725338
v 8.882998 -0.168638 -8.529335
v 11.198435 -0.168638 -8.525819
v 11.194918 -0.168638 -6.210380
v 8.879480 -0.168638 -6.213897
v 11.394440 0.027367 -8.525520
v 11.390923 0.027367 -6.210083
v 11.394440 2.342806 -8.525520
v 11.390923 2.342806 -6.210083
v 8.686993 0.027367 -8.529632
v 8.683476 0.027367 -6.214195
v 8.683476 2.342806 -6.214195
v 8.686993 2.342806 -8.529632
v 8.879324 0.027367 -6.110132
v 11.194759 0.027367 -6.106615
v 11.194759 2.342806 -6.106615
v 8.879324 2.342806 -6.110132
v 8.879480 2.446574 -6.213897
v 11.194918 2.446574 -6.210380
v 11.198435 2.446574 -8.525819
v 8.882998 2.446574 -8.529335
v 8.883156 2.342806 -8.633102
v 11.198591 2.342806 -8.629583
v 11.198591 0.027367 -8.629583
v 8.883156 0.027367 -8.633102
v 8.882998 -0.076401 -8.529335
v 11.198435 -0.076401 -8.525819
v 11.194918 -0.076401 -6.210380
v 8.879480 -0.076401 -6.213897
v 11.302202 0.027367 -8.525661
v 11.298685 0.027367 -6.210224
v 11.302202 2.342806 -8.525661
v 11.298685 2.342806 -6.210224
v 8.779230 0.027367 -8.529493
v 8.775713 0.027367 -6.214056
v 8.775713 2.342806 -6.214056
v 8.779230 2.342806 -8.529493
vt 0.486206 0.340527
vt 0.485691 0.559423
vt 0.266797 0.559098
vt 0.267280 0.340176
vt 0.726937 0.094035
vt 0.726422 0.312925
vt 0.507524 0.312599
vt 0.508008 0.093678
vt 0.485315 0.586973
vt 0.484800 0.805870
vt 0.265907 0.805544
vt 0.266390 0.586623
vt 0.725656 0.585940
vt 0.725141 0.804837
vt 0.506248 0.804511
vt 0.506731 0.585590
vt 0.727436 0.341933
vt 0.726921 0.560830
vt 0.508028 0.560505
vt 0.508510 0.341583
vt 0.487173 0.094073
vt 0.486695 0.312964
vt 0.267797 0.312673
vt 0.268244 0.093753
vt 0.250624 0.835112
vt 0.742516 0.588054
vt 0.974975 0.099208
vt 0.760662 0.099177
vt 0.993113 0.588025
vt 0.974945 0.313521
vt 0.000027 0.835139
vt 0.760632 0.313490
vt 0.018145 0.560577
vt 0.232458 0.560608
vt 0.000035 0.328120
vt 0.018175 0.346264
vt 0.993111 0.844387
vt 0.232488 0.346295
vt 0.760654 0.826270
vt 0.974967 0.826247
vt 0.742487 0.593817
vt 0.760631 0.611957
vt 0.000000 0.071760
vt 0.974944 0.611934
vt 0.232459 0.089859
vt 0.018145 0.089899
vt 0.250643 0.322311
vt 0.232498 0.304172
vt 0.000046 0.322357
vt 0.018185 0.304212
vt 0.742487 0.337457
vt 0.760631 0.355597
vt 0.760656 0.569910
vt 0.993084 0.337428
vt 0.974944 0.355572
vt 0.974969 0.569885
vt 0.250597 0.584515
vt 0.492828 0.318698
vt 0.492880 0.087951
vt 0.262092 0.318797
vt 0.000000 0.584542
vt 0.262111 0.088021
vt 0.491913 0.334405
vt 0.491822 0.565158
vt 0.261092 0.565221
vt 0.261135 0.334455
vt 0.732644 0.087914
vt 0.732553 0.318660
vt 0.501818 0.318722
vt 0.501875 0.087945
vt 0.491023 0.580852
vt 0.490932 0.811604
vt 0.260202 0.811668
vt 0.260245 0.580901
vt 0.731363 0.579818
vt 0.731273 0.810571
vt 0.500543 0.810635
vt 0.500585 0.579868
vt 0.733143 0.335812
vt 0.733053 0.566564
vt 0.502323 0.566628
vt 0.502365 0.335861
vt 0.742522 0.081033
vt 0.993084 0.593790
vt 0.250597 0.071714
vt 0.993119 0.081068
vt 0.250633 0.328155
vt 0.742514 0.844414
vt 0.250597 0.578752
vt 0.742487 0.331630
vt 0.993084 0.331665
vt 0.000000 0.578717
vt 0.232457 0.602659
vt 0.018144 0.602682
vt 0.018167 0.816995
vt 0.232480 0.816972
vn -0.001519 0.000000 0.999999
vn -0.001519 0.000000 0.999999
vn -0.001519 0.000000 0.999999
vn -0.001519 0.000000 0.999999
vn 0.000000 1.000000 0.000000
vn 0.000000 1.000000 0.000000
vn 0.000000 1.000000 0.000000
vn 0.000000 1.000000 0.000000
vn 0.001519 0.000000 -0.999999
vn 0.001519 0.000000 -0.999999
vn 0.001519 0.000000 -0.999999
vn 0.001519 0.000000 -0.999999
vn 0.000000 -1.000000 0.000000
vn 0.000000 -1.000000 0.000000
vn 0.000000 -1.000000 0.000000
vn 0.000000 -1.000000 0.000000
vn 0.999999 0.000000 0.001519
vn 0.999999 0.000000 0.001519
vn 0.999999 0.000000 0.001519
vn 0.999999 0.000000 0.001519
vn -0.999999 0.000000 -0.001519
vn -0.999999 0.000000 -0.001519
vn -0.999999 0.000000 -0.001519
vn -0.999999 0.000000 -0.001519
vn -0.001519 0.000000 0.999999
vn -0.001519 0.000000 0.999999
vn -0.001519 0.000000 0.999999
vn -0.001519 0.000000 0.999999
vn -0.001519 0.000000 0.999999
vn -0.001519 0.000000 0.999999
vn -0.001519 0.000000 0.999999
vn -0.001519 0.000000 0.999999
vn -0.001519 0.000000 0.999999
vn -0.001519 0.000000 0.999999
vn -0.001519 0.000000 0.999999
vn -0.001519 0.000000 0.999999
vn -0.001519 0.000000 0.999999
vn -0.001519 0.000000 0.999999
vn -0.001519 0.000000 0.999999
vn -0.001519 0.000000 0.999999
vn 0.000000 1.000000 0.000000
vn -0.000000 1.000000 0.000001
vn -0.000000 1.000000 0.000001
vn 0.000000 1.000000 0.000000
vn 0.000000 1.000000 0.000000
vn 0.000000 1.000000 0.000000
vn 0.000000 1.000000 0.000000
vn 0.000000 1.000000 0.000000
vn 0.000000 1.000000 0.000000
vn 0.000000 1.000000 0.000000
vn 0.000000 1.000000 0.000000
vn 0.000000 1.000000 0.000000
vn 0.000000 1.000000 0.000000
vn 0.000000 1.000000 0.000000
vn 0.000000 1.000000 0.000000
vn 0.000000 1.000000 0.000000
vn 0.001519 0.000000 -0.999999
vn 0.001519 0.000000 -0.999999
vn 0.001519 0.000000 -0.999999
vn 0.001519 0.000000 -0.999999
vn 0.001519 0.000000 -0.999999
vn 0.001519 0.000000 -0.999999
vn 0.001519 0.000000 -0.999999
vn 0.001519 0.000000 -0.999999
vn 0.001519 0.000000 -0.999999
vn 0.001519 0.000000 -0.999999
vn 0.001519 0.000000 -0.999999
vn 0.001519 0.000000 -0.999999
vn 0.001519 0.000000 -0.999999
vn 0.001519 0.000000 -0.999999
vn 0.001519 0.000000 -0.999999
vn 0.001519 0.000000 -0.999999
vn 0.000000 -1.000000 0.000000
vn 0.000000 -1.000000 0.000000
vn 0.000000 -1.000000 0.000000
vn 0.000000 -1.000000 0.000000
vn 0.000000 -1.000000 0.000000
vn 0.000000 -1.000000 0.000000
vn 0.000000 -1.000000 0.000000
vn 0.000000 -1.000000 0.000000
vn 0.000000 -1.000000 0.000000
vn 0.000000 -1.000000 0.000000
vn 0.000000 -1.000000 0.000000
vn 0.000000 -1.000000 0.000000
vn 0.000000 -1.000000 0.000000
vn 0.000000 -1.000000 0.000000
vn 0.000000 -1.000000 0.000000
vn 0.000000 -1.000000 0.000000
vn 0.999999 0.000000 0.001519
vn 0.999999 0.000000 0.001519
vn 0.999999 0.000000 0.001519
vn 0.999999 0.000000 0.001519
vn 0.999999 0.000000 0.001519
vn 0.999999 0.000000 0.001519
vn 0.999999 0.000000 0.001519
vn 0.999999 0.000000 0.001519
vn 0.999999 0.000000 0.001519
vn 0.999999 0.000000 0.001519
vn 0.999999 0.000000 0.001519
vn 0.999999 0.000000 0.001519
vn 0.999999 0.000000 0.001519
vn 0.999999 0.000000 0.001519
vn 0.999999 0.000000 0.001519
vn 0.999999 0.000000 0.001519
vn -0.999999 0.000000 -0.001519
vn -0.999999 0.000000 -0.001519
vn -0.999999 0.000000 -0.001519
vn -0.999999 0.000000 -0.001519
vn -0.999999 0.000000 -0.001519
vn -0.999999 0.000000 -0.001519
vn -0.999999 0.000000 -0.001519
vn -0.999999 0.000000 -0.001519
vn -0.999999 0.000000 -0.001519
vn -0.999999 0.000000 -0.001519
vn -0.999999 0.000000 -0.001519
vn -0.999999 0.000000 -0.001519
vn -0.999999 0.000000 -0.001519
vn -0.999999 0.000000 -0.001519
vn -0.999999 0.000000 -0.001519
vn -0.999999 0.000000 -0.001519
vn 0.000000 1.000000 0.000000
vn 0.000000 1.000000 0.000000
vn 0.000000 1.000000 0.000000
vn 0.000000 1.000000 0.000000
vn -0.999999 0.000000 -0.001519
vn -0.999999 0.000000 -0.001519
vn -0.999999 0.000000 -0.001519
vn -0.999999 0.000000 -0.001519
vn 0.000000 -1.000000 0.000000
vn 0.000000 -1.000000 0.000000
vn 0.000000 -1.000000 0.000000
vn 0.000000 -1.000000 0.000000
vn 0.999999 0.000000 0.001519
vn 0.999999 0.000000 0.001519
vn 0.999999 0.000000 0.001519
vn 0.999999 0.000000 0.001519
vn 0.001519 0.000000 -0.999999
vn 0.001519 0.000000 -0.999999
vn 0.001519 0.000000 -0.999999
vn 0.001519 0.000000 -0.999999
vn -0.999999 0.000000 -0.001519
vn -0.999999 0.000000 -0.001519
vn -0.999999 0.000000 -0.001519
vn -0.999999 0.000000 -0.001519
vn -0.001519 0.000000 0.999999
vn -0.001519 0.000000 0.999999
vn -0.001519 0.000000 0.999999
vn -0.001519 0.000000 0.999999
vn 0.999999 0.000000 0.001519
vn 0.999999 0.000000 0.001519
vn 0.999999 0.000000 0.001519
vn 0.999999 0.000000 0.001519
vn 0.000000 -1.000000 0.000000
vn 0.000000 -1.000000 0.000000
vn 0.000000 -1.000000 0.000000
vn 0.000000 -1.000000 0.000000
vn -0.999999 0.000000 -0.001519
vn -0.999999 0.000000 -0.001519
vn -0.999999 0.000000 -0.001519
vn -0.999999 0.000000 -0.001519
vn 0.000000 1.000000 0.000000
vn 0.000000 1.000000 0.000000
vn 0.000000 1.000000 0.000000
vn 0.000000 1.000000 0.000000
vn 0.999999 0.000000 0.001519
vn 0.999999 0.000000 0.001519
vn 0.999999 0.000000 0.001519
vn 0.999999 0.000000 0.001519
vn -0.001519 0.000000 0.999999
vn -0.001519 0.000000 0.999999
vn -0.001519 0.000000 0.999999
vn -0.001519 0.000000 0.999999
vn -0.999999 0.000000 -0.001519
vn -0.999999 0.000000 -0.001519
vn -0.999999 0.000000 -0.001519
vn -0.999999 0.000000 -0.001519
vn 0.001519 0.000000 -0.999999
vn 0.001519 0.000000 -0.999999
vn 0.001519 0.000000 -0.999999
vn 0.001519 0.000000 -0.999999
vn 0.999999 0.000000 0.001519
vn 0.999999 0.000000 0.001519
vn 0.999999 0.000000 0.001519
vn 0.999999 0.000000 0.001519
vn 0.000000 1.000000 0.000000
vn 0.000000 1.000000 0.000000
vn 0.000000 1.000000 0.000000
vn 0.000000 1.000000 0.000000
vn -0.001519 0.000000 0.999999
vn -0.001519 0.000000 0.999999
vn -0.001519 0.000000 0.999999
vn -0.001519 0.000000 0.999999
vn 0.000000 -1.000000 0.000000
vn 0.000000 -1.000000 0.000000
vn 0.000000 -1.000000 0.000000
vn 0.000000 -1.000000 0.000000
vn 0.001519 0.000000 -0.999999
vn 0.001519 0.000000 -0.999999
vn 0.001519 0.000000 -0.999999
vn 0.001519 0.000000 -0.999999
vn 0.000000 1.000000 0.000000
vn 0.000000 1.000000 0.000000
vn 0.000000 1.000000 0.000000
vn 0.000000 1.000000 0.000000
vn 0.001519 0.000000 -0.999999
vn 0.001519 0.000000 -0.999999
vn 0.001519 0.000000 -0.999999
vn 0.001519 0.000000 -0.999999
vn 0.000000 -1.000000 0.000000
vn 0.000000 -1.000000 0.000000
vn 0.000000 -1.000000 0.000000
vn 0.000000 -1.000000 0.000000
vn -0.001519 0.000000 0.999999
vn -0.001519 0.000000 0.999999
vn -0.001519 0.000000 0.999999
vn -0.001519 0.000000 0.999999
s off
g group3pCube86
usemtl initialShadingGroup
f 33/1/1 34/2/2 35/3/3 36/4/4
f 37/5/5 38/6/6 39/7/7 40/8/8
f 41/9/9 42/10/10 43/11/11 44/12/12
f 45/13/13 46/14/14 47/15/15 48/16/16
f 50/17/17 49/18/18 51/19/19 52/20/20
f 53/21/21 54/22/22 55/23/23 56/24/24
f 1/83/25 2/86/26 10/27/27 9/28/28
f 2/86/29 4/91/30 11/30/31 10/27/32
f 4/91/33 3/90/34 12/32/35 11/30/36
f 3/90/37 1/83/38 9/28/39 12/32/40
f 3/89/41 4/92/42 14/33/43 13/34/44
f 4/92/45 6/35/46 15/36/47 14/33/48
f 6/35/49 5/87/50 16/38/51 15/36/52
f 5/87/53 3/89/54 13/34/55 16/38/56
f 5/37/57 6/88/58 18/39/59 17/40/60
f 6/88/61 8/41/62 19/42/63 18/39/64
f 8/41/65 7/84/66 20/44/67 19/42/68
f 7/84/69 5/37/70 17/40/71 20/44/72
f 7/43/73 8/85/74 22/45/75 21/46/76
f 8/85/77 2/47/78 23/48/79 22/45/80
f 2/47/81 1/49/82 24/50/83 23/48/84
f 1/49/85 7/43/86 21/46/87 24/50/88
f 2/26/89 8/51/90 25/52/91 26/53/92
f 8/51/93 6/54/94 27/55/95 25/52/96
f 6/54/97 4/29/98 28/56/99 27/55/100
f 4/29/101 2/26/102 26/53/103 28/56/104
f 7/57/105 1/25/106 30/96/107 29/93/108
f 1/25/109 3/31/110 31/95/111 30/96/112
f 3/31/113 5/61/114 32/94/115 31/95/116
f 5/61/117 7/57/118 29/93/119 32/94/120
f 9/63/121 10/64/122 34/2/123 33/1/124
f 10/64/125 11/65/126 35/3/127 34/2/128
f 11/65/129 12/66/130 36/4/131 35/3/132
f 12/66/133 9/63/134 33/1/135 36/4/136
f 13/67/137 14/68/138 38/6/139 37/5/140
f 14/68/141 15/69/142 39/7/143 38/6/144
f 15/69/145 16/70/146 40/8/147 39/7/148
f 16/70/149 13/67/150 37/5/151 40/8/152
f 17/71/153 18/72/154 42/10/155 41/9/156
f 18/72/157 19/73/158 43/11/159 42/10/160
f 19/73/161 20/74/162 44/12/163 43/11/164
f 20/74/165 17/71/166 41/9/167 44/12/168
f 21/75/169 22/76/170 46/14/171 45/13/172
f 22/76/173 23/77/174 47/15/175 46/14/176
f 23/77/177 24/78/178 48/16/179 47/15/180
f 24/78/181 21/75/182 45/13/183 48/16/184
f 26/79/185 25/80/186 49/18/187 50/17/188
f 25/80/189 27/81/190 51/19/191 49/18/192
f 27/81/193 28/82/194 52/20/195 51/19/196
f 28/82/197 26/79/198 50/17/199 52/20/200
f 29/59/201 30/58/202 54/22/203 53/21/204
f 30/58/205 31/60/206 55/23/207 54/22/208
f 31/60/209 32/62/210 56/24/211 55/23/212
f 32/62/213 29/59/214 53/21/215 56/24/216
