# This file uses centimeters as units for non-parametric coordinates.

mtllib EmergencyDoorFrame.mtl
g default
v -48.608319 0.250302 -21.950045
v -45.832368 0.250302 -21.950045
v -48.608319 4.711660 -21.950045
v -45.832368 4.711660 -21.950045
v -48.608319 4.711660 -22.205773
v -45.832368 4.711660 -22.205773
v -48.608319 0.250302 -22.205773
v -45.832368 0.250302 -22.205773
v -48.347443 0.250302 -21.950045
v -46.093244 0.250302 -21.950045
v -48.347443 4.711660 -21.950045
v -46.093244 4.711660 -21.950045
v -48.347443 4.711660 -22.205773
v -46.093244 4.711660 -22.205773
v -48.347443 0.250302 -22.205773
v -46.093244 0.250302 -22.205773
v -48.608319 4.448869 -21.950045
v -48.608319 4.448868 -22.205773
v -48.347443 4.448869 -22.205773
v -46.093244 4.448868 -22.205773
v -45.832368 4.448868 -22.205773
v -45.832368 4.448869 -21.950045
v -46.093244 4.448869 -21.950045
v -48.347443 4.448869 -21.950045
vt 0.582217 0.913052
vt 0.582220 0.931341
vt 0.281950 0.931383
vt 0.281948 0.913094
vt 0.263156 0.931385
vt 0.263153 0.913096
vt 0.831753 0.304217
vt 0.850042 0.304214
vt 0.850089 0.604484
vt 0.831800 0.604486
vt 0.850092 0.623278
vt 0.831803 0.623281
vt 0.653184 0.948350
vt 0.953454 0.948324
vt 0.953456 0.966613
vt 0.653186 0.966639
vt 0.324243 0.936782
vt 0.624512 0.936756
vt 0.624514 0.955045
vt 0.324244 0.955071
vt 0.356998 0.743951
vt 0.356997 0.725662
vt 0.518211 0.725658
vt 0.518212 0.743947
vt 0.338340 0.725663
vt 0.338341 0.743952
vt 0.536868 0.725658
vt 0.536869 0.743947
vt 0.305446 0.024232
vt 0.466660 0.024204
vt 0.466663 0.042493
vt 0.305449 0.042521
vt 0.220721 0.348708
vt 0.220766 0.648978
vt 0.202109 0.648981
vt 0.202064 0.348711
vt 0.220769 0.667772
vt 0.202112 0.667775
vt 0.381980 0.648954
vt 0.381983 0.667748
vt 0.400638 0.648951
vt 0.400640 0.667745
vt 0.381935 0.348684
vt 0.400593 0.348681
vt 0.226965 0.643539
vt 0.226869 0.343269
vt 0.245526 0.343263
vt 0.245623 0.643533
vt 0.226863 0.324475
vt 0.245520 0.324469
vt 0.065655 0.343321
vt 0.065649 0.324527
vt 0.046992 0.324533
vt 0.046998 0.343327
vt 0.065751 0.643591
vt 0.047094 0.643597
vn 0.000000 0.000000 1.000000
vn 0.000000 0.000000 1.000000
vn 0.000000 0.000000 1.000000
vn 0.000000 0.000000 1.000000
vn 0.000000 1.000000 0.000000
vn 0.000000 1.000000 0.000000
vn 0.000000 1.000000 0.000000
vn 0.000000 1.000000 0.000000
vn 1.000000 0.000000 0.000000
vn 1.000000 0.000000 0.000000
vn 1.000000 0.000000 0.000000
vn 1.000000 0.000000 0.000000
vn -1.000000 0.000000 0.000000
vn -1.000000 0.000000 0.000000
vn -1.000000 0.000000 0.000000
vn -1.000000 0.000000 0.000000
vn 0.000000 0.000000 1.000000
vn 0.000000 0.000000 1.000000
vn 0.000000 0.000000 1.000000
vn 0.000000 0.000000 1.000000
vn 0.000000 1.000000 0.000000
vn 0.000000 1.000000 0.000000
vn 0.000000 0.000000 -1.000000
vn 0.000000 0.000000 -1.000000
vn 0.000000 0.000000 -1.000000
vn 0.000000 0.000000 -1.000000
vn 0.000000 0.000000 -1.000000
vn 0.000000 0.000000 -1.000000
vn 0.000000 0.000000 -1.000000
vn 0.000000 0.000000 -1.000000
vn 0.000000 1.000000 0.000000
vn 0.000000 1.000000 0.000000
vn -1.000000 0.000000 0.000000
vn -1.000000 0.000000 0.000000
vn 0.000000 0.000000 -1.000000
vn 0.000000 0.000000 -1.000000
vn 0.000000 0.000000 -1.000000
vn 0.000000 0.000000 -1.000000
vn 1.000000 0.000000 0.000000
vn 1.000000 0.000000 0.000000
vn 0.000000 0.000000 1.000000
vn 0.000000 0.000000 1.000000
vn 0.000000 0.000000 1.000000
vn 0.000000 0.000000 1.000000
vn 1.000000 0.000000 0.000000
vn 1.000000 0.000000 0.000000
vn 1.000000 0.000000 0.000000
vn 1.000000 0.000000 0.000000
vn -1.000000 0.000000 0.000000
vn -1.000000 0.000000 0.000000
vn -1.000000 0.000000 0.000000
vn -1.000000 0.000000 0.000000
vn -0.000000 -1.000000 0.000002
vn -0.000000 -1.000000 0.000002
vn -0.000000 -1.000000 0.000002
vn -0.000000 -1.000000 0.000002
s 1
g EmergencyDoorFrame EmergencyDoor
usemtl initialShadingGroup
f 9/33/1 24/34/2 17/35/3 1/36/4
s 2
f 13/21/5 11/22/6 12/23/7 14/24/8
s 3
f 2/1/9 8/2/10 21/3/11 22/4/12
s 4
f 7/7/13 1/8/14 17/9/15 18/10/16
s 1
f 22/41/17 23/39/18 10/43/19 2/44/20
s 2
f 14/24/8 12/23/7 4/27/21 6/28/22
s 6
f 16/45/23 20/46/24 21/47/25 8/48/26
f 18/54/27 19/51/28 15/55/29 7/56/30
s 2
f 3/25/31 11/22/6 13/21/5 5/26/32
s 4
f 18/10/16 17/9/15 3/11/33 5/12/34
s 6
f 5/53/35 13/52/36 19/51/28 18/54/27
f 20/46/24 19/51/28 13/52/36 14/49/37
f 21/47/25 20/46/24 14/49/37 6/50/38
s 3
f 22/4/12 21/3/11 6/5/39 4/6/40
s 1
f 12/40/41 23/39/18 22/41/17 4/42/42
f 24/34/2 23/39/18 12/40/41 11/37/43
f 17/35/3 24/34/2 11/37/43 3/38/44
s off
f 15/13/45 19/14/46 24/15/47 9/16/48
f 10/17/49 23/18/50 20/19/51 16/20/52
f 19/29/53 20/30/54 23/31/55 24/32/56
