# This file uses centimeters as units for non-parametric coordinates.

mtllib EmergencyDoor.mtl
g default
v -48.326279 0.268390 -21.579835
v -46.021873 0.268390 -21.579835
v -48.326279 4.446538 -21.579835
v -46.021873 4.446538 -21.579835
v -48.326279 4.446538 -21.686031
v -46.021873 4.446538 -21.686031
v -48.326279 0.268390 -21.686031
v -46.021873 0.268390 -21.686031
v -47.001480 0.268390 -21.579835
v -47.001480 4.446538 -21.579835
v -47.001480 4.446538 -21.686031
v -47.001480 0.268390 -21.686031
v -46.342490 0.268390 -21.579835
v -46.342490 4.446538 -21.579835
v -46.342490 4.446538 -21.686031
v -46.342490 0.268390 -21.686031
v -48.326279 4.072945 -21.579835
v -48.326279 4.072946 -21.686031
v -47.001480 4.072946 -21.686031
v -46.342490 4.072946 -21.686031
v -46.021873 4.072946 -21.686031
v -46.021873 4.072945 -21.579835
v -46.342490 4.072945 -21.579835
v -47.001480 4.072945 -21.579835
v -48.326279 2.671270 -21.579835
v -48.326279 2.671272 -21.686031
v -47.001480 2.671272 -21.686031
v -46.342490 2.671272 -21.686031
v -46.021873 2.671272 -21.686031
v -46.021873 2.671270 -21.579835
v -46.342490 2.671270 -21.579835
v -47.001480 2.671270 -21.579835
v -46.901478 2.771271 -21.686031
v -46.442488 2.771271 -21.686031
v -46.901478 3.972947 -21.686031
v -46.442488 3.972947 -21.686031
v -46.442488 3.972946 -21.573818
v -46.901478 3.972946 -21.573818
v -46.901478 2.771271 -21.573818
v -46.442488 2.771271 -21.573818
v -47.001480 2.671272 -21.720649
v -46.342490 2.671272 -21.720649
v -46.901478 2.771271 -21.720649
v -46.442488 2.771271 -21.720649
v -47.001480 4.072946 -21.720649
v -46.901478 3.972947 -21.720649
v -46.342490 4.072946 -21.720649
v -46.442488 3.972947 -21.720649
v -46.342490 4.072945 -21.545216
v -47.001480 4.072945 -21.545216
v -46.901478 3.972945 -21.545216
v -46.442488 3.972945 -21.545216
v -47.001480 2.671270 -21.545216
v -46.901478 2.771270 -21.545216
v -46.342490 2.671270 -21.545216
v -46.442488 2.771270 -21.545216
vt 0.921074 0.000000
vt 0.928668 0.000001
vt 0.928647 0.171848
vt 0.921053 0.171847
vt 0.928635 0.272092
vt 0.921040 0.272091
vt 0.928632 0.298810
vt 0.921037 0.298810
vt 0.906985 0.000000
vt 0.914580 0.000001
vt 0.914554 0.171849
vt 0.906959 0.171847
vt 0.914538 0.272092
vt 0.906944 0.272091
vt 0.914534 0.298811
vt 0.906939 0.298810
vt 0.956407 0.035904
vt 0.956411 0.136147
vt 0.953935 0.136148
vt 0.953931 0.035904
vt 0.461876 0.120489
vt 0.375935 0.120474
vt 0.375936 0.117999
vt 0.461876 0.118013
vt 0.461874 0.128514
vt 0.375934 0.128500
vt 0.461874 0.130560
vt 0.375933 0.130545
vt 0.944537 0.136147
vt 0.944533 0.035904
vt 0.947009 0.035904
vt 0.947013 0.136147
vt 0.281951 0.128061
vt 0.367891 0.128076
vt 0.367891 0.130552
vt 0.281950 0.130537
vt 0.281952 0.120036
vt 0.367892 0.120051
vt 0.281952 0.117991
vt 0.367893 0.118005
vt 0.028195 0.130222
vt 0.128439 0.130226
vt 0.128439 0.132702
vt 0.028195 0.132698
vt 0.128439 0.124822
vt 0.028195 0.124818
vt 0.028195 0.122342
vt 0.128439 0.122346
vt 0.167394 0.000001
vt 0.167378 0.094747
vt 0.159783 0.094746
vt 0.159799 0.000000
vt 0.167370 0.141876
vt 0.159776 0.141875
vt 0.167367 0.164806
vt 0.159772 0.164805
vt 0.281951 0.088301
vt 0.376697 0.088316
vt 0.376696 0.095911
vt 0.281950 0.095896
vt 0.423826 0.088324
vt 0.423825 0.095919
vt 0.446756 0.088328
vt 0.446755 0.095923
vt 0.437160 0.103802
vt 0.390031 0.103797
vt 0.390031 0.101321
vt 0.437160 0.101327
vt 0.944533 0.010071
vt 0.977359 0.010073
vt 0.977359 0.012549
vt 0.944533 0.012546
vt 0.944534 0.002046
vt 0.977359 0.002048
vt 0.944534 0.000000
vt 0.977360 0.000003
vt 0.281950 0.135946
vt 0.329080 0.135951
vt 0.329079 0.138427
vt 0.281950 0.138421
vt 0.977359 0.020429
vt 0.944533 0.020429
vt 0.944533 0.017953
vt 0.977359 0.017953
vt 0.977359 0.028454
vt 0.944533 0.028454
vt 0.977359 0.030500
vt 0.944533 0.030499
vt 0.423063 0.138434
vt 0.375933 0.138429
vt 0.375934 0.135954
vt 0.423063 0.135959
vt 0.390031 0.109202
vt 0.437160 0.109207
vt 0.437160 0.111683
vt 0.390031 0.111678
vt 0.629738 0.304229
vt 0.724484 0.304245
vt 0.724455 0.476092
vt 0.629709 0.476077
vt 0.771585 0.476100
vt 0.771613 0.304253
vt 0.724439 0.576336
vt 0.629693 0.576321
vt 0.794514 0.476104
vt 0.794543 0.304257
vt 0.724434 0.603055
vt 0.629689 0.603039
vt 0.794498 0.576348
vt 0.771568 0.576344
vt 0.771564 0.603062
vt 0.794493 0.603066
vt 0.507553 0.127017
vt 0.602298 0.126985
vt 0.602356 0.298833
vt 0.507610 0.298865
vt 0.507519 0.026773
vt 0.602265 0.026742
vt 0.649428 0.126970
vt 0.649485 0.298817
vt 0.507510 0.000055
vt 0.602256 0.000023
vt 0.672357 0.126962
vt 0.672415 0.298810
vt 0.649394 0.026726
vt 0.649385 0.000008
vt 0.672324 0.026718
vt 0.672315 0.000000
vt 0.131730 0.100244
vt 0.084601 0.100251
vt 0.091752 0.093099
vt 0.124577 0.093093
vt 0.084585 0.000008
vt 0.091738 0.007158
vt 0.131714 0.000000
vt 0.124564 0.007153
vt 0.075341 0.100244
vt 0.028211 0.100252
vt 0.035362 0.093099
vt 0.068188 0.093093
vt 0.028195 0.000008
vt 0.035348 0.007158
vt 0.075324 0.000000
vt 0.068174 0.007153
vn 0.000000 0.000000 1.000000
vn 0.000000 0.000000 1.000000
vn 0.000000 0.000000 1.000000
vn 0.000000 0.000000 1.000000
vn 0.000000 1.000000 0.000000
vn 0.000000 1.000000 0.000000
vn 0.000000 1.000000 0.000000
vn 0.000000 1.000000 0.000000
vn 0.000000 0.000000 -1.000000
vn 0.000000 0.000000 -1.000000
vn 0.000000 0.000000 -1.000000
vn 0.000000 0.000000 -1.000000
vn 0.000000 -1.000000 0.000000
vn 0.000000 -1.000000 0.000000
vn 0.000000 -1.000000 0.000000
vn 0.000000 -1.000000 0.000000
vn 1.000000 0.000000 0.000000
vn 1.000000 0.000000 0.000000
vn 1.000000 0.000000 0.000000
vn 1.000000 0.000000 0.000000
vn -1.000000 0.000000 0.000000
vn -1.000000 0.000000 0.000000
vn -1.000000 0.000000 0.000000
vn -1.000000 0.000000 0.000000
vn 0.000000 0.000000 1.000000
vn 0.000000 0.000000 1.000000
vn 0.000000 1.000000 0.000000
vn 0.000000 1.000000 0.000000
vn 0.000000 0.000000 -1.000000
vn 0.000000 0.000000 -1.000000
vn 0.000000 -1.000000 0.000000
vn 0.000000 -1.000000 0.000000
vn 0.000000 0.000000 1.000000
vn 0.000000 0.000000 1.000000
vn 0.000000 1.000000 0.000000
vn 0.000000 1.000000 0.000000
vn 0.000000 0.000000 -1.000000
vn 0.000000 0.000000 -1.000000
vn 0.000000 -1.000000 0.000000
vn 0.000000 -1.000000 0.000000
vn -1.000000 0.000000 0.000000
vn -1.000000 0.000000 0.000000
vn -1.000000 0.000000 0.000000
vn -1.000000 0.000000 0.000000
vn 0.000000 0.000000 -1.000000
vn 0.000000 0.000000 -1.000000
vn 0.000000 0.000000 -1.000000
vn 0.000000 0.000000 -1.000000
vn 0.000000 0.000000 -1.000000
vn 0.000000 0.000000 -1.000000
vn 0.000000 0.000000 -1.000000
vn 0.000000 0.000000 -1.000000
vn 1.000000 0.000000 0.000000
vn 1.000000 0.000000 0.000000
vn 1.000000 0.000000 0.000000
vn 1.000000 0.000000 0.000000
vn 0.000000 0.000000 1.000000
vn 0.000000 0.000000 1.000000
vn 0.000000 0.000000 1.000000
vn 0.000000 0.000000 1.000000
vn 0.000000 0.000000 1.000000
vn 0.000000 0.000000 1.000000
vn 0.000000 0.000000 1.000000
vn 0.000000 0.000000 1.000000
vn -0.000000 0.000000 -1.000000
vn 0.000000 0.000000 -1.000000
vn 0.000000 0.000000 -1.000000
vn -0.000000 0.000000 -1.000000
vn 0.000000 0.000000 -1.000000
vn 0.000000 0.000000 -1.000000
vn -0.000000 0.000000 -1.000000
vn -0.000000 0.000000 -1.000000
vn 0.000000 0.000000 1.000000
vn 0.000000 0.000000 1.000000
vn 0.000000 0.000000 1.000000
vn 0.000000 0.000000 1.000000
vn 0.000000 0.000000 1.000000
vn 0.000000 0.000000 1.000000
vn 0.000000 0.000000 1.000000
vn 0.000000 0.000000 1.000000
vn 0.000000 -1.000000 0.000000
vn 0.000000 -1.000000 0.000000
vn 0.000000 -1.000000 0.000000
vn 0.000000 -1.000000 0.000000
vn 0.000000 1.000000 0.000000
vn 0.000000 1.000000 0.000000
vn 0.000000 1.000000 0.000000
vn 0.000000 1.000000 0.000000
vn -1.000000 0.000000 0.000000
vn -1.000000 0.000000 0.000000
vn -1.000000 0.000000 0.000000
vn -1.000000 0.000000 0.000000
vn 1.000000 0.000000 0.000000
vn 1.000000 0.000000 0.000000
vn 1.000000 0.000000 0.000000
vn 1.000000 0.000000 0.000000
vn 0.000000 1.000000 0.000000
vn 0.000000 1.000000 0.000000
vn 0.000000 1.000000 0.000000
vn 0.000000 1.000000 0.000000
vn 0.000000 -1.000000 0.000000
vn 0.000000 -1.000000 0.000000
vn 0.000000 -1.000000 0.000000
vn 0.000000 -1.000000 0.000000
vn 1.000000 0.000000 0.000000
vn 1.000000 0.000000 0.000000
vn 1.000000 0.000000 0.000000
vn 1.000000 0.000000 0.000000
vn -1.000000 0.000000 0.000000
vn -1.000000 0.000000 0.000000
vn -1.000000 0.000000 0.000000
vn -1.000000 0.000000 0.000000
vn 0.000000 1.000000 0.000000
vn 0.000000 1.000000 0.000000
vn 0.000000 1.000000 0.000000
vn 0.000000 1.000000 0.000000
vn 0.000000 -1.000000 -0.000038
vn 0.000000 -1.000000 -0.000038
vn 0.000000 -1.000000 -0.000038
vn 0.000000 -1.000000 -0.000038
vn -1.000000 0.000000 0.000000
vn -1.000000 0.000000 0.000000
vn -1.000000 0.000000 0.000000
vn -1.000000 0.000000 0.000000
vn 1.000000 0.000000 0.000000
vn 1.000000 0.000000 0.000000
vn 1.000000 0.000000 0.000000
vn 1.000000 0.000000 0.000000
vn 0.000000 -1.000000 0.000000
vn 0.000000 -1.000000 0.000000
vn 0.000000 -1.000000 0.000000
vn 0.000000 -1.000000 0.000000
vn 0.000000 1.000000 0.000022
vn 0.000000 1.000000 0.000022
vn 0.000000 1.000000 0.000022
vn 0.000000 1.000000 0.000022
vn 1.000000 0.000000 0.000000
vn 1.000000 0.000000 0.000000
vn 1.000000 0.000000 0.000000
vn 1.000000 0.000000 0.000000
vn -1.000000 0.000000 0.000000
vn -1.000000 0.000000 0.000000
vn -1.000000 0.000000 0.000000
vn -1.000000 0.000000 0.000000
vn 0.000000 1.000000 0.000006
vn 0.000000 1.000000 0.000006
vn 0.000000 1.000000 0.000006
vn 0.000000 1.000000 0.000006
vn 1.000000 0.000000 0.000000
vn 1.000000 0.000000 0.000000
vn 1.000000 0.000000 0.000000
vn 1.000000 0.000000 0.000000
vn 0.000000 -1.000000 -0.000008
vn 0.000000 -1.000000 -0.000008
vn 0.000000 -1.000000 -0.000008
vn 0.000000 -1.000000 -0.000008
vn -1.000000 0.000000 0.000000
vn -1.000000 0.000000 0.000000
vn -1.000000 0.000000 0.000000
vn -1.000000 0.000000 0.000000
s 1
g EmergencyDoor1 EmergencyDoor
usemtl initialShadingGroup
f 1/97/1 9/98/2 32/99/3 25/100/4
s 2
f 3/49/5 10/50/6 11/51/7 5/52/8
s 3
f 26/113/9 27/114/10 12/115/11 7/116/12
s 4
f 7/57/13 12/58/14 9/59/15 1/60/16
s 5
f 2/1/17 8/2/18 29/3/19 30/4/20
s 6
f 7/9/21 1/10/22 25/11/23 26/12/24
s 1
f 31/101/25 32/99/3 9/98/2 13/102/26
s 2
f 11/51/7 10/50/6 14/53/27 15/54/28
s 3
f 12/115/11 27/114/10 28/119/29 16/120/30
s 4
f 9/59/15 12/58/14 16/61/31 13/62/32
s 1
f 30/105/33 31/101/25 13/102/26 2/106/34
s 2
f 15/54/28 14/53/27 4/55/35 6/56/36
s 3
f 16/120/30 28/119/29 29/123/37 8/124/38
s 4
f 13/62/32 16/61/31 8/63/39 2/64/40
s 6
f 18/14/41 17/13/42 3/15/43 5/16/44
s 3
f 5/121/45 11/122/46 19/118/47 18/117/48
f 20/125/49 19/118/47 11/122/46 15/126/50
f 21/127/51 20/125/49 15/126/50 6/128/52
s 5
f 22/6/53 21/5/54 6/7/55 4/8/56
s 1
f 14/111/57 23/110/58 22/109/59 4/112/60
f 10/107/61 24/103/62 23/110/58 14/111/57
f 17/104/63 24/103/62 10/107/61 3/108/64
s 6
f 26/12/24 25/11/23 17/13/42 18/14/41
s 3
f 18/117/48 19/118/47 27/114/10 26/113/9
f 29/123/37 28/119/29 20/125/49 21/127/51
s 5
f 30/4/20 29/3/19 21/5/54 22/6/53
s 1
f 22/109/59 23/110/58 31/101/25 30/105/33
f 25/100/4 32/99/3 24/103/62 17/104/63
s 9
f 42/129/65 41/130/66 43/131/67 44/132/68
f 41/130/66 45/133/69 46/134/70 43/131/67
f 45/133/69 47/135/71 48/136/72 46/134/70
f 47/135/71 42/129/65 44/132/68 48/136/72
s 10
f 49/137/73 50/138/74 51/139/75 52/140/76
f 50/138/74 53/141/77 54/142/78 51/139/75
f 53/141/77 55/143/79 56/144/80 54/142/78
f 55/143/79 49/137/73 52/140/76 56/144/80
s off
f 28/65/81 27/66/82 41/67/83 42/68/84
f 33/69/85 34/70/86 44/71/87 43/72/88
f 27/17/89 19/18/90 45/19/91 41/20/92
f 35/21/93 33/22/94 43/23/95 46/24/96
f 19/77/97 20/78/98 47/79/99 45/80/100
f 36/81/101 35/82/102 46/83/103 48/84/104
f 20/29/105 28/30/106 42/31/107 47/32/108
f 34/33/109 36/34/110 48/35/111 44/36/112
f 23/89/113 24/90/114 50/91/115 49/92/116
f 38/86/117 37/85/118 52/87/119 51/88/120
f 24/41/121 32/42/122 53/43/123 50/44/124
f 39/26/125 38/25/126 51/27/127 54/28/128
f 32/93/129 31/94/130 55/95/131 53/96/132
f 40/74/133 39/73/134 54/75/135 56/76/136
f 31/45/137 23/46/138 49/47/139 55/48/140
f 37/38/141 40/37/142 56/39/143 52/40/144
f 34/70/145 33/69/146 39/73/147 40/74/148
f 33/22/149 35/21/150 38/25/151 39/26/152
f 35/82/153 36/81/154 37/85/155 38/86/156
f 36/34/157 34/33/158 40/37/159 37/38/160
