# This file uses centimeters as units for non-parametric coordinates.

mtllib Building2.mtl
g default
v 40.276910 13.303629 193.318912
v 76.729669 13.303629 193.318912
v 40.276910 13.303629 173.325535
v 76.729669 13.303629 173.325535
v 101.031473 13.303629 173.325535
v 40.276910 13.303629 153.332153
v 76.729669 13.303629 153.332153
v 101.031473 13.303629 153.332153
v 40.276910 13.303629 143.335464
v 76.729669 13.303629 143.335464
v 101.031473 13.303629 143.335464
v 40.276910 -157.327118 193.318912
v 76.729669 -157.327118 193.318912
v 40.276910 -157.327118 173.325535
v 76.729669 -157.327118 173.325535
v 101.031473 -157.327118 173.325535
v 40.276910 -157.327118 153.332153
v 101.031473 -157.327118 153.332153
v 40.276910 -157.327118 143.335464
v 101.031473 -157.327118 143.335464
v 76.729669 -157.327118 143.335464
v 40.276910 35.828300 153.332153
v 76.729669 35.828300 153.332153
v 101.031473 35.828300 153.332153
v 40.276910 35.828300 143.335464
v 76.729669 35.828300 143.335464
v 101.031473 35.828300 143.335464
v 40.276910 -22.618578 193.318912
v 76.729669 -22.618578 193.318912
v 76.729669 -22.618578 173.325535
v 101.031473 -22.618578 173.325535
v 101.031473 -22.618578 153.332153
v 101.031473 -22.618578 143.335464
v 76.729669 -22.618578 143.335464
v 40.276910 -22.618578 143.335464
v 40.276910 -22.618578 153.332153
v 40.276910 -22.618578 173.325535
v 40.276910 -25.009617 193.318912
v 76.729669 -25.009617 193.318912
v 76.729669 -25.009617 173.325535
v 101.031473 -25.009617 173.325535
v 101.031473 -25.009617 153.332157
v 101.031473 -25.009617 143.335464
v 76.729669 -25.009617 143.335464
v 40.276910 -25.009617 143.335464
v 40.276910 -25.009617 153.332157
v 40.276910 -25.009617 173.325535
v 21.892068 -22.618578 143.335464
v 21.892068 -25.009617 143.335464
v 21.892068 -22.618578 153.332153
v 21.892068 -25.009617 153.332157
v 21.892068 -22.618578 173.325535
v 21.892068 -25.009617 173.325535
v 21.892068 -22.618578 193.318912
v 21.892068 -25.009617 193.318912
vt 0.928753 0.688047
vt 0.167636 0.688047
vt 0.848281 0.688047
vt 0.254456 0.688047
vt 0.348037 0.688047
vt 0.767845 0.688047
vt 0.492614 0.763599
vt 0.433008 0.688047
vt 0.728294 0.688047
vt 0.575351 0.688047
vt 0.472583 0.688047
vt 0.928062 0.009581
vt 0.164949 0.008609
vt 0.847312 0.009581
vt 0.250959 0.008044
vt 0.345658 0.009031
vt 0.768780 0.009581
vt 0.433008 0.010289
vt 0.728294 0.009820
vt 0.472511 0.009958
vt 0.576372 0.009840
vt 0.874199 0.905451
vt 0.728695 0.905297
vt 0.591248 0.855310
vt 0.874241 0.864634
vt 0.728737 0.864480
vt 0.630012 0.855381
vt 0.086758 0.698285
vt 0.167070 0.544584
vt 0.253720 0.544584
vt 0.347536 0.544584
vt 0.433008 0.544584
vt 0.472568 0.544584
vt 0.575566 0.544584
vt 0.328470 0.762497
vt 0.228014 0.697856
vt 0.157386 0.698071
vt 0.022036 0.771875
vt 0.167033 0.534328
vt 0.253671 0.534328
vt 0.347503 0.534328
vt 0.433008 0.534328
vt 0.472567 0.534328
vt 0.575580 0.534328
vt 0.263748 0.836086
vt 0.228434 0.836194
vt 0.157806 0.836408
vt 0.263525 0.762694
vt 0.263551 0.771141
vt 0.228211 0.762801
vt 0.228237 0.771248
vt 0.157583 0.763016
vt 0.157609 0.771463
vt 0.086955 0.763231
vt 0.086981 0.771677
vt 0.728294 0.533718
vt 0.019578 0.534328
vt 0.018046 0.009302
vt 0.728294 0.544584
vt 0.341446 0.919076
vt 0.341368 0.849124
vt 0.848281 0.544584
vt 0.928753 0.544584
vt 0.019605 0.544584
vt 0.767845 0.544584
vt 0.727337 0.855381
vt 0.631387 0.864377
vt 0.631345 0.905194
vt 0.872512 0.855381
vt 0.346692 0.855453
vt 0.492692 0.855325
vt 0.213829 0.849265
vt 0.020021 0.688047
vt 0.426549 0.988934
vt 0.341523 0.989028
vt 0.213984 0.989169
vt 0.213907 0.919217
vt 0.426472 0.918982
vt 0.591209 0.763067
vt 0.346614 0.763727
vt 0.910020 0.855381
vt 0.847615 0.533108
vt 0.928365 0.533108
vt 0.769084 0.533108
vt 0.727465 0.762621
vt 0.630003 0.762621
vt 0.872512 0.762621
vt 0.910020 0.762621
vt 0.087178 0.836623
vt 0.022010 0.763428
vt 0.328496 0.770943
vt 0.263327 0.697749
vn 0.000000 1.000000 0.000000
vn 0.000000 1.000000 0.000000
vn 0.000000 1.000000 0.000000
vn 0.000000 1.000000 0.000000
vn 0.000000 1.000000 0.000000
vn 0.000000 1.000000 0.000000
vn 0.000000 1.000000 0.000000
vn 0.000000 1.000000 0.000000
vn 0.000000 1.000000 0.000000
vn 0.000000 1.000000 0.000000
vn 0.000000 1.000000 0.000000
vn 0.000000 1.000000 0.000000
vn 0.000000 1.000000 0.000000
vn 0.000000 1.000000 0.000000
vn -1.000000 0.000000 0.000000
vn -1.000000 0.000000 0.000000
vn -1.000000 0.000000 0.000000
vn -1.000000 0.000000 0.000000
vn 0.000000 0.000000 1.000000
vn 0.000000 0.000000 1.000000
vn 0.000000 0.000000 1.000000
vn 0.000000 0.000000 1.000000
vn 1.000000 0.000000 0.000000
vn 1.000000 0.000000 0.000000
vn 1.000000 0.000000 0.000000
vn 1.000000 0.000000 0.000000
vn -1.000000 0.000000 0.000000
vn -1.000000 0.000000 0.000000
vn -1.000000 0.000000 0.000000
vn -1.000000 0.000000 0.000000
vn 0.000000 0.000000 1.000000
vn 0.000000 0.000000 1.000000
vn 0.000000 0.000000 1.000000
vn 0.000000 0.000000 1.000000
vn 1.000000 0.000000 0.000000
vn 1.000000 0.000000 0.000000
vn 1.000000 0.000000 0.000000
vn 1.000000 0.000000 0.000000
vn -1.000000 0.000000 0.000000
vn -1.000000 0.000000 0.000000
vn -1.000000 0.000000 0.000000
vn -1.000000 0.000000 0.000000
vn 1.000000 0.000000 0.000000
vn 1.000000 0.000000 0.000000
vn 1.000000 -0.000000 0.000000
vn 1.000000 -0.000000 0.000000
vn 0.000000 0.000000 -1.000000
vn 0.000000 0.000000 -1.000000
vn 0.000000 0.000000 -1.000000
vn 0.000000 0.000000 -1.000000
vn 0.000000 0.000000 -1.000000
vn 0.000000 0.000000 -1.000000
vn 0.000000 0.000000 -1.000000
vn 0.000000 0.000000 -1.000000
vn 0.000000 0.000000 1.000000
vn 0.000000 0.000000 1.000000
vn 0.000000 0.000000 1.000000
vn 0.000000 0.000000 1.000000
vn 0.000000 0.000000 1.000000
vn 0.000000 0.000000 1.000000
vn 0.000000 0.000000 1.000000
vn 0.000000 0.000000 1.000000
vn 1.000000 0.000000 0.000000
vn 1.000000 0.000000 0.000000
vn 1.000000 0.000000 0.000000
vn 1.000000 0.000000 0.000000
vn -1.000000 0.000000 0.000000
vn -1.000000 0.000000 0.000000
vn -1.000000 0.000000 0.000000
vn -1.000000 0.000000 0.000000
vn 0.000000 0.000000 -1.000000
vn 0.000000 0.000000 -1.000000
vn 0.000000 0.000000 -1.000000
vn 0.000000 0.000000 -1.000000
vn 0.000000 0.000000 -1.000000
vn 0.000000 0.000000 -1.000000
vn 0.000000 0.000000 -1.000000
vn 0.000000 0.000000 -1.000000
vn 0.000000 0.000000 1.000000
vn 0.000000 0.000000 1.000000
vn 1.000000 0.000000 0.000000
vn 1.000000 0.000000 0.000000
vn 0.000000 0.000000 1.000000
vn 0.000000 0.000000 1.000000
vn 1.000000 0.000000 0.000000
vn 1.000000 0.000000 0.000000
vn 1.000000 0.000000 0.000000
vn 1.000000 0.000000 0.000000
vn 0.000000 0.000000 -1.000000
vn 0.000000 0.000000 -1.000000
vn 0.000000 0.000000 -1.000000
vn 0.000000 0.000000 -1.000000
vn -1.000000 0.000000 0.000000
vn -1.000000 0.000000 0.000000
vn -1.000000 0.000000 0.000000
vn -1.000000 0.000000 0.000000
vn -1.000000 -0.000000 0.000000
vn -1.000000 -0.000000 0.000000
vn -1.000000 -0.000000 0.000000
vn -1.000000 -0.000000 0.000000
vn -1.000000 0.000000 0.000000
vn -1.000000 0.000000 0.000000
vn -1.000000 0.000000 0.000000
vn -1.000000 0.000000 0.000000
vn 0.000000 0.000000 1.000000
vn 0.000000 0.000000 1.000000
vn 1.000000 0.000000 0.000000
vn 1.000000 0.000000 0.000000
vn 0.000000 0.000000 1.000000
vn 0.000000 0.000000 1.000000
vn 1.000000 0.000000 0.000000
vn 1.000000 0.000000 0.000000
vn 1.000000 0.000000 0.000000
vn 1.000000 0.000000 0.000000
vn 0.000000 0.000000 -1.000000
vn 0.000000 0.000000 -1.000000
vn 0.000000 0.000000 -1.000000
vn 0.000000 0.000000 -1.000000
vn -1.000000 0.000000 0.000000
vn -1.000000 0.000000 0.000000
vn -1.000000 0.000000 0.000000
vn -1.000000 0.000000 0.000000
vn -1.000000 -0.000000 0.000000
vn -1.000000 -0.000000 0.000000
vn -1.000000 -0.000000 0.000000
vn -1.000000 -0.000000 0.000000
vn -1.000000 0.000000 0.000000
vn -1.000000 0.000000 0.000000
vn -1.000000 0.000000 0.000000
vn -1.000000 0.000000 0.000000
vn 0.000000 0.000000 -1.000000
vn 0.000000 0.000000 -1.000000
vn 0.000000 0.000000 -1.000000
vn 0.000000 0.000000 -1.000000
vn 0.000000 -1.000000 0.000000
vn 0.000000 -1.000000 0.000000
vn 0.000000 -1.000000 0.000000
vn 0.000000 -1.000000 0.000000
vn 0.000000 1.000000 0.000000
vn 0.000000 1.000000 0.000000
vn 0.000000 1.000000 0.000000
vn 0.000000 1.000000 0.000000
vn 0.000000 -1.000000 0.000000
vn 0.000000 -1.000000 0.000000
vn 0.000000 -1.000000 0.000000
vn 0.000000 -1.000000 0.000000
vn 0.000000 1.000000 0.000000
vn 0.000000 1.000000 0.000000
vn 0.000000 1.000000 0.000000
vn 0.000000 1.000000 0.000000
vn 0.000000 -1.000000 0.000000
vn 0.000000 -1.000000 0.000000
vn 0.000000 -1.000000 0.000000
vn 0.000000 -1.000000 0.000000
vn 0.000000 1.000000 0.000000
vn 0.000000 1.000000 0.000000
vn 0.000000 1.000000 0.000000
vn 0.000000 1.000000 0.000000
vn 0.000000 0.000000 1.000000
vn 0.000000 0.000000 1.000000
vn 0.000000 0.000000 1.000000
vn 0.000000 0.000000 1.000000
s 1
g pPlane10 group18 group16
usemtl initialShadingGroup
f 4/60/1 3/77/2 1/72/3 2/61/4
f 7/75/5 6/76/6 3/77/2 4/60/1
f 8/74/7 7/75/5 4/60/1 5/78/8
s 2
f 23/23/9 26/26/10 25/25/11 22/22/12
f 24/68/13 27/67/14 26/26/10 23/23/9
s off
f 28/63/15 1/1/16 3/3/17 37/62/18
s 3
f 2/2/19 1/73/20 28/64/21 29/29/22
s 4
f 4/4/23 2/2/24 29/29/25 30/30/26
s off
f 3/3/27 6/6/28 36/65/29 37/62/30
s 5
f 5/5/31 4/4/32 30/30/33 31/31/34
s 6
f 8/8/35 5/5/36 31/31/37 32/32/38
s off
f 6/6/39 9/9/40 35/59/41 36/65/42
s 7
f 11/11/43 8/8/44 32/32/45 33/33/46
s 8
f 9/9/47 10/10/48 34/34/49 35/59/50
s 9
f 10/10/51 11/11/52 33/33/53 34/34/54
s off
f 22/70/55 6/80/56 7/7/57 23/71/58
f 23/71/59 7/7/60 8/79/61 24/24/62
f 24/24/63 8/79/64 11/86/65 27/27/66
f 22/81/67 25/69/68 9/87/69 6/88/70
f 25/69/71 26/66/72 10/85/73 9/87/74
f 26/66/75 27/27/76 11/86/77 10/85/78
s 3
f 38/57/79 39/39/80 29/29/22 28/64/21
s 4
f 39/39/81 40/40/82 30/30/26 29/29/25
s 5
f 40/40/83 41/41/84 31/31/34 30/30/33
s 6
f 41/41/85 42/42/86 32/32/38 31/31/37
s 7
f 42/42/87 43/43/88 33/33/46 32/32/45
s 9
f 43/43/89 44/44/90 34/34/54 33/33/53
s 8
f 44/44/91 45/56/92 35/59/50 34/34/49
s off
f 49/49/93 51/51/94 50/50/95 48/48/96
f 51/51/97 53/53/98 52/52/99 50/50/100
f 53/53/101 55/55/102 54/54/103 52/52/104
s 3
f 12/58/105 13/13/106 39/39/80 38/57/79
s 4
f 13/13/107 15/15/108 40/40/82 39/39/81
s 5
f 15/15/109 16/16/110 41/41/84 40/40/83
s 6
f 16/16/111 18/18/112 42/42/86 41/41/85
s 7
f 18/18/113 20/20/114 43/43/88 42/42/87
s 9
f 20/20/115 21/21/116 44/44/90 43/43/89
s 8
f 21/21/117 19/19/118 45/56/92 44/44/91
s off
f 19/19/119 17/17/120 46/84/121 45/56/122
f 17/17/123 14/14/124 47/82/125 46/84/126
f 14/14/127 12/12/128 38/83/129 47/82/130
f 35/35/131 45/91/132 49/49/133 48/48/134
f 49/49/135 45/45/136 46/46/137 51/51/138
f 48/48/139 50/50/140 36/36/141 35/92/142
f 51/51/143 46/46/144 47/47/145 53/53/146
f 50/50/147 52/52/148 37/37/149 36/36/150
f 53/53/151 47/47/152 38/89/153 55/55/154
f 52/52/155 54/54/156 28/28/157 37/37/158
f 38/38/159 28/90/160 54/54/161 55/55/162
